<svg width="215" height="199" viewBox="0 0 215 199" fill="none" xmlns="http://www.w3.org/2000/svg">
<path d="M148.245 132.176C148.245 128.047 142.687 124.441 134.398 122.454C142.687 120.462 148.245 116.86 148.245 112.731C148.245 106.452 135.449 101.367 119.66 101.367C103.871 101.367 91.0747 106.454 91.0747 112.731C91.0747 116.862 96.6333 120.464 104.92 122.454C96.6333 124.443 91.0747 128.049 91.0747 132.176C91.0747 136.4 96.8811 140.078 105.479 142.037C96.8565 143.993 91.0338 147.675 91.0338 151.905C91.0338 158.182 103.83 163.268 119.619 163.268C135.408 163.268 148.206 158.18 148.206 151.905C148.206 147.681 142.4 144.006 133.8 142.047C142.42 140.086 148.245 136.408 148.245 132.176Z" fill="white"/>
<path d="M150.24 111.384C150.24 103.988 136.532 98 119.627 98C102.706 98 89 103.99 89 111.384C89 111.384 89 118.583 89 122.137C89 123.862 89.7558 125.523 91.1321 127.045C89.7558 128.564 89 130.213 89 131.953C89 131.953 89 139.154 89 142.708C89 144.447 89.7558 146.094 91.1321 147.616C89.7558 149.135 89 150.786 89 152.523C89 152.523 89 159.724 89 163.277C89 170.659 102.706 176.661 119.627 176.661C136.532 176.661 150.24 170.657 150.24 163.277C150.24 160.213 150.24 152.523 150.24 152.523C150.24 150.786 149.484 149.137 148.108 147.616C149.484 146.096 150.24 144.447 150.24 142.708C150.24 139.644 150.24 131.953 150.24 131.953C150.24 130.213 149.484 128.566 148.108 127.045C149.484 125.525 150.24 123.862 150.24 122.137C150.24 119.072 150.24 111.384 150.24 111.384ZM119.627 101.862C133.694 101.862 143.639 106.257 145.9 109.887C146.22 110.402 146.386 110.905 146.386 111.384C146.386 114.088 140.925 117.797 131.92 119.69C128.336 120.437 124.199 120.901 119.625 120.901C115.039 120.901 110.9 120.437 107.316 119.69C98.3106 117.797 92.8504 114.088 92.8504 111.384C92.8504 110.996 92.9672 110.583 93.1986 110.158C95.1136 106.474 105.186 101.862 119.627 101.862ZM146.388 152.521C146.388 156.31 135.713 162.039 119.629 162.039C103.531 162.039 92.8566 156.31 92.8566 152.521C92.8566 152.135 92.9733 151.724 93.2048 151.297C93.4096 150.899 93.7045 150.497 94.1039 150.086C99.5907 153.706 108.967 156.09 119.631 156.09C130.294 156.09 139.686 153.706 145.157 150.086C145.466 150.408 145.712 150.718 145.904 151.026C146.222 151.544 146.388 152.045 146.388 152.521ZM146.388 131.953C146.388 132.546 146.132 133.189 145.63 133.848C145.527 133.975 145.415 134.104 145.298 134.234C145.077 134.49 144.821 134.737 144.528 134.991C143.897 135.548 143.102 136.1 142.162 136.632C141.958 136.759 141.753 136.874 141.534 136.977C141.507 136.989 141.482 137.004 141.456 137.016C141.212 137.16 140.968 137.275 140.698 137.402C140.442 137.532 140.172 137.661 139.889 137.776C138.296 138.486 136.432 139.131 134.337 139.686C134.081 139.761 133.81 139.825 133.54 139.891C133.014 140.02 132.473 140.15 131.908 140.267H131.897C130.933 140.47 129.943 140.653 128.901 140.792C128.491 140.87 128.067 140.922 127.641 140.973C127.219 141.039 126.783 141.078 126.333 141.129C126.023 141.168 125.716 141.193 125.395 141.219C125.02 141.256 124.651 141.283 124.264 141.31C123.84 141.349 123.402 141.373 122.966 141.386C122.427 141.425 121.874 141.435 121.321 141.449C120.758 141.464 120.19 141.474 119.625 141.474C119.046 141.474 118.493 141.464 117.929 141.449C117.376 141.435 116.823 141.423 116.285 141.386C115.846 141.373 115.422 141.349 115.011 141.322C114.616 141.283 114.228 141.258 113.858 141.219C113.522 141.193 113.19 141.156 112.868 141.129C112.43 141.078 112.006 141.024 111.597 140.973C111.199 140.924 110.827 140.87 110.441 140.809C109.364 140.653 108.336 140.47 107.345 140.267H107.333C106.767 140.15 106.227 140.02 105.7 139.891C105.43 139.827 105.159 139.761 104.903 139.686C103.027 139.195 101.344 138.616 99.8672 137.996C99.4924 137.844 99.136 137.675 98.7981 137.521C98.5687 137.419 98.3495 137.316 98.1447 137.201C97.9911 137.123 97.8498 137.045 97.7085 136.967C97.3603 136.801 97.0265 136.608 96.7172 136.412C96.3977 136.234 96.1028 136.039 95.8324 135.848C94.9989 135.283 94.3292 134.702 93.8397 134.123C93.6861 133.953 93.555 133.774 93.43 133.593C93.045 133.026 92.8525 132.472 92.8525 131.957C92.8525 131.571 92.9692 131.158 93.2006 130.733C93.4054 130.334 93.7004 129.932 94.0998 129.521C99.5866 133.141 108.963 135.523 119.627 135.523C130.29 135.523 139.682 133.141 145.153 129.521C145.462 129.844 145.708 130.154 145.9 130.462C146.222 130.973 146.388 131.474 146.388 131.953Z" fill="#00CFDD"/>
<path d="M212.701 132.176C212.701 128.047 207.142 124.441 198.856 122.454C207.142 120.462 212.701 116.86 212.701 112.731C212.701 106.452 199.906 101.367 184.118 101.367C168.329 101.367 155.53 106.454 155.53 112.731C155.53 116.862 161.089 120.464 169.377 122.454C161.089 124.443 155.53 128.049 155.53 132.176C155.53 136.4 161.337 140.078 169.937 142.037C161.314 143.993 155.489 147.675 155.489 151.905C155.489 158.182 168.29 163.268 184.079 163.268C199.867 163.268 212.662 158.18 212.662 151.905C212.662 147.681 206.858 144.006 198.258 142.047C206.88 140.086 212.701 136.408 212.701 132.176Z" fill="white"/>
<path d="M214.7 111.384C214.7 103.988 200.994 98 184.087 98C167.166 98 153.458 103.99 153.458 111.384C153.458 111.384 153.458 118.583 153.458 122.137C153.458 123.862 154.215 125.523 155.592 127.045C154.215 128.564 153.458 130.213 153.458 131.953C153.458 131.953 153.458 139.154 153.458 142.708C153.458 144.447 154.215 146.094 155.592 147.616C154.215 149.135 153.458 150.786 153.458 152.523C153.458 152.523 153.458 159.724 153.458 163.277C153.458 170.659 167.166 176.661 184.087 176.661C200.994 176.661 214.7 170.657 214.7 163.277C214.7 160.213 214.7 152.523 214.7 152.523C214.7 150.786 213.944 149.137 212.566 147.616C213.944 146.096 214.7 144.447 214.7 142.708C214.7 139.644 214.7 131.953 214.7 131.953C214.7 130.213 213.944 128.566 212.566 127.045C213.944 125.525 214.7 123.862 214.7 122.137C214.7 119.072 214.7 111.384 214.7 111.384ZM184.087 101.862C198.153 101.862 208.097 106.257 210.36 109.887C210.677 110.402 210.845 110.905 210.845 111.384C210.845 114.088 205.387 117.797 196.38 119.69C192.795 120.437 188.658 120.901 184.085 120.901C179.497 120.901 175.36 120.437 171.776 119.69C162.772 117.797 157.31 114.088 157.31 111.384C157.31 110.996 157.427 110.583 157.658 110.158C159.573 106.474 169.646 101.862 184.087 101.862ZM210.845 152.521C210.845 156.31 200.169 162.039 184.087 162.039C167.989 162.039 157.312 156.31 157.312 152.521C157.312 152.135 157.429 151.724 157.66 151.297C157.867 150.899 158.16 150.497 158.559 150.086C164.044 153.706 173.422 156.09 184.087 156.09C194.751 156.09 204.14 153.706 209.612 150.086C209.922 150.408 210.165 150.718 210.36 151.026C210.677 151.544 210.845 152.045 210.845 152.521ZM210.845 131.953C210.845 132.546 210.591 133.189 210.087 133.848C209.985 133.975 209.87 134.104 209.756 134.234C209.536 134.49 209.281 134.737 208.984 134.991C208.355 135.548 207.558 136.1 206.62 136.632C206.415 136.759 206.208 136.874 205.991 136.977C205.965 136.989 205.94 137.004 205.913 137.016C205.668 137.16 205.426 137.275 205.156 137.402C204.898 137.532 204.627 137.661 204.347 137.776C202.753 138.486 200.889 139.131 198.794 139.686C198.538 139.761 198.268 139.825 197.998 139.891C197.469 140.02 196.931 140.15 196.367 140.267H196.353C195.388 140.47 194.399 140.653 193.361 140.792C192.949 140.87 192.525 140.922 192.101 140.973C191.677 141.039 191.239 141.078 190.79 141.129C190.483 141.168 190.174 141.193 189.85 141.219C189.477 141.256 189.107 141.283 188.722 141.31C188.298 141.349 187.859 141.373 187.423 141.386C186.883 141.425 186.332 141.435 185.779 141.449C185.215 141.464 184.646 141.474 184.083 141.474C183.505 141.474 182.95 141.464 182.387 141.449C181.832 141.435 181.283 141.423 180.742 141.386C180.304 141.373 179.88 141.349 179.468 141.322C179.073 141.283 178.686 141.258 178.313 141.219C177.977 141.193 177.646 141.156 177.324 141.129C176.888 141.078 176.462 141.024 176.052 140.973C175.655 140.924 175.282 140.87 174.897 140.809C173.82 140.653 172.79 140.47 171.8 140.267H171.786C171.223 140.15 170.682 140.02 170.156 139.891C169.885 139.827 169.615 139.761 169.357 139.686C167.483 139.195 165.799 138.616 164.321 137.996C163.95 137.844 163.592 137.675 163.256 137.521C163.026 137.419 162.807 137.316 162.602 137.201C162.449 137.123 162.305 137.045 162.164 136.967C161.816 136.801 161.484 136.608 161.175 136.412C160.851 136.234 160.558 136.039 160.288 135.848C159.454 135.283 158.785 134.702 158.295 134.123C158.144 133.953 158.013 133.774 157.884 133.593C157.499 133.026 157.306 132.472 157.306 131.957C157.306 131.571 157.423 131.158 157.654 130.733C157.861 130.334 158.154 129.932 158.553 129.521C164.038 133.141 173.416 135.523 184.081 135.523C194.745 135.523 204.134 133.141 209.606 129.521C209.915 129.844 210.159 130.154 210.354 130.462C210.677 130.973 210.845 131.474 210.845 131.953Z" fill="#FA7A49"/>
<path d="M176.833 153.648C176.833 149.519 171.272 145.913 162.985 143.926C171.272 141.934 176.833 138.33 176.833 134.203C176.833 127.924 164.034 122.84 148.245 122.84C132.459 122.84 119.66 127.926 119.66 134.203C119.66 138.332 125.219 141.936 133.507 143.926C125.219 145.915 119.66 149.521 119.66 153.648C119.66 157.872 125.466 161.55 134.066 163.509C125.444 165.466 119.619 169.147 119.619 173.379C119.619 179.654 132.418 184.743 148.206 184.743C163.995 184.743 176.792 179.654 176.792 173.379C176.792 169.153 170.987 165.478 162.387 163.519C171.008 161.56 176.833 157.878 176.833 153.648Z" fill="white"/>
<path d="M178.827 132.854C178.827 125.46 165.122 119.47 148.215 119.47C131.293 119.47 117.585 125.46 117.585 132.854C117.585 132.854 117.585 140.055 117.585 143.609C117.585 145.334 118.343 146.995 119.719 148.517C118.343 150.036 117.585 151.685 117.585 153.425C117.585 153.425 117.585 160.626 117.585 164.18C117.585 165.919 118.343 167.564 119.719 169.088C118.343 170.607 117.585 172.258 117.585 173.995C117.585 173.995 117.585 181.194 117.585 184.751C117.585 192.131 131.293 198.133 148.215 198.133C165.122 198.133 178.827 192.131 178.827 184.751C178.827 181.685 178.827 173.995 178.827 173.995C178.827 172.258 178.07 170.609 176.695 169.088C178.07 167.566 178.827 165.919 178.827 164.18C178.827 161.114 178.827 153.425 178.827 153.425C178.827 151.685 178.07 150.039 176.695 148.517C178.07 146.997 178.827 145.334 178.827 143.609C178.827 140.544 178.827 132.854 178.827 132.854ZM148.215 123.334C162.281 123.334 172.224 127.727 174.485 131.359C174.805 131.874 174.975 132.377 174.975 132.854C174.975 135.558 169.515 139.267 160.507 141.162C156.923 141.909 152.786 142.373 148.212 142.373C143.625 142.373 139.486 141.909 135.903 141.162C126.896 139.267 121.436 135.558 121.436 132.854C121.436 132.466 121.552 132.055 121.784 131.63C123.701 127.946 133.773 123.334 148.215 123.334ZM174.977 173.993C174.977 177.782 164.298 183.511 148.217 183.511C132.118 183.511 121.442 177.782 121.442 173.993C121.442 173.607 121.559 173.194 121.79 172.769C121.997 172.371 122.29 171.969 122.691 171.558C128.176 175.178 137.554 177.56 148.219 177.56C158.883 177.56 168.272 175.178 173.744 171.558C174.053 171.88 174.299 172.188 174.489 172.496C174.807 173.016 174.977 173.517 174.977 173.993ZM174.977 153.425C174.977 154.016 174.719 154.663 174.217 155.318C174.115 155.449 174 155.576 173.885 155.706C173.664 155.963 173.408 156.209 173.113 156.466C172.482 157.02 171.688 157.574 170.75 158.102C170.545 158.231 170.338 158.346 170.121 158.449C170.094 158.464 170.07 158.476 170.043 158.488C169.799 158.632 169.556 158.747 169.285 158.874C169.027 159.004 168.757 159.133 168.476 159.25C166.883 159.958 165.019 160.603 162.926 161.155C162.666 161.231 162.398 161.297 162.127 161.363C161.599 161.492 161.058 161.62 160.497 161.737H160.483C159.518 161.942 158.531 162.123 157.49 162.266C157.079 162.342 156.655 162.392 156.231 162.445C155.807 162.509 155.371 162.548 154.92 162.601C154.613 162.64 154.303 162.665 153.982 162.691C153.607 162.728 153.236 162.755 152.849 162.78C152.425 162.821 151.989 162.845 151.553 162.858C151.012 162.897 150.459 162.909 149.908 162.923C149.343 162.934 148.776 162.948 148.212 162.948C147.635 162.948 147.08 162.934 146.517 162.923C145.962 162.907 145.411 162.895 144.872 162.858C144.434 162.845 144.01 162.821 143.6 162.794C143.203 162.755 142.816 162.73 142.445 162.691C142.109 162.665 141.777 162.626 141.454 162.601C141.02 162.548 140.596 162.496 140.184 162.445C139.787 162.394 139.412 162.342 139.027 162.279C137.947 162.125 136.919 161.942 135.93 161.737H135.918C135.352 161.62 134.812 161.492 134.285 161.363C134.015 161.299 133.745 161.231 133.487 161.155C131.613 160.667 129.931 160.086 128.45 159.468C128.08 159.316 127.721 159.147 127.383 158.993C127.154 158.891 126.933 158.788 126.73 158.673C126.576 158.595 126.433 158.519 126.292 158.441C125.944 158.273 125.612 158.08 125.305 157.884C124.981 157.706 124.688 157.511 124.418 157.32C123.582 156.753 122.914 156.172 122.425 155.595C122.271 155.427 122.142 155.246 122.013 155.065C121.628 154.498 121.436 153.942 121.436 153.429C121.436 153.043 121.552 152.63 121.784 152.205C121.991 151.807 122.284 151.404 122.685 150.995C128.17 154.615 137.548 156.995 148.212 156.995C158.877 156.995 168.265 154.615 173.738 150.995C174.047 151.314 174.293 151.626 174.483 151.932C174.807 152.445 174.977 152.946 174.977 153.425Z" fill="#005B83"/>
<path d="M54.9811 70.8744C53.5761 70.8744 52.4373 69.7327 52.4373 68.3241V55.9998C52.4373 54.5911 53.5761 53.4495 54.9811 53.4495C56.3861 53.4495 57.5248 54.5911 57.5248 55.9998V68.3241C57.5248 69.7327 56.3881 70.8744 54.9811 70.8744Z" fill="#005B83"/>
<path d="M74.2905 46.1415C74.2905 47.0429 73.5573 47.778 72.6602 47.778H36.3782C35.4791 47.778 34.748 47.045 34.748 46.1415V16.0534C34.748 15.1499 35.4791 14.4189 36.3782 14.4189H72.6602C73.5573 14.4189 74.2905 15.1499 74.2905 16.0534V46.1415Z" fill="#00CFDD"/>
<path d="M76.1256 15.737C76.1256 16.6385 75.3944 17.3715 74.4933 17.3715H35.1535C34.2523 17.3715 33.5232 16.6385 33.5232 15.737V1.63653C33.5232 0.730994 34.2544 0 35.1535 0H74.4933C75.3944 0 76.1256 0.730994 76.1256 1.63653V15.737Z" fill="#005B83"/>
<path d="M76.1256 35.7864C76.1256 36.6898 75.3944 37.4229 74.4933 37.4229H35.1535C34.2523 37.4229 33.5232 36.6898 33.5232 35.7864V21.6859C33.5232 20.7824 34.2544 20.0493 35.1535 20.0493H74.4933C75.3944 20.0493 76.1256 20.7824 76.1256 21.6859V35.7864Z" fill="#005B83"/>
<path d="M76.1256 55.8375C76.1256 56.739 75.3944 57.472 74.4933 57.472H35.1535C34.2523 57.472 33.5232 56.739 33.5232 55.8375V41.737C33.5232 40.8356 34.2544 40.1025 35.1535 40.1025H74.4933C75.3944 40.1025 76.1256 40.8356 76.1256 41.737V55.8375Z" fill="#005B83"/>
<path d="M41.0418 7.47833C41.0418 8.13951 40.5113 8.67543 39.8518 8.67543H37.771C37.1135 8.67543 36.581 8.13951 36.581 7.47833V5.39415C36.581 4.73502 37.1135 4.19702 37.771 4.19702H39.8518C40.5113 4.19702 41.0418 4.73297 41.0418 5.39415V7.47833Z" fill="#FA7A49"/>
<path d="M47.1574 7.47833C47.1574 8.13951 46.6249 8.67543 45.9654 8.67543H43.8886C43.2291 8.67543 42.6946 8.13951 42.6946 7.47833V5.39415C42.6946 4.73502 43.2291 4.19702 43.8886 4.19702H45.9654C46.6249 4.19702 47.1574 4.73297 47.1574 5.39415V7.47833Z" fill="#00CFDD"/>
<path d="M73.2706 11.5585C73.2706 12.4599 72.5414 13.193 71.6403 13.193H50.4404C49.5413 13.193 48.8102 12.4599 48.8102 11.5585V5.83575C48.8102 4.93227 49.5413 4.19922 50.4404 4.19922H71.6403C72.5414 4.19922 73.2706 4.93227 73.2706 5.83575V11.5585Z" fill="#BBEBFF"/>
<path d="M41.0418 27.5192C41.0418 28.1804 40.5113 28.7143 39.8518 28.7143H37.771C37.1135 28.7143 36.581 28.1784 36.581 27.5192V25.4371C36.581 24.7759 37.1135 24.24 37.771 24.24H39.8518C40.5113 24.24 41.0418 24.7759 41.0418 25.4371V27.5192Z" fill="#FA7A49"/>
<path d="M47.1574 27.5192C47.1574 28.1804 46.6249 28.7143 45.9654 28.7143H43.8886C43.2291 28.7143 42.6946 28.1784 42.6946 27.5192V25.4371C42.6946 24.7759 43.2291 24.24 43.8886 24.24H45.9654C46.6249 24.24 47.1574 24.7759 47.1574 25.4371V27.5192Z" fill="#00CFDD"/>
<path d="M73.2706 31.5976C73.2706 32.5011 72.5414 33.2321 71.6403 33.2321H50.4404C49.5413 33.2321 48.8102 32.499 48.8102 31.5976V25.879C48.8102 24.9755 49.5413 24.2424 50.4404 24.2424H71.6403C72.5414 24.2424 73.2706 24.9755 73.2706 25.879V31.5976Z" fill="#BBEBFF"/>
<path d="M41.0418 47.5705C41.0418 48.2296 40.5113 48.7676 39.8518 48.7676H37.771C37.1135 48.7676 36.581 48.2296 36.581 47.5705V45.4863C36.581 44.8251 37.1135 44.2913 37.771 44.2913H39.8518C40.5113 44.2913 41.0418 44.8251 41.0418 45.4863V47.5705Z" fill="#FA7A49"/>
<path d="M47.1574 47.5705C47.1574 48.2296 46.6249 48.7676 45.9654 48.7676H43.8886C43.2291 48.7676 42.6946 48.2296 42.6946 47.5705V45.4863C42.6946 44.8251 43.2291 44.2913 43.8886 44.2913H45.9654C46.6249 44.2913 47.1574 44.8251 47.1574 45.4863V47.5705Z" fill="#00CFDD"/>
<path d="M73.2706 51.6486C73.2706 52.5501 72.5414 53.2831 71.6403 53.2831H50.4404C49.5413 53.2831 48.8102 52.5501 48.8102 51.6486V45.928C48.8102 45.0245 49.5413 44.2935 50.4404 44.2935H71.6403C72.5414 44.2935 73.2706 45.0224 73.2706 45.928V51.6486Z" fill="#BBEBFF"/>
<path d="M27.0819 94.3914C27.0819 96.2867 25.55 97.8226 23.6596 97.8226H3.42235C1.534 97.8226 0 96.2887 0 94.3914V41.591C0 39.6978 1.534 38.1619 3.42235 38.1619H23.6596C25.55 38.1619 27.0819 39.6978 27.0819 41.591V94.3914Z" fill="#005B83"/>
<path d="M22.8321 43.4062C22.8321 43.8784 22.4512 44.2624 21.9801 44.2624H4.7311C4.26004 44.2624 3.87909 43.8784 3.87909 43.4062C3.87909 42.9339 4.26004 42.5479 4.7311 42.5479H21.9801C22.4512 42.5479 22.8321 42.9339 22.8321 43.4062Z" fill="#BBEBFF"/>
<path d="M22.8321 45.8947C22.8321 46.3691 22.4512 46.753 21.9801 46.753H4.7311C4.26004 46.753 3.87909 46.3691 3.87909 45.8947C3.87909 45.4245 4.26004 45.0405 4.7311 45.0405H21.9801C22.4512 45.0385 22.8321 45.4225 22.8321 45.8947Z" fill="#BBEBFF"/>
<path d="M22.8321 48.3873C22.8321 48.8575 22.4512 49.2436 21.9801 49.2436H4.7311C4.26004 49.2436 3.87909 48.8575 3.87909 48.3873C3.87909 47.9171 4.26004 47.5352 4.7311 47.5352H21.9801C22.4512 47.5352 22.8321 47.9171 22.8321 48.3873Z" fill="#BBEBFF"/>
<path d="M22.8321 92.3769C22.8321 93.6172 21.8286 94.6213 20.5956 94.6213H6.11355C4.87855 94.6213 3.87701 93.6172 3.87701 92.3769V73.7981C3.87701 72.5578 4.8806 71.5537 6.11355 71.5537H20.5956C21.8286 71.5537 22.8321 72.5578 22.8321 73.7981V92.3769Z" fill="#BBEBFF"/>
<path d="M20.567 78.8145C20.567 80.0548 19.5654 81.0568 18.3304 81.0568H16.6797C15.4426 81.0568 14.4432 80.0527 14.4432 78.8145V77.1595C14.4432 75.9213 15.4447 74.9172 16.6797 74.9172H18.3304C19.5654 74.9172 20.567 75.9213 20.567 77.1595V78.8145Z" fill="#005B83"/>
<path d="M7.64964 54.48C7.64964 55.0016 7.22772 55.4287 6.7034 55.4287H5.0547C4.53449 55.4287 4.11053 55.0016 4.11053 54.48V52.8271C4.11053 52.3055 4.53654 51.8784 5.0547 51.8784H6.7034C7.22772 51.8784 7.64964 52.3055 7.64964 52.8271V54.48Z" fill="#FA7A49"/>
<path d="M12.4995 54.48C12.4995 55.0016 12.0735 55.4287 11.5533 55.4287H9.90461C9.38234 55.4287 8.95837 55.0016 8.95837 54.48V52.8271C8.95837 52.3055 9.38234 51.8784 9.90461 51.8784H11.5533C12.0735 51.8784 12.4995 52.3055 12.4995 52.8271V54.48Z" fill="#00CFDD"/>
<path d="M109.051 94.3914C109.051 96.2867 107.521 97.8226 105.63 97.8226H85.3933C83.5049 97.8226 81.9709 96.2887 81.9709 94.3914V41.591C81.9709 39.6978 83.5049 38.1619 85.3933 38.1619H105.63C107.521 38.1619 109.051 39.6978 109.051 41.591V94.3914Z" fill="#005B83"/>
<path d="M104.803 43.4062C104.803 43.8784 104.422 44.2624 103.951 44.2624H86.702C86.2309 44.2624 85.8479 43.8784 85.8479 43.4062C85.8479 42.9339 86.2289 42.5479 86.702 42.5479H103.951C104.422 42.5479 104.803 42.9339 104.803 43.4062Z" fill="#BBEBFF"/>
<path d="M104.803 45.8947C104.803 46.3691 104.422 46.753 103.951 46.753H86.702C86.2309 46.753 85.8479 46.3691 85.8479 45.8947C85.8479 45.4245 86.2289 45.0405 86.702 45.0405H103.951C104.422 45.0385 104.803 45.4225 104.803 45.8947Z" fill="#BBEBFF"/>
<path d="M104.803 48.3873C104.803 48.8575 104.422 49.2436 103.951 49.2436H86.702C86.2309 49.2436 85.8479 48.8575 85.8479 48.3873C85.8479 47.9171 86.2289 47.5352 86.702 47.5352H103.951C104.422 47.5352 104.803 47.9171 104.803 48.3873Z" fill="#BBEBFF"/>
<path d="M104.803 92.3769C104.803 93.6172 103.802 94.6213 102.567 94.6213H88.0844C86.8494 94.6213 85.8479 93.6172 85.8479 92.3769V73.7981C85.8479 72.5578 86.8494 71.5537 88.0844 71.5537H102.567C103.802 71.5537 104.803 72.5578 104.803 73.7981V92.3769Z" fill="#BBEBFF"/>
<path d="M102.536 78.8145C102.536 80.0548 101.532 81.0568 100.297 81.0568H98.6485C97.4156 81.0568 96.412 80.0527 96.412 78.8145V77.1595C96.412 75.9213 97.4156 74.9172 98.6485 74.9172H100.297C101.532 74.9172 102.536 75.9213 102.536 77.1595V78.8145Z" fill="#005B83"/>
<path d="M89.6185 54.48C89.6185 55.0016 89.1986 55.4287 88.6723 55.4287H87.0235C86.5013 55.4287 86.0773 55.0016 86.0773 54.48V52.8271C86.0773 52.3055 86.5013 51.8784 87.0235 51.8784H88.6723C89.1966 51.8784 89.6185 52.3055 89.6185 52.8271V54.48Z" fill="#FA7A49"/>
<path d="M94.4684 54.48C94.4684 55.0016 94.0444 55.4287 93.5242 55.4287H91.8755C91.3511 55.4287 90.9293 55.0016 90.9293 54.48V52.8271C90.9293 52.3055 91.3511 51.8784 91.8755 51.8784H93.5242C94.0444 51.8784 94.4684 52.3055 94.4684 52.8271V54.48Z" fill="#00CFDD"/>
<path d="M84.15 71.4656H27.9933C26.5883 71.4656 25.4496 70.3239 25.4496 68.9153C25.4496 67.5067 26.5883 66.365 27.9933 66.365H84.15C85.555 66.365 86.6938 67.5067 86.6938 68.9153C86.6938 70.3239 85.555 71.4656 84.15 71.4656Z" fill="#005B83"/>
</svg>
