<svg width="235" height="140" viewBox="0 0 235 140" fill="none" xmlns="http://www.w3.org/2000/svg">
<path d="M208.343 85.369C203.39 74.8393 192.712 67.5498 180.331 67.5498C170.393 67.5498 161.564 72.2438 155.899 79.5353C152.995 77.4121 149.429 76.1452 145.56 76.1452C136.723 76.1452 129.427 82.6873 128.184 91.2005C126.38 90.7447 124.5 90.4778 122.552 90.4778C109.846 90.4778 99.5478 100.804 99.5478 113.543C99.5478 126.28 109.848 136.609 122.552 136.609C135.258 136.609 198.721 136.609 205.942 136.609C220.09 136.609 231.558 125.11 231.558 110.927C231.558 97.5557 221.362 86.5866 208.343 85.369Z" fill="white"/>
<path d="M205.942 139.16H122.55C108.461 139.16 97 127.667 97 113.542C97 99.4145 108.461 87.9238 122.55 87.9238C123.758 87.9238 124.989 88.0183 126.23 88.2072C128.672 79.7124 136.557 73.5934 145.558 73.5934C149.03 73.5934 152.385 74.4804 155.383 76.1745C161.742 69.0431 170.711 65 180.329 65C192.757 65 204.253 72.0184 210.004 82.9999C223.841 84.9896 234.101 96.7513 234.101 110.93C234.101 126.494 221.469 139.16 205.942 139.16ZM122.55 93.0265C111.267 93.0265 102.09 102.228 102.09 113.542C102.09 124.854 111.267 134.057 122.55 134.057H205.94C218.663 134.057 229.012 123.679 229.012 110.926C229.012 98.9156 220.023 89.0203 208.103 87.9074L206.657 87.7719L206.038 86.4536C201.367 76.5194 191.274 70.0985 180.327 70.0985C171.508 70.0985 163.336 74.1088 157.902 81.0984L156.389 83.0471L154.398 81.5933C151.801 79.6939 148.743 78.6919 145.558 78.6919C138.161 78.6919 131.773 84.2257 130.699 91.5665L130.29 94.3612L127.56 93.6712C125.86 93.2441 124.174 93.0265 122.55 93.0265Z" fill="#52BCCA"/>
<path d="M191.126 123.525L186.262 101.885L169.998 116.928L176.757 119.039C172.347 122.88 166.123 124.433 160.145 122.568C156.169 121.326 152.765 118.696 150.562 115.168C149.816 113.975 148.249 113.614 147.055 114.357C145.863 115.104 145.503 116.679 146.248 117.872C149.099 122.437 153.495 125.833 158.629 127.439C160.849 128.131 163.096 128.462 165.31 128.462C171.815 128.462 178.002 125.599 182.25 120.753L191.126 123.525Z" fill="#F3C144"/>
<path d="M153.224 93.3325C154.402 92.1949 155.741 91.2154 157.226 90.4311C161.347 88.2627 166.062 87.8315 170.504 89.2216C175.049 90.6405 178.733 93.7698 180.878 98.0326C181.513 99.2914 183.04 99.7965 184.294 99.1599C185.547 98.5254 186.051 96.9916 185.418 95.7349C182.647 90.2278 177.887 86.1867 172.018 84.351C166.277 82.5584 160.184 83.1128 154.861 85.9157C152.118 87.3592 149.757 89.3181 147.86 91.659L139.975 89.197L144.839 110.84L161.103 95.7924L153.224 93.3325Z" fill="#F3C144"/>
<path d="M108.942 74.1596H25.55C11.4652 74.1596 0 62.6689 0 48.5438C0 34.4186 11.4652 22.9259 25.55 22.9259C26.7625 22.9259 27.9933 23.0204 29.2345 23.2072C31.6738 14.7145 39.5589 8.59543 48.5582 8.59543C52.0339 8.59543 55.3907 9.48245 58.383 11.1744C64.7464 4.04512 73.715 0 83.3288 0C95.7566 0 107.259 7.02046 113.01 17.9998C126.847 19.9896 137.103 31.7533 137.103 45.9319C137.103 61.4944 124.473 74.1596 108.942 74.1596ZM25.5521 28.0265C14.2711 28.0265 5.09155 37.2297 5.09155 48.5438C5.09155 59.8558 14.2711 69.0569 25.5521 69.0569H108.944C121.669 69.0569 132.018 58.6792 132.018 45.9278C132.018 33.9156 123.033 24.0204 111.113 22.9074C110.216 22.8232 109.43 22.2709 109.049 21.4557C104.373 11.5194 94.2799 5.09853 83.3308 5.09853C74.5138 5.09853 66.3419 9.10877 60.9062 16.1005C60.0624 17.1867 58.5099 17.4044 57.3978 16.5933C54.809 14.696 51.7492 13.6919 48.5603 13.6919C41.1646 13.6919 34.7766 19.2257 33.7034 26.5686C33.599 27.2831 33.1955 27.9176 32.5995 28.3201C32.0035 28.7205 31.2641 28.8499 30.5678 28.6733C28.8638 28.2462 27.1762 28.0265 25.5521 28.0265Z" fill="#005B83"/>
<path d="M25.5521 28.0266C14.2712 28.0266 5.09155 37.2298 5.09155 48.5439C5.09155 59.8559 14.2712 69.057 25.5521 69.057H108.944C121.669 69.057 132.018 58.6793 132.018 45.9279C132.018 33.9157 123.033 24.0205 111.113 22.9075C110.216 22.8234 109.43 22.271 109.049 21.4558C104.373 11.5195 94.28 5.09863 83.3308 5.09863C74.5138 5.09863 66.3419 9.10887 60.9062 16.1006C60.0624 17.1868 58.51 17.4045 57.3978 16.5934C54.809 14.6961 51.7492 13.692 48.5603 13.692C41.1646 13.692 34.7766 19.2258 33.7034 26.5687C33.599 27.2833 33.1955 27.9177 32.5995 28.3202C32.0035 28.7206 31.2641 28.85 30.5678 28.6734C28.8638 28.2463 27.1762 28.0266 25.5521 28.0266Z" fill="white"/>
<path d="M64.9819 43.1045H62.4136C62.2067 42.3941 61.9281 41.7226 61.58 41.0881L63.3987 39.2667C63.7899 38.8745 63.7899 38.236 63.3987 37.8479L60.8632 35.3079C60.472 34.9136 59.8391 34.9136 59.4438 35.3079L57.6292 37.1271C56.9943 36.776 56.3225 36.4967 55.6159 36.2914V33.7165C55.6159 33.1621 55.1674 32.7124 54.6165 32.7124H51.0323C50.4793 32.7124 50.0328 33.1621 50.0328 33.7165V36.2894C49.3221 36.4988 48.6524 36.776 48.0175 37.1271L46.2008 35.3079C45.8096 34.9136 45.1768 34.9136 44.7815 35.3079L42.2501 37.8479C41.8589 38.236 41.8589 38.8745 42.2501 39.2667L44.0688 41.0881C43.7186 41.7246 43.44 42.3961 43.2352 43.1045H40.6628C40.116 43.1045 39.6633 43.5583 39.6633 44.1086V47.702C39.6633 48.2564 40.116 48.7061 40.6628 48.7061H43.2332C43.4421 49.4186 43.7186 50.09 44.0688 50.7266L42.2501 52.548C41.8589 52.9402 41.8589 53.5746 42.2501 53.9668L44.7815 56.5068C45.1768 56.897 45.8096 56.897 46.2008 56.5068L48.0195 54.6855C48.6544 55.0346 49.3242 55.3159 50.0328 55.5213V58.0983C50.0328 58.6486 50.4814 59.0982 51.0323 59.0982H54.6165C55.1694 59.0982 55.6159 58.6486 55.6159 58.0983V55.5213C56.3246 55.3118 56.9943 55.0346 57.6272 54.6855L59.4438 56.5068C59.8391 56.897 60.472 56.897 60.8632 56.5068L63.3987 53.9668C63.7899 53.5746 63.7899 52.9402 63.3987 52.548L61.58 50.7246C61.9302 50.088 62.2088 49.4166 62.4156 48.7061H64.9819C65.5349 48.7061 65.9854 48.2544 65.9854 47.702V44.1086C65.9854 43.5583 65.5328 43.1045 64.9819 43.1045ZM52.8203 51.9546C49.4963 51.9546 46.7845 49.2441 46.7845 45.9074C46.7845 42.5706 49.4963 39.8581 52.8203 39.8581C56.1444 39.8581 58.8519 42.5706 58.8519 45.9074C58.8519 49.2441 56.1444 51.9546 52.8203 51.9546Z" fill="#FA7A49"/>
<path d="M96.1375 26.008H92.8176C92.5431 25.0614 92.1724 24.1579 91.7075 23.3119L94.0526 20.9608C94.5646 20.4454 94.5646 19.6096 94.0526 19.0943L90.7203 15.7555C90.2042 15.2401 89.3767 15.2401 88.8606 15.7555L86.5135 18.1066C85.6718 17.6384 84.7685 17.2708 83.8264 16.9957V13.6631C83.8264 12.9362 83.2305 12.3428 82.5095 12.3428H77.7968C77.0697 12.3428 76.4799 12.9342 76.4799 13.6631V16.9937C75.5337 17.2688 74.6325 17.6384 73.7867 18.1066L71.4436 15.7555C70.9275 15.2401 70.096 15.2401 69.584 15.7555L66.2517 19.0943C65.7356 19.6096 65.7356 20.4454 66.2558 20.9608L68.5988 23.3078C68.1319 24.1538 67.7632 25.0613 67.4888 26.0059H64.1688C63.4417 26.0059 62.8519 26.5973 62.8519 27.3262V32.049C62.8519 32.7759 63.4397 33.3673 64.1688 33.3673H67.4888C67.7632 34.3139 68.1319 35.2174 68.5988 36.0654L66.2558 38.4165C65.7356 38.9319 65.7356 39.7656 66.2558 40.2789L69.584 43.6239C70.096 44.1372 70.9275 44.1372 71.4436 43.6239L73.7887 41.2707C74.6325 41.7389 75.5378 42.1085 76.4799 42.3836V45.7121C76.4799 46.4431 77.0677 47.0325 77.7968 47.0325H82.5095C83.2305 47.0325 83.8264 46.4452 83.8264 45.7121V42.3816C84.7685 42.1064 85.6697 41.7389 86.5135 41.2707L88.8606 43.6239C89.3767 44.1372 90.2042 44.1372 90.7203 43.6239L94.0526 40.2789C94.5646 39.7656 94.5646 38.9319 94.0526 38.4165L91.7075 36.0633C92.1724 35.2194 92.5431 34.3139 92.8176 33.3673H96.1375C96.8646 33.3673 97.4503 32.7759 97.4503 32.049V27.3262C97.4503 26.5993 96.8666 26.008 96.1375 26.008ZM80.1542 37.6383C75.7774 37.6383 72.226 34.0736 72.226 29.6876C72.226 25.3016 75.7774 21.7349 80.1542 21.7349C84.5268 21.7349 88.0865 25.3016 88.0865 29.6876C88.0865 34.0715 84.5268 37.6383 80.1542 37.6383Z" fill="#F3C144"/>
<path d="M82.3067 57.4142L80.6089 56.7181C80.6621 56.2027 80.6601 55.6812 80.6007 55.1555L82.2903 54.4471C82.6549 54.2931 82.8269 53.8742 82.6754 53.5087L81.6841 51.1474C81.5325 50.7839 81.1168 50.6093 80.7481 50.7633L79.0605 51.4738C78.7287 51.0652 78.36 50.6997 77.9565 50.3794L78.6488 48.6771C78.8045 48.3096 78.6243 47.8948 78.2638 47.7449L75.8921 46.7716C75.5275 46.6258 75.1117 46.8024 74.9643 47.1659L74.27 48.8661C73.758 48.8106 73.2398 48.8127 72.7155 48.8722L72.0068 47.1782C71.8553 46.8127 71.4395 46.6443 71.075 46.7962L68.7156 47.788C68.3551 47.94 68.183 48.3609 68.3346 48.7244L69.0433 50.4184C68.6357 50.749 68.2712 51.1186 67.9516 51.5252L66.2558 50.8291C65.8872 50.6792 65.4714 50.8517 65.3239 51.2192L64.3511 53.5909C64.2036 53.9564 64.3798 54.3732 64.7464 54.5231L66.4401 55.2171C66.3869 55.7325 66.3889 56.252 66.4483 56.7777L64.7546 57.4902C64.39 57.6421 64.2221 58.061 64.3736 58.4265L65.3649 60.788C65.5165 61.1514 65.9322 61.3259 66.2968 61.1719L67.9865 60.4594C68.3183 60.8701 68.6869 61.2356 69.0904 61.5559L68.396 63.2561C68.2486 63.6237 68.4206 64.0405 68.7831 64.1904L71.1507 65.1616C71.5153 65.3115 71.9311 65.137 72.0827 64.7694L72.7769 63.0692C73.291 63.1226 73.8071 63.1226 74.3314 63.0631L75.0401 64.755C75.1917 65.1226 75.6074 65.293 75.972 65.1411L78.3314 64.1493C78.6918 63.9974 78.8639 63.5785 78.7123 63.2109L78.0037 61.521C78.4133 61.1883 78.7778 60.8187 79.0974 60.4142L80.7952 61.1082C81.1557 61.2581 81.5715 61.0836 81.723 60.7181L82.6876 58.3464C82.8412 57.9768 82.6693 57.56 82.3067 57.4142ZM69.5532 57.6381C68.6377 55.443 69.67 52.9112 71.8615 51.9892C74.0447 51.0714 76.57 52.1042 77.4896 54.2993C78.4092 56.4923 77.3729 59.0282 75.1896 59.9481C73.0022 60.8639 70.4728 59.829 69.5532 57.6381Z" fill="#00CFDD"/>
</svg>
