<svg width="800" height="479" viewBox="0 0 800 479" fill="none" xmlns="http://www.w3.org/2000/svg">
<path d="M227.368 174.737C227.368 184.474 228.421 192.368 230.263 198.158C232.368 203.947 235 210.263 238.684 217.105C240 219.211 240.526 221.316 240.526 223.158C240.526 225.79 238.947 228.421 235.526 231.053L218.947 242.105C216.579 243.684 214.211 244.474 212.105 244.474C209.474 244.474 206.842 243.158 204.211 240.79C200.526 236.842 197.368 232.632 194.737 228.421C192.105 223.947 189.474 218.947 186.579 212.895C166.053 237.105 140.263 249.211 109.211 249.211C87.1053 249.211 69.4737 242.895 56.579 230.263C43.6842 217.632 37.1053 200.79 37.1053 179.737C37.1053 157.368 45 139.211 61.0527 125.526C77.1053 111.842 98.4211 105 125.526 105C134.474 105 143.684 105.79 153.421 107.105C163.158 108.421 173.158 110.526 183.684 112.895V93.6842C183.684 73.6842 179.474 59.7369 171.316 51.579C162.895 43.4211 148.684 39.4737 128.421 39.4737C119.211 39.4737 109.737 40.5264 100 42.8948C90.2632 45.2632 80.7895 48.1579 71.579 51.8421C67.3684 53.6842 64.2105 54.7369 62.3684 55.2632C60.5263 55.7895 59.2105 56.0527 58.1579 56.0527C54.4737 56.0527 52.6316 53.4211 52.6316 47.8948V35C52.6316 30.7895 53.1579 27.6316 54.4737 25.7895C55.7895 23.9474 58.1579 22.1053 61.8421 20.2632C71.0527 15.5264 82.1053 11.579 95 8.42109C107.895 5.00004 121.579 3.42109 136.053 3.42109C167.368 3.42109 190.263 10.5264 205 24.7369C219.474 38.9474 226.842 60.5264 226.842 89.4737V174.737H227.368ZM120.526 214.737C129.211 214.737 138.158 213.158 147.632 210C157.105 206.842 165.526 201.053 172.632 193.158C176.842 188.158 180 182.632 181.579 176.316C183.158 170 184.211 162.368 184.211 153.421V142.368C176.579 140.526 168.421 138.947 160 137.895C151.579 136.842 143.421 136.316 135.263 136.316C117.632 136.316 104.737 139.737 96.0527 146.842C87.3684 153.947 83.1579 163.947 83.1579 177.105C83.1579 189.474 86.3158 198.684 92.8948 205C99.2105 211.579 108.421 214.737 120.526 214.737ZM331.842 243.158C327.105 243.158 323.947 242.368 321.842 240.526C319.737 238.947 317.895 235.263 316.316 230.263L254.474 26.8421C252.895 21.579 252.105 18.1579 252.105 16.3158C252.105 12.1053 254.211 9.73688 258.421 9.73688H284.211C289.211 9.73688 292.632 10.5264 294.474 12.3685C296.579 13.9474 298.158 17.6316 299.737 22.6316L343.947 196.842L385 22.6316C386.316 17.3685 387.895 13.9474 390 12.3685C392.105 10.7895 395.789 9.73688 400.526 9.73688H421.579C426.579 9.73688 430 10.5264 432.105 12.3685C434.211 13.9474 436.053 17.6316 437.105 22.6316L478.684 198.947L524.211 22.6316C525.789 17.3685 527.632 13.9474 529.474 12.3685C531.579 10.7895 535 9.73688 539.737 9.73688H564.211C568.421 9.73688 570.789 11.8421 570.789 16.3158C570.789 17.6316 570.526 18.9474 570.263 20.5264C570 22.1053 569.474 24.2106 568.421 27.1053L505 230.526C503.421 235.79 501.579 239.211 499.474 240.79C497.368 242.368 493.947 243.421 489.474 243.421H466.842C461.842 243.421 458.421 242.632 456.316 240.79C454.211 238.947 452.368 235.526 451.316 230.263L410.526 60.5264L370 230C368.684 235.263 367.105 238.684 365 240.526C362.895 242.368 359.211 243.158 354.474 243.158H331.842ZM670 250.263C656.316 250.263 642.632 248.684 629.474 245.526C616.316 242.368 606.053 238.947 599.211 235C595 232.632 592.105 230 591.053 227.632C590 225.263 589.474 222.632 589.474 220.263V206.842C589.474 201.316 591.579 198.684 595.526 198.684C597.105 198.684 598.684 198.947 600.263 199.474C601.842 200 604.211 201.053 606.842 202.105C615.789 206.053 625.526 209.211 635.789 211.316C646.316 213.421 656.579 214.474 667.105 214.474C683.684 214.474 696.579 211.579 705.526 205.79C714.474 200 719.21 191.579 719.21 180.79C719.21 173.421 716.842 167.368 712.105 162.368C707.368 157.368 698.421 152.895 685.526 148.684L647.368 136.842C628.158 130.79 613.947 121.842 605.263 110C596.579 98.4211 592.105 85.5264 592.105 71.8421C592.105 60.7895 594.474 51.0527 599.211 42.6316C603.947 34.2106 610.263 26.8421 618.158 21.0527C626.053 15 635 10.5264 645.526 7.36846C656.053 4.21056 667.105 2.89478 678.684 2.89478C684.474 2.89478 690.526 3.15793 696.316 3.94741C702.368 4.73688 707.895 5.78951 713.421 6.84214C718.684 8.15793 723.684 9.47372 728.421 11.0527C733.158 12.6316 736.842 14.2106 739.474 15.7895C743.158 17.8948 745.789 20 747.368 22.3685C748.947 24.4737 749.737 27.3685 749.737 31.0527V43.4211C749.737 48.9474 747.632 51.8421 743.684 51.8421C741.579 51.8421 738.158 50.7895 733.684 48.6842C718.684 41.8421 701.842 38.4211 683.158 38.4211C668.158 38.4211 656.316 40.7895 648.158 45.7895C640 50.7895 635.789 58.4211 635.789 69.2106C635.789 76.579 638.421 82.8948 643.684 87.8948C648.947 92.8948 658.684 97.8948 672.632 102.368L710 114.211C728.947 120.263 742.632 128.684 750.789 139.474C758.947 150.263 762.895 162.632 762.895 176.316C762.895 187.632 760.526 197.895 756.053 206.842C751.316 215.79 745 223.684 736.842 230C728.684 236.579 718.947 241.316 707.632 244.737C695.789 248.421 683.421 250.263 670 250.263Z" fill="white"/>
<path fill-rule="evenodd" clip-rule="evenodd" d="M719.737 378.158C633.158 442.105 507.368 476.053 399.211 476.053C247.632 476.053 111.053 420 7.89474 326.842C-0.263152 319.474 7.10527 309.474 16.8421 315.263C128.421 380 266.053 419.211 408.421 419.211C504.474 419.211 610 399.211 707.105 358.158C721.579 351.579 733.947 367.632 719.737 378.158Z" fill="#FF9900"/>
<path fill-rule="evenodd" clip-rule="evenodd" d="M755.79 337.105C744.737 322.895 682.632 330.263 654.474 333.684C646.053 334.737 644.737 327.369 652.368 321.842C701.842 287.105 783.158 297.105 792.632 308.684C802.105 320.526 790 401.842 743.684 440.79C736.579 446.842 729.737 443.684 732.895 435.79C743.421 409.737 766.842 351.053 755.79 337.105Z" fill="#FF9900"/>
</svg>
