<svg width="117" height="85" viewBox="0 0 117 85" fill="none" xmlns="http://www.w3.org/2000/svg">
<path d="M113.664 33.0016C111.077 31.1814 105.136 30.5102 100.495 31.4153C99.9513 26.8799 97.4745 22.9039 93.1553 19.3854L90.6685 17.5652L88.9368 20.1786C86.6872 24.0092 85.6705 28.4506 86.027 32.8898C86.213 35.3499 86.9906 37.727 88.2924 39.8148C85.596 41.2269 82.5895 41.9266 79.5532 41.8486H1.51471L1.30329 42.7536C0.548176 47.289 0.548175 61.4746 9.35783 72.3656C16.0532 80.6532 25.9804 84.8428 39.0388 84.8428C67.3203 84.8428 88.2622 71.1148 98.0787 46.2619C101.965 46.3738 110.271 46.2619 114.49 37.7505C114.601 37.5268 114.812 37.0692 115.567 35.371L116 34.4659L113.624 32.9915L113.664 33.0016ZM63.8972 1H52.0268V12.3485H63.8972V1ZM63.8972 14.6162H52.0268V25.9647H63.8972V14.6162ZM49.8621 14.6162H37.9917V25.9647H49.8621V14.6162ZM35.8271 14.6162H23.9668V25.9647H35.8371V14.6162H35.8271ZM21.792 28.2324H9.93173V39.5809H21.8021V28.2324H21.792ZM35.8271 28.2324H23.9668V39.5809H35.8371V28.2324H35.8271ZM49.8621 28.2324H37.9917V39.5809H49.8621V28.2324ZM63.8972 28.2324H52.0268V39.5809H63.8972V28.2324ZM77.9322 28.2324H66.0618V39.5809H77.9322V28.2324Z" fill="#2496ED"/>
</svg>
