<svg width="180" height="180" viewBox="0 0 180 180" fill="none" xmlns="http://www.w3.org/2000/svg">
<g filter="url(#filter0_f_552_15)">
<path d="M10 4.56338H26.9829V10.1972H16.2271V20.6197H24.7752V26.2535H16.2271V36.6009L26.9829 35.0986V40.7762L10 44V4.56338Z" fill="#E50914"/>
<path d="M30.5653 4.56338H38.3774L44.4347 28.169H44.5479V4.56338H50.0956V36.8639L43.6987 37.6463L36.2263 15.2113H36.113V39.2113L30.5653 39.9937V4.56338Z" fill="#E50914"/>
<path d="M54.7239 4.56338H64.2344C67.329 4.56338 69.65 5.38967 71.1974 7.04225C72.7447 8.69484 73.5184 11.1174 73.5184 14.3099V28.2567C73.5184 31.4491 71.1974 33.734 71.1974 33.734C71.1974 33.734 69.7548 34.5164 64.2344 35.0986C58.714 35.6808 54.7239 36.0814 54.7239 36.0814V4.56338ZM64.1212 29.0391C64.1212 29.0391 65.7506 28.9378 66.4422 28.2567C67.2926 27.4191 67.2913 27.2613 67.2913 25.9092C67.2913 24.5571 67.2913 14.0282 67.2913 14.0282C67.2913 12.6761 67.0083 11.6995 66.4422 11.0986C65.9138 10.4977 65.1401 10.1972 64.1212 10.1972H60.951V29.0391H64.1212Z" fill="#E50914"/>
<path d="M86.5528 33.734C83.121 33.734 81.2315 33.0454 79.6464 31.3552C78.0613 29.6275 77.2688 27.1674 77.2688 23.975V13.9155C77.2688 10.723 78.0613 8.28169 79.6464 6.59155C81.2315 4.86385 83.5336 4 86.5528 4C89.572 4 91.8741 4.86385 93.4592 6.59155C95.0442 8.28169 95.8368 10.723 95.8368 13.9155V14.9546H89.9494V13.5211C89.9494 10.9296 88.8738 9.6338 86.7226 9.6338C84.5714 9.6338 83.4959 10.9296 83.4959 13.5211V24.4257C83.4959 26.9797 84.5714 28.2567 86.7226 28.2567C88.8738 28.2567 89.9494 25.4147 89.9494 22.8607V21.9969H86.8358V18.0845H95.8368V22.41C95.8368 25.6025 95.0442 29.6275 93.4592 31.3552C91.8741 33.0454 89.4109 33.734 86.5528 33.734Z" fill="#E50914"/>
<path d="M104.647 4.56338H113.082L119.288 35.6901C119.288 35.6901 119.308 35.5559 116.422 35.2989C113.785 35.0642 113.785 35.0642 113.785 35.0642L112.176 29.8216H105.1L104.35 34.136L98.1932 33.734L104.647 4.56338ZM111.426 25.9092L108.666 11.4366H108.553L105.835 25.9092H111.426Z" fill="#E50914"/>
<path d="M122.556 4.56338H131.444L135.013 31.3865H135.52L139.482 4.56338H148.37V39.9937L145.426 39.447L142.483 38.9003V14.1408H142.37L137.841 38.4288L132.633 37.6463L128.104 14.1408H127.991V36.8639L122.556 36.0814V20.3224V4.56338Z" fill="#E50914"/>
<path d="M153.017 4.56338H170V10.1972H159.244V20.6197H167.792V26.2535H159.244V36.0814L170 38.3662V44L153.017 40.7762V22.6698V4.56338Z" fill="#E50914"/>
<path d="M86.5528 33.734C83.121 33.734 81.2315 33.0454 79.6464 31.3552C78.0613 29.6275 77.2688 27.1674 77.2688 23.975V13.9155C77.2688 10.723 78.0613 8.28169 79.6464 6.59155C81.2315 4.86385 83.5336 4 86.5528 4C89.572 4 91.8741 4.86385 93.4592 6.59155C95.0442 8.28169 95.8368 10.723 95.8368 13.9155V14.9546H89.9494V13.5211C89.9494 10.9296 88.8738 9.6338 86.7226 9.6338C84.5714 9.6338 83.4959 10.9296 83.4959 13.5211V24.4257C83.4959 26.9797 84.5714 28.2567 86.7226 28.2567C88.8738 28.2567 89.9494 25.4147 89.9494 22.8607V21.9969H86.8358V18.0845H95.8368V22.41C95.8368 25.6025 95.0442 29.6275 93.4592 31.3552C91.8741 33.0454 89.4109 33.734 86.5528 33.734Z" fill="#E50914"/>
</g>
<path fill-rule="evenodd" clip-rule="evenodd" d="M81.3885 113.961C81.9695 115.041 82.5512 116.015 83.1073 116.877C77.1991 115.559 72.0725 112.192 68.525 107.568C70.8663 106.26 73.865 104.904 77.47 103.912C78.4946 107.899 79.9401 111.266 81.3885 113.961ZM85.8574 111.596C84.599 109.256 83.3379 106.333 82.4293 102.869C84.3853 102.581 86.4732 102.415 88.6878 102.415C90.902 102.415 92.99 102.581 94.9456 102.869C94.037 106.333 92.7759 109.256 91.5175 111.596C90.5087 113.473 89.5035 114.971 88.6874 116.068C87.8714 114.971 86.8662 113.473 85.8574 111.596ZM81.0906 92.366C81.0906 94.3226 81.2233 96.1797 81.4573 97.933C83.7137 97.5896 86.1261 97.3906 88.6878 97.3906C91.2491 97.3906 93.6615 97.5893 95.9176 97.933C96.1516 96.1794 96.2843 94.3226 96.2843 92.366C96.2843 90.4094 96.1516 88.5527 95.9176 86.7991C93.6615 87.1424 91.2491 87.3414 88.6878 87.3414C86.1261 87.3414 83.7137 87.1424 81.4573 86.7991C81.2233 88.5523 81.0906 90.4094 81.0906 92.366ZM76.4882 85.763C76.1941 87.8365 76.026 90.0393 76.026 92.366C76.026 94.6927 76.1941 96.8955 76.4882 98.969C72.1884 100.114 68.6278 101.729 65.8741 103.283C64.266 99.982 63.3646 96.2785 63.3646 92.366C63.3646 88.4535 64.266 84.7502 65.874 81.4488C68.6274 83.0025 72.1881 84.6176 76.4882 85.763ZM82.4293 81.8627C84.3853 82.1507 86.4732 82.3168 88.6878 82.3168C90.902 82.3168 92.99 82.1507 94.9456 81.8628C94.037 78.3994 92.7759 75.4763 91.5175 73.1358C90.5087 71.259 89.5035 69.7604 88.6874 68.6643C87.8714 69.7604 86.8662 71.259 85.8574 73.1357C84.599 75.4763 83.3379 78.3993 82.4293 81.8627ZM100.887 85.7633C101.181 87.8368 101.349 90.0396 101.349 92.366C101.349 94.6927 101.181 96.8952 100.887 98.9687C105.186 100.114 108.747 101.729 111.501 103.283C113.109 99.9817 114.01 96.2782 114.01 92.366C114.01 88.4538 113.109 84.7503 111.501 81.4489C108.748 83.0027 105.187 84.6177 100.887 85.7633ZM108.85 77.1641C106.508 78.4723 103.51 79.8281 99.9051 80.8204C98.8804 76.8334 97.435 73.4657 95.9865 70.7712C95.4054 69.6908 94.8237 68.7176 94.2676 67.8549C100.176 69.1731 105.303 72.54 108.85 77.1641ZM77.4699 80.8203C73.8652 79.8279 70.8666 78.4722 68.525 77.1639C72.0725 72.54 77.1992 69.1731 83.107 67.8549C82.5512 68.7176 81.9695 69.6907 81.3885 70.7712C79.9401 73.4656 78.4946 76.8333 77.4699 80.8203ZM99.9051 103.912C98.8804 107.899 97.435 111.266 95.9865 113.961C95.4054 115.041 94.8237 116.015 94.2676 116.877C100.176 115.559 105.303 112.192 108.85 107.568C106.509 106.26 103.51 104.904 99.9051 103.912ZM88.6874 122.514C105.47 122.514 119.075 109.016 119.075 92.366C119.075 75.7159 105.47 62.2183 88.6874 62.2183C71.905 62.2183 58.3 75.7159 58.3 92.366C58.3 109.016 71.905 122.514 88.6874 122.514Z" fill="white"/>
<path d="M53.5224 68.351H51.8806C50.9738 68.351 50.2388 69.083 50.2388 69.9861C50.2388 70.8891 50.9738 71.6211 51.8806 71.6211H58.4478C59.3545 71.6211 60.0896 70.8891 60.0896 69.9861C60.0896 69.083 59.3545 68.351 58.4478 68.351H56.806V67.3699H64.3582C65.265 67.3699 66 66.6379 66 65.7348V53.6351C66 52.732 65.265 52 64.3582 52H45.6418C44.735 52 44 52.732 44 53.6351V65.7348C44 66.6379 44.735 67.3699 45.6418 67.3699H53.5224V68.351ZM47.2836 55.2702H62.7164V64.0997H47.2836V55.2702Z" fill="white"/>
<path d="M143.83 132.933H142.541V119.153C142.541 117.964 141.569 117 140.371 117H115.629C114.431 117 113.459 117.964 113.459 119.153V132.933H112.17C110.972 132.933 110 133.897 110 135.086V137.841C110 140.8 112.426 143.207 115.409 143.207H140.591C143.574 143.207 146 140.8 146 137.841V135.086C146 133.897 145.028 132.933 143.83 132.933ZM117.8 121.306H138.2V132.933H117.8V121.306ZM141.659 137.841C141.659 138.425 141.18 138.901 140.591 138.901H115.409C114.82 138.901 114.341 138.426 114.341 137.841V137.24H141.659V137.841Z" fill="white"/>
<path d="M103.884 132.988C99.0798 134.741 94.025 135.63 88.8597 135.63C83.6944 135.63 78.6395 134.741 73.8353 132.988C72.4457 132.481 70.9051 133.187 70.3942 134.566C69.8833 135.944 70.5953 137.473 71.9846 137.98C77.3834 139.95 83.061 140.949 88.8597 140.949C94.6584 140.949 100.336 139.95 105.735 137.98C107.124 137.473 107.836 135.944 107.325 134.566C106.814 133.187 105.273 132.481 103.884 132.988Z" fill="white"/>
<path d="M73.8355 51.9614C78.6397 50.208 83.6945 49.3192 88.8598 49.3192C94.0251 49.3192 99.08 50.2083 103.884 51.9614C104.189 52.0729 104.502 52.1255 104.809 52.1255C105.901 52.1255 106.926 51.459 107.325 50.3836C107.836 49.0051 107.124 47.4765 105.735 46.9693C100.336 44.9992 94.6585 44 88.8598 44C83.0611 44 77.3833 44.9989 71.9848 46.9693C70.5951 47.4765 69.8832 49.0049 70.3944 50.3836C70.9053 51.762 72.4458 52.4683 73.8355 51.9614Z" fill="white"/>
<path d="M45.5089 110.959C45.8161 110.959 46.129 110.906 46.4343 110.795C47.8237 110.287 48.5356 108.759 48.0247 107.38C46.2574 102.614 45.3612 97.5994 45.3612 92.4748C45.3612 87.3503 46.2574 82.3353 48.0247 77.5692C48.5359 76.1905 47.8237 74.6621 46.4343 74.155C45.0441 73.6478 43.5038 74.3544 42.9929 75.7328C41.0068 81.089 40 86.7218 40 92.4751C40 98.2283 41.0068 103.861 42.9929 109.217C43.3918 110.293 44.4174 110.959 45.5089 110.959Z" fill="white"/>
<path d="M131.285 110.795C131.591 110.906 131.903 110.959 132.21 110.959C133.302 110.959 134.328 110.293 134.726 109.217C136.712 103.861 137.719 98.2279 137.719 92.475C137.719 86.722 136.712 81.0889 134.726 75.733C134.215 74.3543 132.674 73.6477 131.285 74.1551C129.896 74.6623 129.184 76.1907 129.695 77.5691C131.462 82.3354 132.358 87.3504 132.358 92.475C132.358 97.5995 131.462 102.614 129.695 107.381C129.184 108.759 129.896 110.288 131.285 110.795Z" fill="white"/>
<path d="M119.088 70.0325C121.674 70.0325 124.113 68.9427 125.824 67.0682H130.177C131.888 68.9427 134.327 70.0325 136.912 70.0325C141.923 70.0325 146 65.9878 146 61.0162C146 56.0446 141.923 52 136.912 52H119.088C114.077 52 110 56.0446 110 61.0162C110 65.9878 114.077 70.0325 119.088 70.0325ZM119.088 56.4581H136.913C139.446 56.4581 141.507 58.5029 141.507 61.0165C141.507 63.53 139.446 65.5748 136.913 65.5748C135.394 65.5748 133.974 64.8299 133.115 63.5824C132.696 62.9743 132.002 62.6106 131.26 62.6106H124.741C123.999 62.6106 123.304 62.9743 122.886 63.5824C122.027 64.8301 120.607 65.5748 119.088 65.5748C116.555 65.5748 114.494 63.53 114.494 61.0165C114.494 58.5029 116.555 56.4581 119.088 56.4581Z" fill="white"/>
<path d="M57.3664 115H48.6336C46.0785 115 44 117.062 44 119.597V136.689C44 139.224 46.0787 141.286 48.6336 141.286H57.3664C59.9215 141.286 62 139.224 62 136.689V119.597C62 117.062 59.9215 115 57.3664 115ZM48.6336 118.913H57.3664C57.7466 118.913 58.056 119.22 58.056 119.597V132.187H47.944V119.597C47.944 119.22 48.2534 118.913 48.6336 118.913ZM47.944 136.689V136.099H51.028V137.374H48.6336C48.2534 137.374 47.944 137.067 47.944 136.689ZM57.3664 137.374H54.972V136.099H58.056V136.689C58.056 137.067 57.7466 137.374 57.3664 137.374Z" fill="white"/>
<path d="M49.3281 173.562L47.4062 152H68.5469L66.625 173.562L57.9531 176" fill="#E34F26"/>
<path d="M58 174.125L64.9844 172.203L66.625 153.734H58" fill="#EF652A"/>
<path d="M58 161.75H54.4844L54.25 159.031H58V156.406H57.9531H51.3438L51.3906 157.109L52.0469 164.422H58V161.75ZM58 168.641H57.9531L55 167.844L54.8125 165.734H53.4062H52.1875L52.5156 169.906L57.9531 171.406H58V168.641Z" fill="#EBEBEB"/>
<path d="M57.9531 161.75V164.422H61.2344L60.9062 167.844L57.9531 168.641V171.406L63.3906 169.906L63.4375 169.438L64.0469 162.453L64.1406 161.75H63.3906H57.9531ZM57.9531 156.406V158.047V159.031H64.375L64.4219 158.469L64.5625 157.109L64.6094 156.406H57.9531Z" fill="white"/>
<path fill-rule="evenodd" clip-rule="evenodd" d="M116.231 152C114.519 152 113.253 153.505 113.309 155.136C113.364 156.704 113.293 158.734 112.784 160.39C112.274 162.051 111.41 163.103 110 163.238V164.762C111.41 164.897 112.274 165.949 112.784 167.61C113.293 169.266 113.364 171.296 113.309 172.864C113.253 174.495 114.519 176 116.231 176H133.771C135.483 176 136.749 174.495 136.693 172.864C136.638 171.296 136.709 169.266 137.218 167.61C137.729 165.949 138.59 164.897 140 164.762V163.238C138.59 163.103 137.729 162.051 137.218 160.39C136.709 158.735 136.638 156.704 136.693 155.136C136.749 153.505 135.483 152 133.771 152H116.231ZM130.339 166.774C130.339 169.02 128.67 170.383 125.901 170.383H121.186C121.052 170.383 120.922 170.329 120.827 170.233C120.732 170.138 120.678 170.008 120.678 169.872V158.128C120.678 157.992 120.732 157.862 120.827 157.767C120.922 157.671 121.052 157.617 121.186 157.617H125.874C128.183 157.617 129.698 158.873 129.698 160.802C129.698 162.156 128.679 163.368 127.38 163.58V163.651C129.148 163.845 130.339 165.075 130.339 166.774ZM125.387 159.236H122.699V163.049H124.963C126.713 163.049 127.678 162.341 127.678 161.076C127.678 159.89 126.848 159.236 125.387 159.236ZM122.699 164.562V168.764H125.486C127.308 168.764 128.273 168.029 128.273 166.649C128.273 165.269 127.281 164.562 125.368 164.562L122.699 164.562Z" fill="#712CF9"/>
<path d="M81.3448 173.601L79.4189 152H100.581L98.653 173.597L89.987 176L81.3448 173.601Z" fill="#264DE4"/>
<path d="M97.0026 172.222L98.6501 153.766H90V174.164L97.0026 172.222Z" fill="#2965F1"/>
<path d="M83.8341 161.778L84.0715 164.427H90V161.778H83.8341ZM83.5978 159.065H90V156.416H83.3569L83.5978 159.065ZM90 168.658L89.9884 168.661L87.0379 167.865L86.8493 165.752H84.1898L84.561 169.911L89.9878 171.418L90 171.414V168.658Z" fill="#EBEBEB"/>
<path d="M89.991 161.778V164.427H93.2532L92.9457 167.863L89.991 168.66V171.417L95.4221 169.911L95.4619 169.464L96.0844 162.489L96.1491 161.778L96.6274 156.416H89.991V159.065H93.724L93.4829 161.778H89.991Z" fill="white"/>
<defs>
<filter id="filter0_f_552_15" x="9.85" y="3.85" width="160.3" height="40.3" filterUnits="userSpaceOnUse" color-interpolation-filters="sRGB">
<feFlood flood-opacity="0" result="BackgroundImageFix"/>
<feBlend mode="normal" in="SourceGraphic" in2="BackgroundImageFix" result="shape"/>
<feGaussianBlur stdDeviation="0.075" result="effect1_foregroundBlur_552_15"/>
</filter>
</defs>
</svg>
