<svg width="800" height="465" viewBox="0 0 800 465" fill="none" xmlns="http://www.w3.org/2000/svg">
<g clip-path="url(#clip0_538_2)">
<path d="M798.291 451.489C784.532 454.795 773.428 454.713 763.864 451.061C753.966 447.282 745.57 439.622 737.556 427.582L737.545 427.566L737.534 427.551L622.72 268.676L622.715 268.669L622.709 268.661L606.146 246.631L605.34 245.559L604.543 246.637L470.352 428.105L470.345 428.114L470.338 428.123C462.706 438.953 454.976 446.622 445.71 450.667C436.782 454.565 426.296 455.153 412.863 451.746L583.717 222.342L584.168 221.735L583.708 221.135L424.776 14.1807C437.769 11.7583 448.699 11.2921 458.365 14.1995C468.387 17.2138 477.179 23.8952 485.526 36.0979L485.537 36.1134L485.548 36.1285L604.704 197.013L605.502 198.091L606.307 197.018L726.348 37.0179L726.357 37.006L726.365 36.9938C733.988 26.1782 741.83 18.8129 751.086 15.1048C760.007 11.5305 770.378 11.3008 783.367 14.8711L722.262 95.8688L722.257 95.8758L638.254 205.2C638.252 205.203 638.25 205.205 638.248 205.208C633.19 211.532 630.885 217.031 631.142 222.585C631.397 228.109 634.182 233.476 638.8 239.553C638.8 239.554 638.801 239.555 638.802 239.556L798.291 451.489ZM36.9849 237.468H36.0222L35.9856 238.43C33.2829 309.547 57.527 366.701 98.9142 400.588C140.316 434.487 198.717 444.975 264.037 423.054L264.037 423.054C310.092 407.567 337.131 371.56 350.625 326.639C354.012 315.52 358.415 309.39 364.325 306.694C370.109 304.056 377.616 304.572 387.669 307.51C376.846 362.812 352.749 408.879 302.057 437.8L302.057 437.801C225.886 481.327 117.051 467.211 59.9025 406.786L59.8944 406.777C25.9355 371.7 11.8329 327.242 5.49448 279.588C4.81459 274.038 3.6147 268.617 2.43762 263.3C1.94096 261.056 1.44837 258.831 1.00062 256.622C1.0806 243.746 1.16039 230.866 1.1608 217.986L15.2038 149.055C53.319 12.9337 209.294 -43.5121 316.73 40.5014C379.306 89.7033 395.088 159.293 392.124 237.468H36.9849ZM36.6289 208.358L36.5878 209.398H37.6281H359.477H360.498L360.477 208.377C358.379 105.467 294.23 32.1268 206.32 31.4781C158.179 31.0739 116.785 48.7435 86.9072 79.8252C57.0353 110.901 38.7276 155.326 36.6289 208.358Z" fill="white" stroke="black" stroke-width="2"/>
</g>
<defs>
<clipPath id="clip0_538_2">
<rect width="800" height="464.1" fill="white"/>
</clipPath>
</defs>
</svg>
