<?xml version="1.0" encoding="utf-8"?>
<!-- Generator: Adobe Illustrator 23.0.1, SVG Export Plug-In . SVG Version: 6.00 Build 0)  -->
<svg version="1.1" id="Layer_1" xmlns="http://www.w3.org/2000/svg" xmlns:xlink="http://www.w3.org/1999/xlink" x="0px" y="0px"
	 viewBox="0 0 1000 1000" style="enable-background:new 0 0 1000 1000;" xml:space="preserve">
<style type="text/css">
	.st0{fill:#010101;}
</style>
<path class="st0" d="M997.5,773.7c-36.2,9.2-58.6,0.4-78.7-29.8L776,546.3l-20.6-27.4L588.5,744.6c-19.1,27.1-39.1,39-74.6,29.4
	l213.6-286.8l-198.9-259c34.2-6.7,57.8-3.3,78.8,27.4l148.2,200.1l149.3-199c19.1-27.1,39.7-37.5,74-27.5l-77.1,102.2l-104.5,136
	c-12.4,15.5-10.7,26.2,0.7,41.2L997.5,773.7z M2.7,482.4l17.5-85.9c47.6-170.1,242.6-240.8,377-135.7
	c78.6,61.8,98.1,149.3,94.2,247.2H48.5c-6.7,176.3,120.2,282.7,282,228.4c56.8-19.1,90.2-63.5,106.9-119.1
	c8.5-27.9,22.5-32.2,48.7-24.3c-13.4,69.5-43.5,127.6-107.3,164c-95.2,54.4-231.2,36.8-302.7-38.8C33.6,674.3,16,618.7,8.1,559.3
	c-1.2-9.8-3.7-19.2-5.6-28.6C2.6,514.6,2.7,498.5,2.7,482.4L2.7,482.4z M49.3,470.6h400.3c-2.6-127.5-82-218-190.5-218.8
	C140,250.8,54.5,339.2,49.3,470.6z"/>
</svg>
