<svg width="250" height="202" viewBox="0 0 250 202" fill="none" xmlns="http://www.w3.org/2000/svg">
<path d="M119.967 25.7642H17.7242C16.0755 25.7642 14.7381 27.105 14.7381 28.758V90.2503C14.7381 91.9012 16.0735 93.2421 17.7242 93.2421H58.6451V98.1291H38.0884C36.7408 98.1291 35.6512 99.2195 35.6512 100.573V102.404C35.6512 103.751 36.7408 104.846 38.0884 104.846H99.6029C100.951 104.846 102.04 103.753 102.04 102.404V100.573C102.04 99.2215 100.951 98.1291 99.6029 98.1291H79.0462V93.2421H119.965C121.614 93.2421 122.949 91.9012 122.949 90.2503V28.758C122.951 27.105 121.616 25.7642 119.967 25.7642Z" fill="#005B83"/>
<path d="M116.578 30.9368H21.4272V87.2361H116.578V30.9368Z" fill="white"/>
<path d="M56.0011 49.4028H48.7754V81.9159H56.0011V49.4028Z" fill="#BBEBFF"/>
<path d="M67.1161 54.1274H59.8904V81.9136H67.1161V54.1274Z" fill="#00CFDD"/>
<path d="M78.2352 45.573H71.0095V81.9136H78.2352V45.573Z" fill="#F3C144"/>
<path d="M89.3543 42.2139H82.1286V81.9158H89.3543V42.2139Z" fill="#FA7A49"/>
<path d="M100.471 39.4006H93.2457V81.9157H100.471V39.4006Z" fill="#00CFDD"/>
<path d="M44.882 54.1274H37.6563V81.9136H44.882V54.1274Z" fill="#00CFDD"/>
<path d="M62.002 14.5095L60.9063 10.4274C60.7383 9.79909 60.0932 9.42538 59.4665 9.59581L56.595 10.37C56.1383 9.61432 55.6099 8.92026 55.0119 8.29603L56.4926 5.71904C56.8162 5.15436 56.6237 4.43362 56.0605 4.10714L52.4087 1.99834C51.8455 1.67391 51.1246 1.86897 50.7989 2.4316L49.3182 5.01063C48.4805 4.80324 47.6162 4.69443 46.7376 4.67801L45.9654 1.79709C45.7954 1.16876 45.1523 0.799171 44.5236 0.967548L40.452 2.06611C39.8273 2.23654 39.4525 2.87922 39.6225 3.50961L40.3946 6.38842C39.6409 6.84427 38.9487 7.37404 38.3281 7.97363L35.7598 6.48699C35.1925 6.16461 34.4756 6.35762 34.152 6.92025L32.0466 10.5835C31.9851 10.6882 31.9606 10.7991 31.936 10.912C31.9134 10.5178 31.6288 10.179 31.2171 10.1256L29.0809 9.85455C28.9867 9.25291 28.827 8.66361 28.5996 8.08661L30.2996 6.76215C30.6662 6.47878 30.7317 5.949 30.447 5.5835L28.6037 3.20161C28.3211 2.83611 27.7947 2.76834 27.4281 3.05376L25.7262 4.37822C25.2244 4.01272 24.696 3.71289 24.1389 3.4706L24.4113 1.32689C24.4645 0.864885 24.143 0.443928 23.6822 0.386434L20.6981 0.00656474C20.2373 -0.0509297 19.8195 0.275562 19.7601 0.737571L19.4918 2.88127C18.8917 2.97778 18.3039 3.13796 17.7283 3.36589L16.4094 1.65748C16.1226 1.28992 15.5983 1.22217 15.2297 1.50759L12.8559 3.35561C12.4914 3.64308 12.4217 4.16874 12.7085 4.5404L14.0295 6.24266C13.6649 6.74574 13.3639 7.2755 13.1242 7.83401L10.986 7.56299C10.5293 7.50344 10.1094 7.83194 10.05 8.2919L9.67524 11.2817C9.61585 11.7437 9.93944 12.1626 10.4003 12.2201L12.5364 12.489C12.6327 13.0927 12.7924 13.682 13.0198 14.259L11.3178 15.5835C10.9533 15.8689 10.8836 16.3966 11.1703 16.7641L13.0136 19.142C13.2963 19.5095 13.8226 19.5793 14.1913 19.2919L15.8933 17.9695C16.393 18.3329 16.9214 18.6348 17.4785 18.875L17.2102 21.0187C17.1528 21.4828 17.4785 21.9016 17.9352 21.9571L20.9213 22.339C21.3801 22.3945 21.8 22.068 21.8573 21.606L22.1256 19.4643C22.7257 19.3699 23.3135 19.2097 23.889 18.9818L25.21 20.6881C25.4947 21.0578 26.0211 21.1193 26.3877 20.836L28.7635 18.9879C29.128 18.7046 29.1956 18.1748 28.913 17.8114L27.5899 16.103C27.9545 15.6019 28.2535 15.0701 28.4952 14.5116L30.6313 14.7826C31.0942 14.8401 31.512 14.5177 31.5694 14.0557L31.9155 11.3042C31.9565 11.6636 32.1408 12.0003 32.4767 12.1954L35.047 13.68C34.8402 14.5178 34.7316 15.3863 34.7132 16.2693L31.8438 17.0434C31.2171 17.2118 30.8443 17.8606 31.0123 18.489L32.108 22.5711C32.276 23.1994 32.9232 23.5711 33.5519 23.4027L36.4213 22.6286C36.876 23.3822 37.4044 24.0762 38.0024 24.7004L36.5196 27.2774C36.194 27.8421 36.3885 28.5649 36.9518 28.8893L40.6076 30.9961C41.1688 31.3246 41.8877 31.1316 42.2154 30.5628L43.6961 27.9858C44.5338 28.1952 45.3981 28.302 46.2767 28.3205L47.0489 31.1973C47.2189 31.8276 47.8661 32.1993 48.4907 32.0289L52.5623 30.9324C53.1891 30.764 53.5598 30.1152 53.3918 29.4869L52.6197 26.6101C53.3713 26.1522 54.0656 25.6244 54.6862 25.0228L57.2566 26.5074C57.8219 26.8359 58.5407 26.6409 58.8664 26.0721L60.9718 22.413C61.2954 21.8503 61.1029 21.1276 60.5376 20.8011L57.9673 19.3144C58.1741 18.4766 58.2827 17.6101 58.2991 16.7292L61.1705 15.9531C61.7992 15.7867 62.17 15.1358 62.002 14.5095ZM16.8108 14.2857C15.1006 12.0763 15.5021 8.88127 17.7038 7.1667C19.9116 5.45419 23.0944 5.85663 24.8045 8.06606C26.5126 10.2755 26.1132 13.4685 23.9075 15.1831C21.7037 16.8976 18.523 16.4951 16.8108 14.2857ZM48.3515 23.3657C44.5748 24.3842 40.6752 22.1296 39.6573 18.3432C38.6414 14.5547 40.8902 10.6451 44.6649 9.62865C48.4416 8.61017 52.3452 10.8627 53.3611 14.6471C54.377 18.4356 52.1281 22.3472 48.3515 23.3657Z" fill="#F3C144"/>
<path d="M39.3337 35.3041C39.1125 34.4786 38.2646 33.9859 37.4372 34.2097L33.6666 35.2261C33.0686 34.2364 32.3743 33.3226 31.5878 32.5033L33.5335 29.1153C33.9595 28.374 33.7055 27.4274 32.9662 27.0023L28.1654 24.2241C27.424 23.797 26.4819 24.0516 26.0518 24.7929L24.1061 28.181C23.0063 27.9099 21.8696 27.7662 20.7145 27.7416L19.6986 23.9613C19.4774 23.1338 18.6275 22.6431 17.8041 22.8669L12.4524 24.3104C11.6312 24.5322 11.1376 25.3822 11.3608 26.2118L12.3746 29.9921C11.3874 30.5917 10.476 31.2898 9.66089 32.0783L6.28154 30.1256C5.54013 29.7005 4.59596 29.9551 4.16995 30.6943L1.40298 35.5136C0.976978 36.2528 1.23298 37.1973 1.9703 37.6265L5.3517 39.5792C5.08135 40.6819 4.93594 41.8236 4.91546 42.9796L1.14491 43.996C0.319533 44.2178 -0.167908 45.07 0.0532862 45.8975L1.49309 51.2609C1.71429 52.0864 2.5622 52.5792 3.38758 52.3553L7.15812 51.3369C7.75617 52.3286 8.45252 53.2424 9.23899 54.0596L7.29125 57.4477C6.86525 58.189 7.12126 59.1355 7.86062 59.5647L12.6634 62.3368C13.4007 62.7659 14.3449 62.5092 14.775 61.768L16.7207 58.3841C17.8205 58.6551 18.9592 58.8008 20.1123 58.8214L21.1282 62.6058C21.3494 63.4312 22.2014 63.922 23.0247 63.6981L28.3764 62.2567C29.1997 62.0349 29.6913 61.1848 29.468 60.3553L28.4542 56.5729C29.4414 55.9713 30.3528 55.2752 31.17 54.4847L34.5473 56.4354C35.2908 56.8625 36.2329 56.6079 36.6589 55.8666L39.4259 51.0535C39.8498 50.3102 39.5958 49.3636 38.8565 48.9365L35.4792 46.9858C35.7495 45.8811 35.8929 44.7414 35.9154 43.5833L39.686 42.5669C40.5134 42.3452 41.0029 41.4951 40.7796 40.6655L39.3337 35.3041ZM22.8342 52.3122C17.8676 53.6531 12.7412 50.6921 11.4059 45.7126C10.0705 40.7332 13.0239 35.5937 17.9884 34.2549C22.9551 32.9161 28.0774 35.877 29.4148 40.8585C30.7501 45.8338 27.8009 50.9734 22.8342 52.3122Z" fill="#F3C144"/>
<path d="M217.794 159.611C217.794 161.244 216.473 162.564 214.845 162.564H113.991C112.364 162.564 111.043 161.244 111.043 159.611V98.9528C111.043 97.3203 112.364 96 113.991 96H214.845C216.475 96 217.794 97.3203 217.794 98.9528V159.611Z" fill="#005B83"/>
<path d="M210.55 102.06H117.548V155.696H210.55V102.06Z" fill="white"/>
<path d="M228.837 175.311C228.837 176.944 227.514 178.264 225.888 178.264H102.945C101.319 178.264 100 176.944 100 175.311V169.41C100 167.778 101.317 166.455 102.945 166.455H225.888C227.514 166.455 228.837 167.78 228.837 169.41V175.311Z" fill="#005B83"/>
<path d="M196.67 109.93C196.67 107.238 194.491 105.053 191.804 105.053C189.119 105.053 186.94 107.238 186.94 109.93C186.94 111.462 187.658 112.811 188.758 113.706L178.819 143.495L167.634 119.626C168.378 118.77 168.847 117.665 168.847 116.437C168.847 113.745 166.668 111.561 163.978 111.561C161.293 111.561 159.114 113.745 159.114 116.437C159.114 117.776 159.655 118.99 160.525 119.871L149.554 140.571L144.276 132.246C145.316 131.349 145.988 130.041 145.988 128.558C145.988 125.864 143.811 123.682 141.122 123.682C138.437 123.682 136.259 125.864 136.259 128.558C136.259 129.739 136.694 130.811 137.392 131.653L127.447 149.911C126.996 150.733 127.301 151.768 128.122 152.219C128.38 152.359 128.659 152.425 128.933 152.425C129.534 152.425 130.117 152.104 130.427 151.54L140.331 133.353C140.552 133.39 140.776 133.413 141.005 133.421L148.259 144.854C148.583 145.363 149.169 145.692 149.756 145.64C150.359 145.616 150.905 145.273 151.186 144.739L163.62 121.273C163.743 121.283 163.858 121.312 163.98 121.312C164.208 121.312 164.429 121.273 164.648 121.244L177.551 148.778C177.85 149.408 178.508 149.803 179.188 149.753C179.878 149.712 180.476 149.254 180.695 148.597L191.974 114.791C194.581 114.7 196.67 112.567 196.67 109.93Z" fill="#F3C144"/>
<path d="M249.599 198.847C249.599 200.176 248.524 201.254 247.195 201.254H203.038C201.71 201.254 200.633 200.178 200.633 198.847V127.866C200.633 126.536 201.708 125.456 203.038 125.456H247.195C248.522 125.456 249.599 126.534 249.599 127.866V198.847Z" fill="#005B83"/>
<path d="M243.958 131.291H206.276V193.381H243.958V131.291Z" fill="white"/>
<path d="M227.129 197.272C227.129 198.445 226.181 199.398 225.01 199.398C223.84 199.398 222.892 198.445 222.892 197.272C222.892 196.098 223.84 195.147 225.01 195.147C226.181 195.147 227.129 196.096 227.129 197.272Z" fill="white"/>
<path d="M237.095 197.129C237.095 197.599 236.716 197.979 236.247 197.979H231.301C230.832 197.979 230.453 197.597 230.453 197.129C230.453 196.658 230.832 196.279 231.301 196.279H236.247C236.714 196.279 237.095 196.658 237.095 197.129Z" fill="white"/>
<path d="M219.781 197.129C219.781 197.599 219.402 197.979 218.933 197.979H213.987C213.518 197.979 213.139 197.597 213.139 197.129C213.139 196.658 213.518 196.279 213.987 196.279H218.933C219.404 196.279 219.781 196.658 219.781 197.129Z" fill="white"/>
<path d="M240.522 167.41L239.318 162.913C239.129 162.217 238.418 161.806 237.728 161.993L234.566 162.845C234.074 162.03 233.487 161.268 232.815 160.57L234.453 157.72C234.81 157.098 234.597 156.305 233.976 155.946L229.945 153.62C229.327 153.264 228.534 153.474 228.176 154.096L226.542 156.944C225.599 156.714 224.645 156.583 223.695 156.564L222.845 153.4C222.658 152.704 221.948 152.291 221.26 152.48L216.768 153.689C216.643 153.724 216.535 153.794 216.428 153.86C216.715 153.533 216.758 153.045 216.477 152.687L215.05 150.841C215.447 150.291 215.785 149.691 216.059 149.057L218.376 149.351C218.886 149.416 219.349 149.051 219.408 148.544L219.824 145.25C219.887 144.741 219.531 144.275 219.023 144.213L216.705 143.917C216.596 143.234 216.418 142.572 216.168 141.94L218.011 140.507C218.411 140.188 218.486 139.611 218.173 139.203L216.141 136.577C215.83 136.174 215.25 136.1 214.841 136.414L213 137.85C212.451 137.447 211.855 137.11 211.22 136.837L211.515 134.513C211.578 134.004 211.218 133.54 210.71 133.476L207.425 133.059C206.919 132.998 206.454 133.357 206.39 133.866L206.097 136.19C205.415 136.297 204.754 136.478 204.125 136.729L202.694 134.88C202.384 134.474 201.801 134.404 201.397 134.718L198.782 136.755C198.376 137.069 198.302 137.65 198.618 138.055L200.045 139.901C199.648 140.451 199.31 141.051 199.036 141.687L196.715 141.392C196.209 141.33 195.744 141.687 195.683 142.199L195.269 145.492C195.204 146.002 195.56 146.468 196.072 146.531L198.39 146.827C198.499 147.511 198.675 148.172 198.927 148.804L197.084 150.238C196.68 150.554 196.609 151.133 196.92 151.535L198.952 154.166C199.263 154.566 199.849 154.64 200.252 154.328L202.093 152.893C202.642 153.293 203.238 153.63 203.871 153.907L203.578 156.229C203.513 156.741 203.877 157.201 204.381 157.268L207.67 157.681C208.174 157.747 208.639 157.385 208.701 156.878L208.993 154.552C209.675 154.445 210.339 154.264 210.968 154.014L212.397 155.86C212.711 156.266 213.29 156.34 213.694 156.026L216.104 154.153C215.861 154.463 215.74 154.87 215.85 155.285L216.7 158.453C215.887 158.946 215.127 159.535 214.429 160.209L211.593 158.568C210.97 158.211 210.175 158.426 209.819 159.047L207.498 163.088C207.142 163.708 207.355 164.502 207.976 164.86L210.816 166.5C210.585 167.445 210.458 168.4 210.437 169.355L207.279 170.205C206.585 170.391 206.177 171.104 206.364 171.798L207.574 176.297C207.754 176.993 208.463 177.402 209.163 177.215L212.32 176.365C212.811 177.178 213.399 177.942 214.069 178.64L212.434 181.486C212.076 182.11 212.295 182.909 212.911 183.264L216.938 185.591C217.561 185.95 218.353 185.732 218.71 185.112L220.346 182.266C221.286 182.496 222.241 182.625 223.191 182.644L224.041 185.81C224.229 186.506 224.94 186.919 225.634 186.728L230.12 185.519C230.81 185.332 231.221 184.619 231.033 183.923L230.185 180.757C230.996 180.264 231.756 179.675 232.454 179.001L235.295 180.642C235.916 181.003 236.708 180.786 237.065 180.166L239.387 176.127C239.746 175.504 239.533 174.708 238.912 174.35L236.071 172.71C236.301 171.765 236.432 170.81 236.448 169.858L239.61 169.005C240.303 168.817 240.712 168.104 240.522 167.41ZM206.849 150.917C203.793 150.531 201.629 147.731 202.012 144.669C202.399 141.609 205.196 139.435 208.244 139.821C211.296 140.209 213.462 143.012 213.081 146.069C212.692 149.127 209.901 151.303 206.849 150.917ZM219.539 176.4C215.801 174.244 214.513 169.437 216.668 165.687C218.82 161.942 223.613 160.65 227.346 162.81C231.084 164.966 232.377 169.771 230.222 173.519C228.067 177.266 223.275 178.556 219.539 176.4Z" fill="#00CFDD"/>
<path d="M203.134 161.289C202.89 160.377 201.958 159.839 201.045 160.082L196.895 161.203C196.248 160.129 195.474 159.129 194.591 158.209L196.74 154.472C197.211 153.65 196.93 152.605 196.113 152.133L190.819 149.078C190.006 148.607 188.963 148.885 188.488 149.706L186.337 153.447C185.102 153.143 183.849 152.975 182.602 152.952L181.485 148.788C181.24 147.876 180.306 147.336 179.396 147.581L173.494 149.174C172.587 149.418 172.048 150.353 172.29 151.264L173.408 155.427C172.341 156.075 171.341 156.852 170.424 157.737L166.692 155.581C165.875 155.112 164.835 155.396 164.361 156.209L161.314 161.517C160.845 162.334 161.125 163.381 161.941 163.852L165.672 166.008C165.369 167.248 165.201 168.505 165.176 169.757L161.025 170.874C160.116 171.121 159.577 172.057 159.819 172.969L161.41 178.884C161.652 179.794 162.588 180.336 163.499 180.092L167.649 178.973C168.294 180.045 169.068 181.047 169.951 181.966L167.8 185.708C167.331 186.525 167.618 187.572 168.427 188.042L173.721 191.1C174.536 191.57 175.581 191.291 176.052 190.472L178.202 186.73C179.439 187.034 180.693 187.203 181.944 187.227L183.058 191.385C183.306 192.299 184.238 192.841 185.15 192.593L191.048 191.005C191.957 190.759 192.494 189.823 192.252 188.909L191.136 184.751C192.203 184.102 193.203 183.326 194.12 182.439L197.85 184.595C198.667 185.065 199.709 184.786 200.18 183.966L203.228 178.658C203.699 177.843 203.419 176.796 202.601 176.324L198.87 174.168C199.173 172.93 199.341 171.673 199.365 170.422L203.519 169.299C204.426 169.055 204.965 168.119 204.719 167.209L203.134 161.289ZM177.137 179.022C172.226 176.182 170.528 169.87 173.359 164.944C176.189 160.02 182.489 158.32 187.402 161.158C192.314 163.993 194.008 170.309 191.175 175.233C188.347 180.159 182.053 181.862 177.137 179.022Z" fill="#00CFDD"/>
</svg>
