<svg width="800" height="430" viewBox="0 0 800 430" fill="none" xmlns="http://www.w3.org/2000/svg">
<g clip-path="url(#clip0_538_4)">
<path d="M40.0812 0.155762V284L164.5 143.306H171.78L78.4453 248.664L201.555 429.604H161.472L55.5422 273.857L40.0812 291.607V429.604H0V0.155762H40.0812ZM239.078 288.796C239.078 195.899 299.019 144.168 377.053 144.168C448.869 144.168 510.505 180.881 510.505 282.121C510.505 375.017 450.564 426.748 372.53 426.748C300.714 426.748 239.078 390.037 239.078 288.796ZM276.259 288.814C276.259 386.681 319.223 421 372.5 421C428.641 421 473.323 371.581 473.323 282.103C473.323 184.237 430.275 150 377 150C320.859 150 276.259 199.335 276.259 288.814ZM782.797 425.089C715.097 425.089 718.427 385.595 718.427 385.595L718.5 379C707.402 399.025 686.241 427.314 631.305 427.314C566.378 427.314 555.28 386.151 551.95 363.9C546.402 326.631 559.719 298.817 658.495 292.142C683.467 289.917 711.767 291.029 718.427 291.585V199.246C718.427 199.246 722.9 153.5 658.53 153.5C624.123 153.5 585.873 167.713 572 175.5C558.127 183.287 566.934 167.54 566.934 167.54C574.147 164.203 607.997 144.732 667.373 144.732C747.837 144.732 757.272 180.334 757.272 199.248V385.593C757.272 421.749 782.797 420.637 782.797 420.637H800V425.087L782.797 425.089ZM641 422C682.603 422 716.558 385.724 718.202 363.115V295.783C711.631 295.219 685.872 293.109 658.5 296.5C600.475 303.283 589.008 322.418 592.292 363.681C594.483 391.378 602.68 422 641 422Z" fill="white"/>
</g>
<defs>
<clipPath id="clip0_538_4">
<rect width="800" height="429.76" fill="white"/>
</clipPath>
</defs>
</svg>
