<svg width="180" height="180" viewBox="0 0 180 180" fill="none" xmlns="http://www.w3.org/2000/svg">
<g clip-path="url(#clip0_555_4)">
<path d="M120.078 24.8798L116.894 41.0336H112.491L112.789 39.4423C111.46 40.6633 109.824 41.2739 107.88 41.2739C106.63 41.2739 105.48 40.9836 104.429 40.4031C103.378 39.8226 102.535 38.9919 101.9 37.9109C101.285 36.81 100.978 35.5189 100.978 34.0377C100.978 32.2562 101.365 30.6548 102.138 29.2336C102.931 27.7923 104.002 26.6714 105.351 25.8707C106.7 25.0499 108.187 24.6396 109.814 24.6396C112.273 24.6396 114.009 25.4503 115.02 27.0717L115.436 24.8798H120.078ZM109.308 37.4005C110.22 37.4005 111.034 37.1804 111.748 36.7399C112.462 36.2796 113.017 35.6491 113.414 34.8484C113.81 34.0476 114.009 33.1269 114.009 32.086C114.009 30.9851 113.681 30.1143 113.027 29.4737C112.392 28.8332 111.5 28.5129 110.349 28.5129C109.437 28.5129 108.624 28.7432 107.91 29.2035C107.196 29.6439 106.64 30.2645 106.244 31.0651C105.847 31.8658 105.649 32.7866 105.649 33.8275C105.649 34.9285 105.966 35.7992 106.601 36.4397C107.255 37.0803 108.158 37.4005 109.308 37.4005Z" fill="url(#paint0_linear_555_4)"/>
<path d="M125.832 41.2739C124.444 41.2739 123.125 41.1237 121.876 40.8235C120.646 40.5032 119.684 40.0928 118.99 39.5925L120.775 36.1995C121.469 36.6599 122.312 37.0302 123.304 37.3105C124.315 37.5907 125.327 37.7308 126.338 37.7308C127.39 37.7308 128.173 37.6008 128.689 37.3405C129.205 37.0603 129.462 36.6699 129.462 36.1695C129.462 35.7692 129.234 35.4789 128.778 35.2988C128.322 35.1186 127.588 34.9285 126.576 34.7282C125.426 34.5081 124.474 34.2679 123.72 34.0076C122.986 33.7474 122.342 33.3271 121.787 32.7466C121.251 32.146 120.984 31.3354 120.984 30.3144C120.984 28.5329 121.717 27.1418 123.184 26.1409C124.672 25.14 126.616 24.6396 129.016 24.6396C130.126 24.6396 131.207 24.7597 132.258 24.9999C133.309 25.2401 134.202 25.5704 134.936 25.9908L133.27 29.4137C131.961 28.593 130.384 28.1826 128.54 28.1826C127.528 28.1826 126.755 28.3328 126.219 28.633C125.704 28.9332 125.445 29.3136 125.445 29.7741C125.445 30.1944 125.674 30.5046 126.13 30.7048C126.586 30.8849 127.349 31.0852 128.421 31.3053C129.551 31.5255 130.474 31.7658 131.188 32.0259C131.921 32.2661 132.556 32.6765 133.092 33.257C133.627 33.8375 133.895 34.6281 133.895 35.6291C133.895 37.4306 133.141 38.8218 131.634 39.8026C130.147 40.7835 128.213 41.2739 125.832 41.2739Z" fill="url(#paint1_linear_555_4)"/>
<path d="M146.546 31.9057L152.05 41.0334H146.666L142.858 34.7581L140.031 37.1301L139.257 41.0334H134.616L139.019 18.7544H143.661L141.191 31.215L148.866 24.8796H154.907L146.546 31.9057Z" fill="url(#paint2_linear_555_4)"/>
<path d="M94.135 15.5116V8.00515C94.135 4.6886 96.799 2 100.085 2H164.049C167.335 2 170 4.6886 170 8.00515V50.0412C170 53.3578 167.335 56.0463 164.049 56.0463H153.636L157.117 72.4362C157.421 73.8687 155.72 74.8476 154.653 73.8539L138.761 59.0489H100.085C96.799 59.0489 94.135 56.3604 94.135 53.0437V50.0412" stroke="url(#paint3_linear_555_4)" stroke-width="4.30079"/>
<path d="M92.9419 33.0168C92.9419 33.0769 92.9122 33.4972 92.8527 34.2778H80.7441C80.9622 35.2788 81.4779 36.0694 82.2911 36.6499C83.1043 37.2304 84.1159 37.5206 85.3258 37.5206C86.1588 37.5206 86.8926 37.4005 87.5273 37.1603C88.1818 36.9002 88.7868 36.4998 89.3421 35.9593L91.8113 38.6616C90.304 40.4031 88.1024 41.2739 85.2067 41.2739C83.4018 41.2739 81.8052 40.9236 80.4169 40.223C79.0285 39.5024 77.9575 38.5115 77.2037 37.2505C76.4501 35.9893 76.0732 34.5581 76.0732 32.9568C76.0732 31.3754 76.4401 29.9542 77.1741 28.6931C77.9277 27.412 78.9491 26.4212 80.2384 25.7205C81.5473 24.9999 83.0051 24.6396 84.6117 24.6396C86.1786 24.6396 87.5967 24.9799 88.866 25.6605C90.1355 26.3411 91.1271 27.3219 91.8411 28.603C92.5749 29.8641 92.9419 31.3354 92.9419 33.0168ZM84.6414 28.1826C83.5902 28.1826 82.7076 28.4829 81.9936 29.0834C81.2796 29.6839 80.8433 30.5046 80.6846 31.5455H88.5685C88.4099 30.5247 87.9736 29.7139 87.2595 29.1135C86.5455 28.4929 85.6728 28.1826 84.6414 28.1826Z" fill="white"/>
<path d="M67.5738 24.6396C69.577 24.6396 71.1636 25.2401 72.3339 26.4412C73.5239 27.6221 74.1189 29.4037 74.1189 31.7858V41.0336H69.4778V32.5064C69.4778 31.2253 69.21 30.2744 68.6746 29.6539C68.1589 29.0134 67.4151 28.6931 66.4433 28.6931C65.3524 28.6931 64.4896 29.0534 63.8549 29.7741C63.2202 30.4746 62.9029 31.5255 62.9029 32.9267V41.0336H58.2618V32.5064C58.2618 29.9641 57.2502 28.6931 55.2271 28.6931C54.1562 28.6931 53.3033 29.0534 52.6687 29.7741C52.0339 30.4746 51.7166 31.5255 51.7166 32.9267V41.0336H47.0754V24.8798H51.5084V26.7414C52.1034 26.0608 52.8273 25.5404 53.6801 25.1801C54.5529 24.8198 55.5049 24.6396 56.5362 24.6396C57.6667 24.6396 58.6881 24.8698 59.6005 25.3302C60.5129 25.7705 61.2467 26.4212 61.8021 27.2819C62.4566 26.4412 63.2797 25.7905 64.2714 25.3302C65.283 24.8698 66.3837 24.6396 67.5738 24.6396Z" fill="white"/>
<path d="M45.6604 40.2529C45.2042 40.5932 44.6389 40.8534 43.9646 41.0335C43.31 41.1936 42.6159 41.2737 41.882 41.2737C39.978 41.2737 38.5003 40.7833 37.4492 39.8025C36.4178 38.8217 35.9021 37.3804 35.9021 35.4788V28.8431H33.4329V25.24H35.9021V21.3066H40.5432V25.24H44.5299V28.8431H40.5432V35.4187C40.5432 36.0993 40.7118 36.6297 41.049 37.0101C41.406 37.3703 41.9019 37.5506 42.5366 37.5506C43.2704 37.5506 43.8951 37.3503 44.4108 36.95L45.6604 40.2529Z" fill="white"/>
<path d="M33.4373 33.0168C33.4373 33.0769 33.4075 33.4972 33.348 34.2778H21.2395C21.4577 35.2788 21.9733 36.0694 22.7865 36.6499C23.5996 37.2304 24.6112 37.5206 25.8211 37.5206C26.6541 37.5206 27.3879 37.4005 28.0226 37.1603C28.6772 36.9002 29.2821 36.4998 29.8374 35.9593L32.3068 38.6616C30.7993 40.4031 28.5978 41.2739 25.7021 41.2739C23.8972 41.2739 22.3005 40.9236 20.9122 40.223C19.5238 39.5024 18.4528 38.5115 17.6991 37.2505C16.9454 35.9893 16.5686 34.5581 16.5686 32.9568C16.5686 31.3754 16.9355 29.9542 17.6694 28.6931C18.4231 27.412 19.4445 26.4212 20.7337 25.7205C22.0428 24.9999 23.5006 24.6396 25.1071 24.6396C26.6739 24.6396 28.092 24.9799 29.3614 25.6605C30.6308 26.3411 31.6225 27.3219 32.3365 28.603C33.0704 29.8641 33.4373 31.3354 33.4373 33.0168ZM25.1368 28.1826C24.0857 28.1826 23.2031 28.4829 22.489 29.0834C21.775 29.6839 21.3387 30.5046 21.18 31.5455H29.0639C28.9052 30.5247 28.4689 29.7139 27.7549 29.1135C27.0408 28.4929 26.1682 28.1826 25.1368 28.1826Z" fill="white"/>
<path d="M10 18.7544H14.6411V41.0334H10V18.7544Z" fill="white"/>
<g clip-path="url(#clip1_555_4)">
<path d="M129.02 135.471H129.021V110.844C129.021 108.193 126.876 106.044 124.231 106.044H115.688C113.042 106.044 110.897 108.193 110.897 110.844V122.844L113.177 120.887L118.545 113.283L114.546 123.833L105.728 131.401C104.292 132.633 104.126 134.797 105.355 136.235C106.585 137.674 108.745 137.84 110.18 136.609L119.661 128.472C120.096 128.098 120.431 127.622 120.634 127.085L124.943 115.717L123.554 128.196C123.404 129.544 122.57 130.095 121.693 130.848C120.622 131.767 113.145 138.184 112.211 138.985C111.779 139.356 111.313 139.66 110.825 139.899L110.823 165.886C110.823 168.158 112.661 170 114.928 170H114.929C117.196 170 119.035 168.159 119.035 165.887L119.037 135.471H120.808C120.808 135.475 120.808 135.479 120.808 135.483L120.893 165.898C120.9 168.166 122.737 170 124.999 170C125.003 170 125.007 170 125.011 170C127.279 169.994 129.112 168.147 129.105 165.875L129.02 135.471Z" fill="white"/>
<path d="M119.922 103.094C123.839 103.094 127.014 99.9124 127.014 95.9882C127.014 92.064 123.839 88.8828 119.922 88.8828C116.005 88.8828 112.83 92.064 112.83 95.9882C112.83 99.9124 116.005 103.094 119.922 103.094Z" fill="white"/>
<path d="M53.9139 103.094C57.8305 103.094 61.0055 99.9124 61.0055 95.9882C61.0055 92.064 57.8305 88.8828 53.9139 88.8828C49.9973 88.8828 46.8223 92.064 46.8223 95.9882C46.8223 99.9124 49.9973 103.094 53.9139 103.094Z" fill="white"/>
<path d="M68.1085 131.401L59.29 123.833L55.2912 113.283L60.6586 120.887L62.9387 122.844V110.844C62.9387 108.193 60.7939 106.044 58.1482 106.044H49.6051C46.9594 106.044 44.8145 108.193 44.8145 110.844V135.471H44.8163L44.7305 165.875C44.724 168.147 46.5571 169.994 48.8247 170C48.8288 170 48.8325 170 48.8366 170C51.0988 170 52.9362 168.166 52.9424 165.898L53.0282 135.483C53.0282 135.479 53.0276 135.475 53.0276 135.471H54.7987L54.8011 165.886C54.8013 168.159 56.6396 170 58.9074 170C61.1751 170 63.0132 168.158 63.013 165.886L63.0111 139.899C62.5229 139.66 62.0567 139.356 61.6251 138.985C60.6906 138.183 53.2143 131.767 52.1435 130.848C51.3037 130.127 50.4379 129.566 50.2825 128.196L48.8935 115.717L53.202 127.085C53.4053 127.621 53.74 128.098 54.1749 128.472L63.6565 136.609C65.0932 137.841 67.2525 137.672 68.4813 136.235C69.7105 134.797 69.5438 132.633 68.1085 131.401Z" fill="white"/>
<path d="M90.2964 88.4902C90.2964 83.8012 85.3715 80 79.2965 80C73.2213 80 68.2964 83.8012 68.2964 88.4902C68.2964 90.4248 69.1364 92.2072 70.5478 93.6349L68.8525 97.3618C68.7735 97.5353 68.8092 97.7427 68.9408 97.8759C69.0725 98.0091 69.2706 98.0382 69.4316 97.9479L73.4647 95.688C75.1556 96.5059 77.1538 96.9804 79.2963 96.9804C85.3715 96.9804 90.2964 93.1792 90.2964 88.4902Z" fill="white"/>
<path d="M103.754 103.882L105.45 100.155C105.529 99.9813 105.493 99.7739 105.361 99.6407C105.23 99.5075 105.032 99.4784 104.871 99.5687L100.837 101.829C99.1466 101.011 97.1486 100.536 95.0059 100.536C88.9308 100.536 84.0059 104.337 84.0059 109.026C84.0059 113.715 88.9308 117.517 95.0059 117.517C101.081 117.517 106.006 113.715 106.006 109.026C106.006 107.092 105.166 105.31 103.754 103.882Z" fill="white"/>
<g clip-path="url(#clip2_555_4)">
<path d="M83.0234 84H74.9766C74.4372 84 74 84.4372 74 84.9766V93.0234C74 93.5628 74.4372 94 74.9766 94H83.0234C83.5628 94 84 93.5628 84 93.0234V84.9766C84 84.4372 83.5628 84 83.0234 84Z" fill="#3178C6"/>
<path d="M83.0234 84H74.9766C74.4372 84 74 84.4372 74 84.9766V93.0234C74 93.5628 74.4372 94 74.9766 94H83.0234C83.5628 94 84 93.5628 84 93.0234V84.9766C84 84.4372 83.5628 84 83.0234 84Z" fill="#3178C6"/>
<path fill-rule="evenodd" clip-rule="evenodd" d="M80.1902 91.9575V92.9353C80.3492 93.0167 80.5371 93.0778 80.7542 93.1186C80.9712 93.1593 81.1999 93.1797 81.4404 93.1797C81.6748 93.1797 81.8974 93.1573 82.1083 93.1125C82.3192 93.0677 82.5042 92.9938 82.6631 92.8909C82.8221 92.7881 82.9479 92.6536 83.0406 92.4876C83.1333 92.3216 83.1797 92.1164 83.1797 91.872C83.1797 91.6947 83.1532 91.5394 83.1002 91.406C83.0472 91.2726 82.9708 91.1539 82.871 91.05C82.7711 90.9462 82.6514 90.8529 82.5118 90.7704C82.3722 90.6879 82.2148 90.61 82.0395 90.5367C81.9112 90.4837 81.796 90.4323 81.6941 90.3824C81.5922 90.3325 81.5056 90.2816 81.4343 90.2296C81.363 90.1777 81.3079 90.1227 81.2692 90.0646C81.2305 90.0066 81.2112 89.9409 81.2112 89.8676C81.2112 89.8004 81.2285 89.7397 81.2631 89.6858C81.2978 89.6318 81.3467 89.5854 81.4098 89.5467C81.473 89.508 81.5504 89.478 81.6421 89.4566C81.7339 89.4352 81.8357 89.4245 81.9478 89.4245C82.0293 89.4245 82.1154 89.4306 82.2061 89.4429C82.2968 89.4551 82.388 89.4739 82.4797 89.4994C82.5714 89.5248 82.6605 89.5569 82.7472 89.5956C82.8338 89.6343 82.9138 89.6791 82.9871 89.7301V88.8165C82.8384 88.7595 82.6758 88.7172 82.4996 88.6897C82.3233 88.6622 82.121 88.6484 81.8928 88.6484C81.6605 88.6484 81.4404 88.6734 81.2326 88.7233C81.0247 88.7732 80.8418 88.8511 80.6839 88.957C80.5259 89.063 80.4011 89.1979 80.3094 89.3619C80.2177 89.5259 80.1719 89.7219 80.1719 89.9501C80.1719 90.2413 80.2559 90.4899 80.4241 90.6956C80.5922 90.9013 80.8474 91.0755 81.1898 91.2181C81.3243 91.2731 81.4496 91.3271 81.5657 91.38C81.6819 91.433 81.7823 91.488 81.8668 91.545C81.9514 91.6021 82.0181 91.6642 82.0671 91.7314C82.116 91.7986 82.1404 91.875 82.1404 91.9606C82.1404 92.0237 82.1251 92.0823 82.0946 92.1362C82.064 92.1902 82.0176 92.2371 81.9555 92.2768C81.8933 92.3165 81.8159 92.3476 81.7232 92.37C81.6304 92.3924 81.5219 92.4036 81.3976 92.4036C81.1857 92.4036 80.9758 92.3664 80.7679 92.2921C80.5601 92.2177 80.3675 92.1062 80.1902 91.9575ZM78.5465 89.5485H79.8008V88.7461H76.3047V89.5485H77.5529V93.1211H78.5465V89.5485Z" fill="white"/>
</g>
<g clip-path="url(#clip3_555_4)">
<path d="M87.3533 113.072L87.4121 112.987L90.1968 107.553L90.2027 107.496L88.9752 105.124C88.8723 104.926 88.5828 104.976 88.549 105.198L87.3533 113.072Z" fill="#FFC24A"/>
<path d="M87.3879 113.007L87.4325 112.918L90.188 107.541L88.9635 105.16C88.8617 104.963 88.6033 105.014 88.5699 105.234L87.3879 113.007Z" fill="#FFA712"/>
<g filter="url(#filter0_i_555_4)">
<path d="M87.3879 113.007L87.4325 112.918L90.188 107.541L88.9635 105.16C88.8617 104.963 88.6033 105.014 88.5699 105.234L87.3879 113.007Z" fill="#B19D2B"/>
</g>
<path d="M91.0976 109.289L92.0116 108.326L91.0973 106.531C91.0105 106.362 90.7682 106.361 90.6823 106.531L90.1938 107.489V107.571L91.0976 109.289Z" fill="#F4BD62"/>
<path d="M91.0812 109.249L91.9698 108.313L91.0812 106.573C90.9968 106.408 90.7918 106.391 90.7084 106.556L90.2173 107.529L90.2026 107.579L91.0812 109.249Z" fill="#FFA50E"/>
<g filter="url(#filter1_i_555_4)">
<path d="M91.0812 109.249L91.9698 108.313L91.0812 106.573C90.9968 106.408 90.7918 106.391 90.7084 106.556L90.2173 107.529L90.2026 107.579L91.0812 109.249Z" fill="#B19D2B"/>
</g>
<path d="M87.3533 113.072L87.38 113.044L87.4769 113.004L91.0402 109.353L91.0853 109.226L90.1964 107.484L87.3533 113.072Z" fill="#F6820C"/>
<path d="M91.2117 114.913L94.4366 113.063L93.5157 107.231C93.4869 107.048 93.2692 106.976 93.1422 107.107L87.3533 113.072L90.5596 114.913C90.7623 115.029 91.0091 115.029 91.2117 114.913Z" fill="#FDE068"/>
<path d="M94.4076 113.048L93.4937 107.259C93.4651 107.078 93.2841 107.003 93.158 107.133L87.3889 113.06L90.5601 114.883C90.7612 114.999 91.0061 114.999 91.2072 114.883L94.4076 113.048Z" fill="#FCCA3F"/>
<path d="M91.2117 114.858C91.0091 114.974 90.7623 114.974 90.5596 114.858L87.3791 113.043L87.3533 113.072L90.5596 114.913C90.7623 115.029 91.0091 115.029 91.2117 114.913L94.4366 113.063L94.4287 113.013L91.2117 114.858Z" fill="#EEAB37"/>
</g>
<path d="M99.432 107C99.432 107.185 99.2651 107.381 99.0002 107.381C98.7352 107.381 98.5684 107.185 98.5684 107C98.5684 106.815 98.7352 106.618 99.0002 106.618C99.2651 106.618 99.432 106.815 99.432 107Z" fill="#3178C6" stroke="#3178C6"/>
<path d="M99 108.806C101.761 108.806 104 107.998 104 107C104 106.003 101.761 105.194 99 105.194C96.2386 105.194 94 106.003 94 107C94 107.998 96.2386 108.806 99 108.806Z" stroke="#3178C6" stroke-width="0.5"/>
<path d="M97.3467 107.903C98.7274 110.166 100.587 111.596 101.5 111.097C102.413 110.598 102.034 108.359 100.653 106.097C99.2726 103.834 97.4131 102.404 96.5 102.903C95.5869 103.402 95.966 105.64 97.3467 107.903Z" stroke="#3178C6" stroke-width="0.5"/>
<path d="M97.3467 106.097C95.966 108.359 95.5869 110.598 96.5 111.097C97.4131 111.595 99.2726 110.166 100.653 107.903C102.034 105.64 102.413 103.402 101.5 102.903C100.587 102.404 98.7274 103.834 97.3467 106.097Z" stroke="#3178C6" stroke-width="0.5"/>
</g>
</g>
<defs>
<filter id="filter0_i_555_4" x="87.3879" y="105.037" width="2.80005" height="7.96973" filterUnits="userSpaceOnUse" color-interpolation-filters="sRGB">
<feFlood flood-opacity="0" result="BackgroundImageFix"/>
<feBlend mode="normal" in="SourceGraphic" in2="BackgroundImageFix" result="shape"/>
<feColorMatrix in="SourceAlpha" type="matrix" values="0 0 0 0 0 0 0 0 0 0 0 0 0 0 0 0 0 0 127 0" result="hardAlpha"/>
<feOffset/>
<feGaussianBlur stdDeviation="39.886"/>
<feComposite in2="hardAlpha" operator="arithmetic" k2="-1" k3="1"/>
<feColorMatrix type="matrix" values="0 0 0 0 0 0 0 0 0 0 0 0 0 0 0 0 0 0 0.06 0"/>
<feBlend mode="normal" in2="shape" result="effect1_innerShadow_555_4"/>
</filter>
<filter id="filter1_i_555_4" x="90.2026" y="106.44" width="1.76709" height="2.80859" filterUnits="userSpaceOnUse" color-interpolation-filters="sRGB">
<feFlood flood-opacity="0" result="BackgroundImageFix"/>
<feBlend mode="normal" in="SourceGraphic" in2="BackgroundImageFix" result="shape"/>
<feColorMatrix in="SourceAlpha" type="matrix" values="0 0 0 0 0 0 0 0 0 0 0 0 0 0 0 0 0 0 127 0" result="hardAlpha"/>
<feOffset dx="2.2792" dy="-20.5128"/>
<feGaussianBlur stdDeviation="7.97721"/>
<feComposite in2="hardAlpha" operator="arithmetic" k2="-1" k3="1"/>
<feColorMatrix type="matrix" values="0 0 0 0 0 0 0 0 0 0 0 0 0 0 0 0 0 0 0.09 0"/>
<feBlend mode="normal" in2="shape" result="effect1_innerShadow_555_4"/>
</filter>
<linearGradient id="paint0_linear_555_4" x1="100.978" y1="18.7546" x2="113.718" y2="54.403" gradientUnits="userSpaceOnUse">
<stop stop-color="#485BFF"/>
<stop offset="1" stop-color="#FF59F8"/>
</linearGradient>
<linearGradient id="paint1_linear_555_4" x1="100.978" y1="18.7546" x2="113.718" y2="54.403" gradientUnits="userSpaceOnUse">
<stop stop-color="#485BFF"/>
<stop offset="1" stop-color="#FF59F8"/>
</linearGradient>
<linearGradient id="paint2_linear_555_4" x1="100.978" y1="18.7544" x2="113.718" y2="54.4028" gradientUnits="userSpaceOnUse">
<stop stop-color="#485BFF"/>
<stop offset="1" stop-color="#FF59F8"/>
</linearGradient>
<linearGradient id="paint3_linear_555_4" x1="94.135" y1="2" x2="157.308" y2="79.4987" gradientUnits="userSpaceOnUse">
<stop stop-color="#485BFF"/>
<stop offset="1" stop-color="#FF59F8"/>
</linearGradient>
<clipPath id="clip0_555_4">
<rect width="180" height="180" fill="white"/>
</clipPath>
<clipPath id="clip1_555_4">
<rect width="90" height="90" fill="white" transform="translate(42 80)"/>
</clipPath>
<clipPath id="clip2_555_4">
<rect width="10" height="10" fill="white" transform="translate(74 84)"/>
</clipPath>
<clipPath id="clip3_555_4">
<rect width="10" height="10" fill="white" transform="translate(86 105)"/>
</clipPath>
</defs>
</svg>
