<svg width="200" height="200" viewBox="0 0 200 200" fill="none" xmlns="http://www.w3.org/2000/svg">
<g clip-path="url(#clip0_544_34)">
<path d="M200 20.8808V146.435C199.993 151.771 197.87 156.886 194.097 160.658C190.324 164.431 185.21 166.554 179.874 166.561H137.935L140.677 184.398H144.35C146.351 184.398 148.271 185.193 149.686 186.608C151.102 188.024 151.897 189.943 151.897 191.945C151.897 193.947 151.102 195.866 149.686 197.282C148.271 198.697 146.351 199.492 144.35 199.492H55.6453C53.6437 199.492 51.724 198.697 50.3086 197.282C48.8933 195.866 48.0981 193.947 48.0981 191.945C48.0981 189.943 48.8933 188.024 50.3086 186.608C51.724 185.193 53.6437 184.398 55.6453 184.398H59.3182L62.0604 166.561H20.1258C14.7901 166.555 9.67494 164.432 5.90206 160.659C2.12919 156.886 0.00665708 151.771 0 146.435V20.8758C0.00665708 15.5401 2.12919 10.4249 5.90206 6.65198C9.67494 2.87911 14.7901 0.756657 20.1258 0.75H179.874C185.211 0.757324 190.326 2.8807 194.099 6.65452C197.872 10.4283 199.994 15.5445 200 20.8808ZM184.906 146.441V126.036H15.0943V146.435C15.1107 147.765 15.646 149.035 16.5861 149.975C17.5261 150.915 18.7964 151.451 20.1258 151.467H179.874C181.203 151.45 182.473 150.914 183.413 149.975C184.353 149.035 184.889 147.765 184.906 146.435V146.441ZM184.906 110.941V20.8782C184.889 19.5491 184.353 18.2791 183.413 17.3392C182.473 16.3993 181.203 15.8637 179.874 15.8468H20.1258C18.7962 15.8625 17.5255 16.3976 16.5853 17.3378C15.6451 18.278 15.11 19.5487 15.0943 20.8782V110.941H46.6893L36.1987 107.799C34.6405 107.332 33.2748 106.374 32.3051 105.068C31.3355 103.762 30.8137 102.178 30.8176 100.551V83.4443C30.8183 81.819 31.3418 80.2372 32.3109 78.9324C33.2799 77.6277 34.643 76.6693 36.1987 76.1991L50.0604 72.0456C50.2138 71.6179 50.3874 71.2179 50.5887 70.7877L43.7207 58.0355C42.9502 56.6083 42.6612 54.9703 42.897 53.3656C43.1327 51.7609 43.8805 50.2752 45.0289 49.1298L57.1321 37.0267C58.2774 35.8782 59.7631 35.1305 61.3678 34.8948C62.9726 34.659 64.6105 34.948 66.0377 35.7185L78.7899 42.5864C79.2176 42.3877 79.6201 42.2367 80.0478 42.0581L84.1987 28.199C84.665 26.6407 85.6222 25.2748 86.9278 24.3047C88.2334 23.3345 89.8175 22.8122 91.444 22.8154H108.551C110.177 22.8122 111.762 23.3345 113.067 24.3047C114.373 25.2748 115.33 26.6407 115.796 28.199L119.947 42.0581C120.375 42.2367 120.777 42.3877 121.205 42.5864L133.962 35.7185C135.39 34.9518 137.027 34.665 138.63 34.9006C140.234 35.1362 141.719 35.8816 142.865 37.0267L154.966 49.155C156.116 50.2993 156.865 51.785 157.101 53.3903C157.337 54.9955 157.047 56.6339 156.274 58.0606L149.431 70.8154C149.608 71.2179 149.784 71.6431 149.935 72.0456L163.796 76.1991C165.352 76.6692 166.716 77.6273 167.686 78.932C168.656 80.2366 169.181 81.8186 169.182 83.4443V100.551C169.184 102.178 168.661 103.762 167.69 105.068C166.72 106.373 165.354 107.331 163.796 107.799L153.308 110.941H184.906ZM154.088 94.9411V89.0569L141.96 85.4065C140.775 85.0639 139.695 84.4313 138.816 83.566C137.938 82.7006 137.289 81.6299 136.928 80.4506C136.239 78.2548 135.355 76.1247 134.287 74.0858C133.708 72.9965 133.408 71.7813 133.412 70.548C133.417 69.3148 133.726 68.1017 134.312 67.0166L140.325 55.8468L136.148 51.6732L124.979 57.6833C123.894 58.2705 122.681 58.5801 121.447 58.5845C120.214 58.5888 118.998 58.2879 117.909 57.7085C115.866 56.6516 113.737 55.7687 111.545 55.0694C110.366 54.7081 109.296 54.059 108.43 53.1806C107.565 52.3022 106.932 51.2221 106.589 50.038L102.941 37.9122H97.0541L93.4063 50.038C93.0576 51.2235 92.4199 52.3039 91.5505 53.1821C90.6811 54.0603 89.6072 54.7089 88.4252 55.0694C86.2384 55.7713 84.1172 56.6627 82.0855 57.7336C80.9882 58.3033 79.7685 58.5964 78.5321 58.5877C77.2958 58.5789 76.0803 58.2685 74.9912 57.6833L63.8214 51.6732L59.6704 55.8468L65.683 66.9939C66.2692 68.0831 66.5781 69.2999 66.5825 70.5368C66.5869 71.7736 66.2866 72.9925 65.7082 74.0858C64.6414 76.1252 63.7574 78.2552 63.0667 80.4506C62.6991 81.6262 62.0478 82.6931 61.1704 83.5574C60.2929 84.4217 59.2162 85.0568 58.0352 85.4065L45.9094 89.0569V94.9411L58.0327 98.589C59.215 98.9447 60.292 99.5851 61.1693 100.454C62.0465 101.323 62.6971 102.394 63.0642 103.573C63.7634 105.748 64.6471 107.86 65.7057 109.885C65.8728 110.223 66.0075 110.577 66.1082 110.941H80.2465C76.5228 107.068 74.0199 102.186 73.0494 96.9016C72.0789 91.6173 72.6836 86.1644 74.7882 81.2211C76.8929 76.2778 80.4046 72.0624 84.8864 69.0994C89.3682 66.1364 94.6223 64.5567 99.995 64.5567C105.368 64.5567 110.622 66.1364 115.104 69.0994C119.585 72.0624 123.097 76.2778 125.202 81.2211C127.306 86.1644 127.911 91.6173 126.941 96.9016C125.97 102.186 123.467 107.068 119.743 110.941H133.859C133.982 110.591 134.111 110.264 134.259 109.91C135.331 107.879 136.223 105.759 136.926 103.573C137.286 102.39 137.934 101.315 138.812 100.445C139.69 99.5754 140.771 98.9375 141.957 98.589L154.088 94.9411ZM125.409 184.403L122.639 166.561H77.3308L74.5887 184.398L125.409 184.403ZM112.302 92.0002C112.302 89.5671 111.58 87.1885 110.228 85.1655C108.877 83.1424 106.955 81.5656 104.707 80.6346C102.459 79.7035 99.9855 79.4601 97.5991 79.9349C95.2127 80.4098 93.0207 81.5817 91.3004 83.3024C89.58 85.0231 88.4086 87.2153 87.9342 89.6018C87.4598 91.9883 87.7038 94.4619 88.6353 96.7098C89.5667 98.9576 91.1439 100.879 93.1673 102.23C95.1906 103.582 97.5693 104.303 100.003 104.302C103.262 104.294 106.386 102.995 108.691 100.69C110.995 98.3844 112.295 95.26 112.302 92.0002Z" fill="white"/>
<path d="M105.331 133.283C106.387 134.338 107.107 135.683 107.399 137.147C107.691 138.611 107.542 140.129 106.971 141.509C106.4 142.889 105.433 144.068 104.191 144.898C102.95 145.727 101.49 146.17 99.9974 146.17C98.5043 146.17 97.0447 145.727 95.8034 144.898C94.5621 144.068 93.5948 142.889 93.0238 141.509C92.4528 140.129 92.3039 138.611 92.5959 137.147C92.8879 135.683 93.6076 134.338 94.664 133.283C95.3705 132.598 96.206 132.061 97.122 131.702C98.0381 131.343 99.0163 131.17 99.9999 131.192C101.983 131.156 103.9 131.908 105.331 133.283Z" fill="white"/>
<path fill-rule="evenodd" clip-rule="evenodd" d="M161.46 20.2973C161.46 19.5808 162.041 19 162.757 19H171.307C175.004 19 178 21.9965 178 25.6928V34.243C178 34.9594 177.419 35.5403 176.703 35.5403H173.314V32.9457H175.405V25.6928C175.405 23.4294 173.571 21.5946 171.307 21.5946H164.054V34.243C164.054 34.9594 163.473 35.5403 162.757 35.5403C162.041 35.5403 161.46 34.9594 161.46 34.243V20.2973Z" fill="#939393"/>
<path fill-rule="evenodd" clip-rule="evenodd" d="M170.54 41.7025C170.54 42.4189 169.959 42.9998 169.243 42.9998H160.693C156.996 42.9998 154 40.0033 154 36.307L154 27.7568C154 27.0403 154.581 26.4595 155.297 26.4595H158.686V29.054H156.595V36.307C156.595 38.5703 158.429 40.4052 160.693 40.4052H167.946V27.7568C167.946 27.0403 168.527 26.4595 169.243 26.4595C169.959 26.4595 170.54 27.0403 170.54 27.7568V41.7025Z" fill="#939393"/>
<path d="M23.0598 44.1878L23.2412 43.9338L31.8228 27.6506L31.841 27.4782L28.058 20.3725C27.7411 19.7773 26.8488 19.9278 26.7448 20.5941L23.0598 44.1878Z" fill="#FFC24A"/>
<path d="M23.167 43.9943L23.3042 43.7267L31.7959 27.6141L28.0224 20.4794C27.7088 19.8904 26.9124 20.0406 26.8095 20.6999L23.167 43.9943Z" fill="#FFA712"/>
<g filter="url(#filter0_i_544_34)">
<path d="M23.167 43.9943L23.3042 43.7267L31.7959 27.6141L28.0224 20.4794C27.7088 19.8904 26.9124 20.0406 26.8095 20.6999L23.167 43.9943Z" fill="#B19D2B"/>
</g>
<path d="M34.5987 32.8533L37.4154 29.9686L34.5979 24.5899C34.3304 24.0808 33.5836 24.0793 33.319 24.5899L31.8137 27.4608V27.7053L34.5987 32.8533Z" fill="#F4BD62"/>
<path d="M34.5486 32.7326L37.2869 29.9282L34.5486 24.7139C34.2885 24.2189 33.6568 24.1671 33.3996 24.6635L31.8863 27.5788L31.8411 27.7278L34.5486 32.7326Z" fill="#FFA50E"/>
<g filter="url(#filter1_i_544_34)">
<path d="M34.5486 32.7326L37.2869 29.9282L34.5486 24.7139C34.2885 24.2189 33.6568 24.1671 33.3996 24.6635L31.8863 27.5788L31.8411 27.7278L34.5486 32.7326Z" fill="#B19D2B"/>
</g>
<path d="M23.0598 44.1878L23.142 44.1051L23.4408 43.9837L34.4218 33.0435L34.5609 32.6648L31.8216 27.4448L23.0598 44.1878Z" fill="#F6820C"/>
<path d="M34.9505 49.7054L44.8885 44.1629L42.0505 26.6848C41.9618 26.1379 41.2909 25.9217 40.8995 26.3138L23.0598 44.1881L32.9409 49.705C33.5653 50.0536 34.3258 50.0538 34.9505 49.7054Z" fill="#FDE068"/>
<path d="M44.7994 44.1161L41.983 26.7707C41.8949 26.228 41.337 26.0034 40.9485 26.3925L23.1699 44.1538L32.9424 49.6161C33.5622 49.9621 34.3169 49.9623 34.9368 49.6166L44.7994 44.1161Z" fill="#FCCA3F"/>
<path d="M34.9505 49.5422C34.3258 49.8905 33.5653 49.8903 32.9409 49.5417L23.1394 44.104L23.0598 44.1881L32.9409 49.705C33.5653 50.0536 34.3258 50.0538 34.9505 49.7054L44.8885 44.1629L44.8642 44.0132L34.9505 49.5422Z" fill="#EEAB37"/>
<g clip-path="url(#clip1_544_34)">
<path fill-rule="evenodd" clip-rule="evenodd" d="M176.924 47.4973C177.317 47.8898 177.763 48.3343 177.763 48.3343C177.763 48.3343 179.598 48.4707 179.684 48.4782C179.772 48.4857 179.877 48.5525 179.893 48.6732C179.91 48.794 182.5 66.3958 182.5 66.3958L176.144 67.7775L176.924 47.4973ZM175.948 46.8306C175.9 46.8369 175.858 46.8465 175.828 46.8553C175.812 46.8598 175.55 46.9415 175.115 47.0765C174.689 45.845 173.937 44.7133 172.615 44.7133C172.579 44.7133 172.541 44.7148 172.503 44.717C172.127 44.2175 171.662 44 171.259 44C168.179 44 166.708 47.87 166.246 49.8358C165.049 50.2085 164.199 50.4733 164.091 50.5078C163.422 50.7185 163.402 50.7395 163.314 51.3718C163.248 51.851 161.5 65.4358 161.5 65.4358L175.12 68L175.134 67.9969L175.948 46.8306ZM172.403 47.786C172.403 47.8333 172.402 47.8768 172.402 47.9203C171.652 48.1535 170.838 48.407 170.021 48.6613C170.479 46.8838 171.338 46.025 172.09 45.701C172.279 46.178 172.403 46.8628 172.403 47.786ZM171.174 44.8303C171.308 44.8303 171.441 44.876 171.57 44.9645C170.582 45.431 169.525 46.607 169.078 48.9545C168.425 49.1577 167.787 49.3565 167.196 49.5403C167.72 47.7493 168.962 44.8303 171.174 44.8303ZM171.705 55.2965C171.705 55.2965 170.908 54.869 169.931 54.869C168.498 54.869 168.426 55.7728 168.426 56C168.426 57.2428 171.648 57.719 171.648 60.629C171.648 62.918 170.203 64.3925 168.255 64.3925C165.917 64.3925 164.721 62.93 164.721 62.93L165.347 60.8517C165.347 60.8517 166.576 61.9123 167.614 61.9123C168.291 61.9123 168.567 61.376 168.567 60.9845C168.567 59.3637 165.923 59.291 165.923 56.6277C165.923 54.3867 167.523 52.2177 170.755 52.2177C172 52.2177 172.615 52.5763 172.615 52.5763L171.705 55.2965ZM173.209 47.669C173.209 47.5873 173.21 47.507 173.21 47.4193C173.21 46.6543 173.104 46.0377 172.935 45.5495C173.616 45.635 174.07 46.4142 174.362 47.3105C174.02 47.417 173.631 47.5378 173.209 47.669Z" fill="#81BF37"/>
</g>
</g>
<defs>
<filter id="filter0_i_544_34" x="23.167" y="20.1113" width="8.62891" height="23.8828" filterUnits="userSpaceOnUse" color-interpolation-filters="sRGB">
<feFlood flood-opacity="0" result="BackgroundImageFix"/>
<feBlend mode="normal" in="SourceGraphic" in2="BackgroundImageFix" result="shape"/>
<feColorMatrix in="SourceAlpha" type="matrix" values="0 0 0 0 0 0 0 0 0 0 0 0 0 0 0 0 0 0 127 0" result="hardAlpha"/>
<feOffset/>
<feGaussianBlur stdDeviation="39.886"/>
<feComposite in2="hardAlpha" operator="arithmetic" k2="-1" k3="1"/>
<feColorMatrix type="matrix" values="0 0 0 0 0 0 0 0 0 0 0 0 0 0 0 0 0 0 0.06 0"/>
<feBlend mode="normal" in2="shape" result="effect1_innerShadow_544_34"/>
</filter>
<filter id="filter1_i_544_34" x="31.8411" y="8.3615" width="7.725" height="24.3709" filterUnits="userSpaceOnUse" color-interpolation-filters="sRGB">
<feFlood flood-opacity="0" result="BackgroundImageFix"/>
<feBlend mode="normal" in="SourceGraphic" in2="BackgroundImageFix" result="shape"/>
<feColorMatrix in="SourceAlpha" type="matrix" values="0 0 0 0 0 0 0 0 0 0 0 0 0 0 0 0 0 0 127 0" result="hardAlpha"/>
<feOffset dx="2.2792" dy="-20.5128"/>
<feGaussianBlur stdDeviation="7.97721"/>
<feComposite in2="hardAlpha" operator="arithmetic" k2="-1" k3="1"/>
<feColorMatrix type="matrix" values="0 0 0 0 0 0 0 0 0 0 0 0 0 0 0 0 0 0 0.09 0"/>
<feBlend mode="normal" in2="shape" result="effect1_innerShadow_544_34"/>
</filter>
<clipPath id="clip0_544_34">
<rect width="200" height="200" fill="white"/>
</clipPath>
<clipPath id="clip1_544_34">
<rect width="24" height="24" fill="white" transform="translate(160 44)"/>
</clipPath>
</defs>
</svg>
