<svg width="200" height="200" viewBox="0 0 200 200" fill="none" xmlns="http://www.w3.org/2000/svg">
<g clip-path="url(#clip0_544_34)">
<path d="M200 20.8808V146.435C199.993 151.771 197.87 156.886 194.097 160.658C190.324 164.431 185.21 166.554 179.874 166.561H137.935L140.677 184.398H144.35C146.351 184.398 148.271 185.193 149.686 186.608C151.102 188.024 151.897 189.943 151.897 191.945C151.897 193.947 151.102 195.866 149.686 197.282C148.271 198.697 146.351 199.492 144.35 199.492H55.6453C53.6437 199.492 51.724 198.697 50.3086 197.282C48.8933 195.866 48.0981 193.947 48.0981 191.945C48.0981 189.943 48.8933 188.024 50.3086 186.608C51.724 185.193 53.6437 184.398 55.6453 184.398H59.3182L62.0604 166.561H20.1258C14.7901 166.555 9.67494 164.432 5.90206 160.659C2.12919 156.886 0.00665708 151.771 0 146.435V20.8758C0.00665708 15.5401 2.12919 10.4249 5.90206 6.65198C9.67494 2.87911 14.7901 0.756657 20.1258 0.75H179.874C185.211 0.757324 190.326 2.8807 194.099 6.65452C197.872 10.4283 199.994 15.5445 200 20.8808ZM184.906 146.441V126.036H15.0943V146.435C15.1107 147.765 15.646 149.035 16.5861 149.975C17.5261 150.915 18.7964 151.451 20.1258 151.467H179.874C181.203 151.45 182.473 150.914 183.413 149.975C184.353 149.035 184.889 147.765 184.906 146.435V146.441ZM184.906 110.941V20.8782C184.889 19.5491 184.353 18.2791 183.413 17.3392C182.473 16.3993 181.203 15.8637 179.874 15.8468H20.1258C18.7962 15.8625 17.5255 16.3976 16.5853 17.3378C15.6451 18.278 15.11 19.5487 15.0943 20.8782V110.941H46.6893L36.1987 107.799C34.6405 107.332 33.2748 106.374 32.3051 105.068C31.3355 103.762 30.8137 102.178 30.8176 100.551V83.4443C30.8183 81.819 31.3418 80.2372 32.3109 78.9324C33.2799 77.6277 34.643 76.6693 36.1987 76.1991L50.0604 72.0456C50.2138 71.6179 50.3874 71.2179 50.5887 70.7877L43.7207 58.0355C42.9502 56.6083 42.6612 54.9703 42.897 53.3656C43.1327 51.7609 43.8805 50.2752 45.0289 49.1298L57.1321 37.0267C58.2774 35.8782 59.7631 35.1305 61.3678 34.8948C62.9726 34.659 64.6105 34.948 66.0377 35.7185L78.7899 42.5864C79.2176 42.3877 79.6201 42.2367 80.0478 42.0581L84.1987 28.199C84.665 26.6407 85.6222 25.2748 86.9278 24.3047C88.2334 23.3345 89.8175 22.8122 91.444 22.8154H108.551C110.177 22.8122 111.762 23.3345 113.067 24.3047C114.373 25.2748 115.33 26.6407 115.796 28.199L119.947 42.0581C120.375 42.2367 120.777 42.3877 121.205 42.5864L133.962 35.7185C135.39 34.9518 137.027 34.665 138.63 34.9006C140.234 35.1362 141.719 35.8816 142.865 37.0267L154.966 49.155C156.116 50.2993 156.865 51.785 157.101 53.3903C157.337 54.9955 157.047 56.6339 156.274 58.0606L149.431 70.8154C149.608 71.2179 149.784 71.6431 149.935 72.0456L163.796 76.1991C165.352 76.6692 166.716 77.6273 167.686 78.932C168.656 80.2366 169.181 81.8186 169.182 83.4443V100.551C169.184 102.178 168.661 103.762 167.69 105.068C166.72 106.373 165.354 107.331 163.796 107.799L153.308 110.941H184.906ZM154.088 94.9411V89.0569L141.96 85.4065C140.775 85.0639 139.695 84.4313 138.816 83.566C137.938 82.7006 137.289 81.6299 136.928 80.4506C136.239 78.2548 135.355 76.1247 134.287 74.0858C133.708 72.9965 133.408 71.7813 133.412 70.548C133.417 69.3148 133.726 68.1017 134.312 67.0166L140.325 55.8468L136.148 51.6732L124.979 57.6833C123.894 58.2705 122.681 58.5801 121.447 58.5845C120.214 58.5888 118.998 58.2879 117.909 57.7085C115.866 56.6516 113.737 55.7687 111.545 55.0694C110.366 54.7081 109.296 54.059 108.43 53.1806C107.565 52.3022 106.932 51.2221 106.589 50.038L102.941 37.9122H97.0541L93.4063 50.038C93.0576 51.2235 92.4199 52.3039 91.5505 53.1821C90.6811 54.0603 89.6071 54.7089 88.4252 55.0694C86.2384 55.7713 84.1172 56.6627 82.0855 57.7336C80.9882 58.3033 79.7685 58.5965 78.5321 58.5877C77.2958 58.5789 76.0803 58.2685 74.9912 57.6833L63.8214 51.6732L59.6704 55.8468L65.683 66.9939C66.2692 68.0831 66.5781 69.2999 66.5825 70.5368C66.5869 71.7736 66.2866 72.9925 65.7082 74.0858C64.6414 76.1252 63.7574 78.2552 63.0667 80.4506C62.6991 81.6262 62.0478 82.6931 61.1704 83.5574C60.2929 84.4217 59.2162 85.0568 58.0352 85.4065L45.9094 89.0569V94.9411L58.0327 98.589C59.215 98.9447 60.292 99.5851 61.1693 100.454C62.0465 101.323 62.6971 102.394 63.0642 103.573C63.7634 105.748 64.6471 107.86 65.7057 109.885C65.8728 110.223 66.0075 110.577 66.1082 110.941H80.2465C76.5228 107.068 74.0199 102.186 73.0494 96.9016C72.0789 91.6173 72.6836 86.1644 74.7882 81.2211C76.8929 76.2777 80.4046 72.0623 84.8864 69.0994C89.3682 66.1364 94.6223 64.5567 99.995 64.5567C105.368 64.5567 110.622 66.1364 115.104 69.0994C119.585 72.0623 123.097 76.2777 125.202 81.2211C127.306 86.1644 127.911 91.6173 126.941 96.9016C125.97 102.186 123.467 107.068 119.743 110.941H133.859C133.982 110.591 134.111 110.264 134.259 109.91C135.331 107.879 136.223 105.759 136.926 103.573C137.286 102.39 137.934 101.315 138.812 100.445C139.69 99.5754 140.771 98.9375 141.957 98.589L154.088 94.9411ZM125.409 184.403L122.639 166.561H77.3308L74.5887 184.398L125.409 184.403ZM112.302 92.0002C112.302 89.5671 111.58 87.1885 110.228 85.1655C108.877 83.1424 106.955 81.5656 104.707 80.6346C102.459 79.7035 99.9855 79.4601 97.5991 79.9349C95.2127 80.4098 93.0207 81.5817 91.3004 83.3024C89.58 85.0231 88.4086 87.2153 87.9342 89.6018C87.4598 91.9883 87.7038 94.4619 88.6353 96.7098C89.5667 98.9576 91.1439 100.879 93.1673 102.23C95.1906 103.582 97.5693 104.303 100.003 104.302C103.262 104.294 106.386 102.995 108.691 100.69C110.995 98.3844 112.295 95.26 112.302 92.0002Z" fill="white"/>
<path d="M150.248 146.35L150.393 146.147L157.258 133.12L157.273 132.983L154.246 127.298C153.993 126.822 153.279 126.942 153.196 127.475L150.248 146.35Z" fill="#FFC24A"/>
<path d="M150.333 146.195L150.443 145.981L157.237 133.091L154.218 127.383C153.967 126.912 153.33 127.032 153.247 127.56L150.333 146.195Z" fill="#FFA712"/>
<g filter="url(#filter0_i_544_34)">
<path d="M150.333 146.195L150.443 145.981L157.237 133.091L154.218 127.383C153.967 126.912 153.33 127.032 153.247 127.56L150.333 146.195Z" fill="#B19D2B"/>
</g>
<path d="M159.479 137.282L161.732 134.975L159.478 130.672C159.264 130.264 158.667 130.263 158.455 130.672L157.251 132.968V133.164L159.479 137.282Z" fill="#F4BD62"/>
<path d="M159.439 137.187L161.629 134.943L159.439 130.771C159.231 130.376 158.725 130.334 158.52 130.731L157.309 133.063L157.273 133.183L159.439 137.187Z" fill="#FFA50E"/>
<g filter="url(#filter1_i_544_34)">
<path d="M159.439 137.187L161.629 134.943L159.439 130.771C159.231 130.376 158.725 130.334 158.52 130.731L157.309 133.063L157.273 133.183L159.439 137.187Z" fill="#B19D2B"/>
</g>
<path d="M150.248 146.35L150.314 146.284L150.553 146.187L159.337 137.435L159.449 137.132L157.257 132.956L150.248 146.35Z" fill="#F6820C"/>
<path d="M159.76 150.764L167.711 146.33L165.44 132.347C165.369 131.91 164.833 131.737 164.52 132.051L150.248 146.35L158.153 150.764C158.652 151.043 159.261 151.043 159.76 150.764Z" fill="#FDE068"/>
<path d="M167.64 146.293L165.386 132.417C165.316 131.982 164.87 131.803 164.559 132.114L150.336 146.323L158.154 150.693C158.65 150.97 159.254 150.97 159.749 150.693L167.64 146.293Z" fill="#FCCA3F"/>
<path d="M159.76 150.634C159.261 150.912 158.652 150.912 158.153 150.633L150.311 146.283L150.248 146.35L158.153 150.764C158.652 151.043 159.261 151.043 159.76 150.764L167.711 146.33L167.691 146.21L159.76 150.634Z" fill="#EEAB37"/>
<g clip-path="url(#clip1_544_34)">
<path d="M109.656 127H90.3438C89.0493 127 88 128.049 88 129.344V148.656C88 149.951 89.0493 151 90.3438 151H109.656C110.951 151 112 149.951 112 148.656V129.344C112 128.049 110.951 127 109.656 127Z" fill="#3178C6"/>
<path d="M109.656 127H90.3438C89.0493 127 88 128.049 88 129.344V148.656C88 149.951 89.0493 151 90.3438 151H109.656C110.951 151 112 149.951 112 148.656V129.344C112 128.049 110.951 127 109.656 127Z" fill="#3178C6"/>
<path fill-rule="evenodd" clip-rule="evenodd" d="M102.857 146.098V148.445C103.238 148.64 103.689 148.787 104.21 148.885C104.731 148.982 105.28 149.031 105.857 149.031C106.419 149.031 106.954 148.977 107.46 148.87C107.966 148.762 108.41 148.585 108.791 148.338C109.173 148.091 109.475 147.769 109.697 147.37C109.92 146.972 110.031 146.479 110.031 145.893C110.031 145.467 109.968 145.095 109.841 144.774C109.713 144.454 109.53 144.169 109.29 143.92C109.051 143.671 108.763 143.447 108.428 143.249C108.093 143.051 107.715 142.864 107.295 142.688C106.987 142.561 106.71 142.438 106.466 142.318C106.221 142.198 106.013 142.076 105.842 141.951C105.671 141.826 105.539 141.694 105.446 141.555C105.353 141.416 105.307 141.258 105.307 141.082C105.307 140.921 105.348 140.775 105.432 140.646C105.515 140.516 105.632 140.405 105.784 140.312C105.935 140.219 106.121 140.147 106.341 140.096C106.561 140.045 106.806 140.019 107.075 140.019C107.27 140.019 107.477 140.034 107.695 140.063C107.912 140.092 108.131 140.137 108.351 140.198C108.571 140.26 108.785 140.337 108.993 140.43C109.201 140.522 109.393 140.63 109.569 140.752V138.56C109.212 138.423 108.822 138.321 108.399 138.255C107.976 138.189 107.49 138.156 106.943 138.156C106.385 138.156 105.857 138.216 105.358 138.336C104.859 138.456 104.42 138.643 104.041 138.897C103.662 139.151 103.363 139.475 103.143 139.869C102.923 140.262 102.812 140.733 102.812 141.28C102.812 141.979 103.014 142.576 103.418 143.069C103.821 143.563 104.434 143.981 105.255 144.323C105.578 144.455 105.879 144.585 106.158 144.712C106.437 144.839 106.677 144.971 106.88 145.108C107.083 145.245 107.243 145.394 107.361 145.555C107.478 145.717 107.537 145.9 107.537 146.105C107.537 146.257 107.5 146.397 107.427 146.527C107.354 146.657 107.242 146.769 107.093 146.864C106.944 146.96 106.758 147.034 106.536 147.088C106.313 147.142 106.053 147.169 105.754 147.169C105.246 147.169 104.742 147.079 104.243 146.901C103.744 146.723 103.282 146.455 102.857 146.098ZM98.9116 140.316H101.922V138.391H93.5312V140.316H96.5268V148.891H98.9116V140.316Z" fill="white"/>
</g>
<path d="M42.6446 151C42.3233 151 42.0042 150.916 41.7226 150.753L38.7878 149.015C38.3495 148.77 38.5634 148.683 38.7079 148.633C39.2924 148.429 39.411 148.382 40.0348 148.028C40.1004 147.991 40.1862 148.004 40.2533 148.043L42.5079 149.382C42.5893 149.426 42.7049 149.426 42.7803 149.382L51.5712 144.305C51.6527 144.259 51.7055 144.165 51.7055 144.068V133.919C51.7055 133.818 51.6527 133.728 51.5695 133.677L42.7821 128.605C42.7007 128.557 42.5929 128.557 42.5114 128.605L33.7258 133.677C33.6407 133.726 33.5865 133.82 33.5865 133.917V144.065C33.5865 144.162 33.6394 144.255 33.723 144.301L36.1303 145.692C37.4374 146.346 38.2361 145.576 38.2361 144.801V134.785C38.2361 134.641 38.3484 134.531 38.4914 134.531H39.6048C39.7435 134.531 39.8579 134.641 39.8579 134.785V144.805C39.8579 146.549 38.9073 147.55 37.2547 147.55C36.7464 147.55 36.3459 147.55 35.2281 147L32.922 145.67C32.3521 145.34 32 144.724 32 144.065V133.917C32 133.257 32.3521 132.64 32.922 132.315L41.7217 127.236C42.2784 126.921 43.0178 126.921 43.5701 127.236L52.3588 132.317C52.9265 132.645 53.2808 133.259 53.2808 133.919V144.068C53.2808 144.726 52.9265 145.34 52.3588 145.67L43.5701 150.749C43.2884 150.912 42.9694 150.995 42.6437 150.995" fill="#689F63"/>
<path d="M45.3599 144.008C41.5135 144.008 40.707 142.241 40.707 140.76C40.707 140.619 40.8206 140.507 40.9616 140.507H42.0971C42.2225 140.507 42.3281 140.598 42.3479 140.722C42.5196 141.879 43.0301 142.463 45.356 142.463C47.2088 142.463 47.9965 142.044 47.9965 141.061C47.9965 140.496 47.7721 140.075 44.8939 139.793C42.4866 139.556 40.999 139.025 40.999 137.099C40.999 135.325 42.4954 134.268 45.0017 134.268C47.8161 134.268 49.2112 135.245 49.3872 137.346C49.3938 137.418 49.3674 137.489 49.319 137.541C49.2706 137.592 49.2024 137.623 49.132 137.623H47.9899C47.8711 137.623 47.7677 137.539 47.7435 137.425C47.4684 136.207 46.8039 135.818 44.9973 135.818C42.9751 135.818 42.7396 136.522 42.7396 137.051C42.7396 137.691 43.0169 137.878 45.7455 138.239C48.4476 138.598 49.7305 139.104 49.7305 141.004C49.7305 142.919 48.133 144.018 45.3472 144.018" fill="#689F63"/>
</g>
<defs>
<filter id="filter0_i_544_34" x="150.333" y="127.089" width="6.90308" height="19.1064" filterUnits="userSpaceOnUse" color-interpolation-filters="sRGB">
<feFlood flood-opacity="0" result="BackgroundImageFix"/>
<feBlend mode="normal" in="SourceGraphic" in2="BackgroundImageFix" result="shape"/>
<feColorMatrix in="SourceAlpha" type="matrix" values="0 0 0 0 0 0 0 0 0 0 0 0 0 0 0 0 0 0 127 0" result="hardAlpha"/>
<feOffset/>
<feGaussianBlur stdDeviation="39.886"/>
<feComposite in2="hardAlpha" operator="arithmetic" k2="-1" k3="1"/>
<feColorMatrix type="matrix" values="0 0 0 0 0 0 0 0 0 0 0 0 0 0 0 0 0 0 0.06 0"/>
<feBlend mode="normal" in2="shape" result="effect1_innerShadow_544_34"/>
</filter>
<filter id="filter1_i_544_34" x="157.273" y="114.499" width="6.63589" height="22.6878" filterUnits="userSpaceOnUse" color-interpolation-filters="sRGB">
<feFlood flood-opacity="0" result="BackgroundImageFix"/>
<feBlend mode="normal" in="SourceGraphic" in2="BackgroundImageFix" result="shape"/>
<feColorMatrix in="SourceAlpha" type="matrix" values="0 0 0 0 0 0 0 0 0 0 0 0 0 0 0 0 0 0 127 0" result="hardAlpha"/>
<feOffset dx="2.2792" dy="-20.5128"/>
<feGaussianBlur stdDeviation="7.97721"/>
<feComposite in2="hardAlpha" operator="arithmetic" k2="-1" k3="1"/>
<feColorMatrix type="matrix" values="0 0 0 0 0 0 0 0 0 0 0 0 0 0 0 0 0 0 0.09 0"/>
<feBlend mode="normal" in2="shape" result="effect1_innerShadow_544_34"/>
</filter>
<clipPath id="clip0_544_34">
<rect width="200" height="200" fill="white"/>
</clipPath>
<clipPath id="clip1_544_34">
<rect width="24" height="24" fill="white" transform="translate(88 127)"/>
</clipPath>
</defs>
</svg>
