<svg width="200" height="200" viewBox="0 0 200 200" fill="none" xmlns="http://www.w3.org/2000/svg">
<g clip-path="url(#clip0_544_34)">
<path d="M200 20.8808V146.435C199.993 151.771 197.87 156.886 194.097 160.658C190.324 164.431 185.21 166.554 179.874 166.561H137.935L140.677 184.398H144.35C146.351 184.398 148.271 185.193 149.686 186.608C151.102 188.024 151.897 189.943 151.897 191.945C151.897 193.947 151.102 195.866 149.686 197.282C148.271 198.697 146.351 199.492 144.35 199.492H55.6453C53.6437 199.492 51.724 198.697 50.3086 197.282C48.8933 195.866 48.0981 193.947 48.0981 191.945C48.0981 189.943 48.8933 188.024 50.3086 186.608C51.724 185.193 53.6437 184.398 55.6453 184.398H59.3182L62.0604 166.561H20.1258C14.7901 166.555 9.67494 164.432 5.90206 160.659C2.12919 156.886 0.00665708 151.771 0 146.435V20.8758C0.00665708 15.5401 2.12919 10.4249 5.90206 6.65198C9.67494 2.87911 14.7901 0.756657 20.1258 0.75H179.874C185.211 0.757324 190.326 2.8807 194.099 6.65452C197.872 10.4283 199.994 15.5445 200 20.8808ZM184.906 146.441V126.036H15.0943V146.435C15.1107 147.765 15.646 149.035 16.5861 149.975C17.5261 150.915 18.7964 151.451 20.1258 151.467H179.874C181.203 151.45 182.473 150.914 183.413 149.975C184.353 149.035 184.889 147.765 184.906 146.435V146.441ZM184.906 110.941V20.8782C184.889 19.5491 184.353 18.2791 183.413 17.3392C182.473 16.3993 181.203 15.8637 179.874 15.8468H20.1258C18.7962 15.8625 17.5255 16.3976 16.5853 17.3378C15.6451 18.278 15.11 19.5487 15.0943 20.8782V110.941H46.6893L36.1987 107.799C34.6405 107.332 33.2748 106.374 32.3051 105.068C31.3355 103.762 30.8137 102.178 30.8176 100.551V83.4443C30.8183 81.819 31.3418 80.2372 32.3109 78.9324C33.2799 77.6277 34.643 76.6693 36.1987 76.1991L50.0604 72.0456C50.2138 71.6179 50.3874 71.2179 50.5887 70.7877L43.7207 58.0355C42.9502 56.6083 42.6612 54.9703 42.897 53.3656C43.1327 51.7609 43.8805 50.2752 45.0289 49.1298L57.1321 37.0267C58.2774 35.8782 59.7631 35.1305 61.3678 34.8948C62.9726 34.659 64.6105 34.948 66.0377 35.7185L78.7899 42.5864C79.2176 42.3877 79.6201 42.2367 80.0478 42.0581L84.1987 28.199C84.665 26.6407 85.6222 25.2748 86.9278 24.3047C88.2334 23.3345 89.8175 22.8122 91.444 22.8154H108.551C110.177 22.8122 111.762 23.3345 113.067 24.3047C114.373 25.2748 115.33 26.6407 115.796 28.199L119.947 42.0581C120.375 42.2367 120.777 42.3877 121.205 42.5864L133.962 35.7185C135.39 34.9518 137.027 34.665 138.63 34.9006C140.234 35.1362 141.719 35.8816 142.865 37.0267L154.966 49.155C156.116 50.2993 156.865 51.785 157.101 53.3903C157.337 54.9955 157.047 56.6339 156.274 58.0606L149.431 70.8154C149.608 71.2179 149.784 71.6431 149.935 72.0456L163.796 76.1991C165.352 76.6692 166.716 77.6273 167.686 78.932C168.656 80.2366 169.181 81.8186 169.182 83.4443V100.551C169.184 102.178 168.661 103.762 167.69 105.068C166.72 106.373 165.354 107.331 163.796 107.799L153.308 110.941H184.906ZM154.088 94.9411V89.0569L141.96 85.4065C140.775 85.0639 139.695 84.4313 138.816 83.566C137.938 82.7006 137.289 81.6299 136.928 80.4506C136.239 78.2548 135.355 76.1247 134.287 74.0858C133.708 72.9965 133.408 71.7813 133.412 70.548C133.417 69.3148 133.726 68.1017 134.312 67.0166L140.325 55.8468L136.148 51.6732L124.979 57.6833C123.894 58.2705 122.681 58.5801 121.447 58.5845C120.214 58.5888 118.998 58.2879 117.909 57.7085C115.866 56.6516 113.737 55.7687 111.545 55.0694C110.366 54.7081 109.296 54.059 108.43 53.1806C107.565 52.3022 106.932 51.2221 106.589 50.038L102.941 37.9122H97.0541L93.4063 50.038C93.0576 51.2235 92.4199 52.3039 91.5505 53.1821C90.6811 54.0603 89.6071 54.7089 88.4252 55.0694C86.2384 55.7713 84.1172 56.6627 82.0855 57.7336C80.9882 58.3033 79.7685 58.5965 78.5321 58.5877C77.2958 58.5789 76.0803 58.2685 74.9912 57.6833L63.8214 51.6732L59.6704 55.8468L65.683 66.9939C66.2692 68.0831 66.5781 69.2999 66.5825 70.5368C66.5869 71.7736 66.2866 72.9925 65.7082 74.0858C64.6414 76.1252 63.7574 78.2552 63.0667 80.4506C62.6991 81.6262 62.0478 82.6931 61.1704 83.5574C60.2929 84.4217 59.2162 85.0568 58.0352 85.4065L45.9094 89.0569V94.9411L58.0327 98.589C59.215 98.9447 60.292 99.5851 61.1693 100.454C62.0465 101.323 62.6971 102.394 63.0642 103.573C63.7634 105.748 64.6471 107.86 65.7057 109.885C65.8728 110.223 66.0075 110.577 66.1082 110.941H80.2465C76.5228 107.068 74.0199 102.186 73.0494 96.9016C72.0789 91.6173 72.6836 86.1644 74.7882 81.2211C76.8929 76.2777 80.4046 72.0623 84.8864 69.0994C89.3682 66.1364 94.6223 64.5567 99.995 64.5567C105.368 64.5567 110.622 66.1364 115.104 69.0994C119.585 72.0623 123.097 76.2777 125.202 81.2211C127.306 86.1644 127.911 91.6173 126.941 96.9016C125.97 102.186 123.467 107.068 119.743 110.941H133.859C133.982 110.591 134.111 110.264 134.259 109.91C135.331 107.879 136.223 105.759 136.926 103.573C137.286 102.39 137.934 101.315 138.812 100.445C139.69 99.5754 140.771 98.9375 141.957 98.589L154.088 94.9411ZM125.409 184.403L122.639 166.561H77.3308L74.5887 184.398L125.409 184.403ZM112.302 92.0002C112.302 89.5671 111.58 87.1885 110.228 85.1655C108.877 83.1424 106.955 81.5656 104.707 80.6346C102.459 79.7035 99.9855 79.4601 97.5991 79.9349C95.2127 80.4098 93.0207 81.5817 91.3004 83.3024C89.58 85.0231 88.4086 87.2153 87.9342 89.6018C87.4598 91.9883 87.7038 94.4619 88.6353 96.7098C89.5667 98.9576 91.1439 100.879 93.1673 102.23C95.1906 103.582 97.5693 104.303 100.003 104.302C103.262 104.294 106.386 102.995 108.691 100.69C110.995 98.3844 112.295 95.26 112.302 92.0002Z" fill="white"/>
<path fill-rule="evenodd" clip-rule="evenodd" d="M96.2163 130.081C96.2163 129.484 96.7003 129 97.2973 129H104.423C107.503 129 110 131.497 110 134.577V141.703C110 142.3 109.516 142.784 108.919 142.784H106.095V140.621H107.838V134.577C107.838 132.691 106.309 131.162 104.423 131.162H98.3784V141.703C98.3784 142.3 97.8944 142.784 97.2973 142.784C96.7003 142.784 96.2163 142.3 96.2163 141.703V130.081Z" fill="#939393"/>
<path fill-rule="evenodd" clip-rule="evenodd" d="M103.784 147.919C103.784 148.516 103.3 149 102.702 149H95.5773C92.497 149 90 146.503 90 143.423L90 136.297C90 135.7 90.484 135.216 91.0811 135.216H93.9053V137.378H92.1621V143.423C92.1621 145.309 93.6912 146.838 95.5773 146.838H101.621V136.297C101.621 135.7 102.105 135.216 102.702 135.216C103.3 135.216 103.784 135.7 103.784 136.297V147.919Z" fill="#939393"/>
<path d="M37.2478 146.35L37.3929 146.147L44.2582 133.12L44.2727 132.983L41.2464 127.298C40.9928 126.822 40.279 126.942 40.1958 127.475L37.2478 146.35Z" fill="#FFC24A"/>
<path d="M37.3335 146.195L37.4433 145.981L44.2366 133.091L41.2178 127.383C40.9669 126.912 40.3298 127.032 40.2475 127.56L37.3335 146.195Z" fill="#FFA712"/>
<g filter="url(#filter0_i_544_34)">
<path d="M37.3335 146.195L37.4433 145.981L44.2366 133.091L41.2178 127.383C40.967 126.912 40.3298 127.032 40.2475 127.56L37.3335 146.195Z" fill="#B19D2B"/>
</g>
<path d="M46.4789 137.282L48.7323 134.975L46.4783 130.672C46.2643 130.264 45.6669 130.263 45.4552 130.672L44.251 132.968V133.164L46.4789 137.282Z" fill="#F4BD62"/>
<path d="M46.4387 137.187L48.6294 134.943L46.4387 130.771C46.2307 130.376 45.7253 130.334 45.5195 130.731L44.3089 133.063L44.2727 133.183L46.4387 137.187Z" fill="#FFA50E"/>
<g filter="url(#filter1_i_544_34)">
<path d="M46.4387 137.187L48.6294 134.943L46.4387 130.771C46.2307 130.376 45.7253 130.334 45.5195 130.731L44.3089 133.063L44.2727 133.183L46.4387 137.187Z" fill="#B19D2B"/>
</g>
<path d="M37.2478 146.35L37.3136 146.284L37.5526 146.187L46.3374 137.435L46.4487 137.132L44.2572 132.956L37.2478 146.35Z" fill="#F6820C"/>
<path d="M46.7603 150.764L54.7108 146.33L52.4404 132.347C52.3694 131.91 51.8327 131.737 51.5195 132.051L37.2478 146.35L45.1526 150.764C45.6522 151.043 46.2606 151.043 46.7603 150.764Z" fill="#FDE068"/>
<path d="M54.6395 146.293L52.3864 132.417C52.3159 131.982 51.8696 131.803 51.5588 132.114L37.3359 146.323L45.1539 150.693C45.6497 150.97 46.2535 150.97 46.7494 150.693L54.6395 146.293Z" fill="#FCCA3F"/>
<path d="M46.7603 150.634C46.2606 150.912 45.6522 150.912 45.1526 150.633L37.3115 146.283L37.2478 146.35L45.1526 150.764C45.6522 151.043 46.2606 151.043 46.7603 150.764L54.7108 146.33L54.6913 146.21L46.7603 150.634Z" fill="#EEAB37"/>
<g clip-path="url(#clip1_544_34)">
<path fill-rule="evenodd" clip-rule="evenodd" d="M158.924 129.497C159.317 129.89 159.763 130.334 159.763 130.334C159.763 130.334 161.598 130.471 161.684 130.478C161.772 130.486 161.877 130.552 161.893 130.673C161.91 130.794 164.5 148.396 164.5 148.396L158.144 149.777L158.924 129.497ZM157.948 128.831C157.9 128.837 157.858 128.847 157.828 128.855C157.812 128.86 157.55 128.942 157.115 129.077C156.689 127.845 155.937 126.713 154.615 126.713C154.579 126.713 154.541 126.715 154.503 126.717C154.127 126.218 153.662 126 153.259 126C150.179 126 148.708 129.87 148.246 131.836C147.049 132.209 146.199 132.473 146.091 132.508C145.422 132.719 145.402 132.74 145.314 133.372C145.248 133.851 143.5 147.436 143.5 147.436L157.12 150L157.134 149.997L157.948 128.831ZM154.403 129.786C154.403 129.833 154.402 129.877 154.402 129.92C153.652 130.154 152.838 130.407 152.021 130.661C152.479 128.884 153.338 128.025 154.09 127.701C154.279 128.178 154.403 128.863 154.403 129.786ZM153.174 126.83C153.308 126.83 153.441 126.876 153.57 126.965C152.582 127.431 151.525 128.607 151.078 130.954C150.425 131.158 149.787 131.357 149.196 131.54C149.72 129.749 150.962 126.83 153.174 126.83ZM153.705 137.297C153.705 137.297 152.908 136.869 151.931 136.869C150.498 136.869 150.426 137.773 150.426 138C150.426 139.243 153.648 139.719 153.648 142.629C153.648 144.918 152.203 146.392 150.255 146.392C147.917 146.392 146.721 144.93 146.721 144.93L147.347 142.852C147.347 142.852 148.576 143.912 149.614 143.912C150.291 143.912 150.567 143.376 150.567 142.984C150.567 141.364 147.923 141.291 147.923 138.628C147.923 136.387 149.523 134.218 152.755 134.218C154 134.218 154.615 134.576 154.615 134.576L153.705 137.297ZM155.209 129.669C155.209 129.587 155.21 129.507 155.21 129.419C155.21 128.654 155.104 128.038 154.935 127.549C155.616 127.635 156.07 128.414 156.362 129.31C156.02 129.417 155.631 129.538 155.209 129.669Z" fill="#81BF37"/>
</g>
</g>
<defs>
<filter id="filter0_i_544_34" x="37.3335" y="127.089" width="6.90308" height="19.1064" filterUnits="userSpaceOnUse" color-interpolation-filters="sRGB">
<feFlood flood-opacity="0" result="BackgroundImageFix"/>
<feBlend mode="normal" in="SourceGraphic" in2="BackgroundImageFix" result="shape"/>
<feColorMatrix in="SourceAlpha" type="matrix" values="0 0 0 0 0 0 0 0 0 0 0 0 0 0 0 0 0 0 127 0" result="hardAlpha"/>
<feOffset/>
<feGaussianBlur stdDeviation="39.886"/>
<feComposite in2="hardAlpha" operator="arithmetic" k2="-1" k3="1"/>
<feColorMatrix type="matrix" values="0 0 0 0 0 0 0 0 0 0 0 0 0 0 0 0 0 0 0.06 0"/>
<feBlend mode="normal" in2="shape" result="effect1_innerShadow_544_34"/>
</filter>
<filter id="filter1_i_544_34" x="44.2727" y="114.499" width="6.63589" height="22.6878" filterUnits="userSpaceOnUse" color-interpolation-filters="sRGB">
<feFlood flood-opacity="0" result="BackgroundImageFix"/>
<feBlend mode="normal" in="SourceGraphic" in2="BackgroundImageFix" result="shape"/>
<feColorMatrix in="SourceAlpha" type="matrix" values="0 0 0 0 0 0 0 0 0 0 0 0 0 0 0 0 0 0 127 0" result="hardAlpha"/>
<feOffset dx="2.2792" dy="-20.5128"/>
<feGaussianBlur stdDeviation="7.97721"/>
<feComposite in2="hardAlpha" operator="arithmetic" k2="-1" k3="1"/>
<feColorMatrix type="matrix" values="0 0 0 0 0 0 0 0 0 0 0 0 0 0 0 0 0 0 0.09 0"/>
<feBlend mode="normal" in2="shape" result="effect1_innerShadow_544_34"/>
</filter>
<clipPath id="clip0_544_34">
<rect width="200" height="200" fill="white"/>
</clipPath>
<clipPath id="clip1_544_34">
<rect width="24" height="24" fill="white" transform="translate(142 126)"/>
</clipPath>
</defs>
</svg>
