<svg width="800" height="490" viewBox="0 0 800 490" fill="none" xmlns="http://www.w3.org/2000/svg">
<g clip-path="url(#clip0_538_12)">
<path d="M395.41 489.96C392.77 489.96 390.148 489.267 387.833 487.934L363.714 473.655C360.111 471.64 361.869 470.928 363.057 470.517C367.86 468.835 368.835 468.456 373.962 465.544C374.501 465.237 375.206 465.345 375.758 465.671L394.287 476.666C394.956 477.028 395.906 477.028 396.526 476.666L468.773 434.963C469.442 434.584 469.876 433.806 469.876 433.01V349.641C469.876 348.809 469.442 348.068 468.759 347.652L396.54 305.986C395.871 305.588 394.985 305.588 394.316 305.986L322.112 347.652C321.413 348.05 320.968 348.827 320.968 349.623V432.992C320.968 433.788 321.402 434.547 322.089 434.927L341.873 446.356C352.615 451.728 359.18 445.398 359.18 439.032V356.748C359.18 355.573 360.102 354.669 361.278 354.669H370.428C371.568 354.669 372.508 355.573 372.508 356.748V439.068C372.508 453.391 364.696 461.62 351.114 461.62C346.937 461.62 343.645 461.62 334.459 457.099L315.506 446.176C310.822 443.463 307.929 438.399 307.929 432.992V349.623C307.929 344.198 310.822 339.134 315.506 336.458L387.826 294.737C392.401 292.151 398.477 292.151 403.016 294.737L475.245 336.476C479.911 339.17 482.823 344.216 482.823 349.641V433.01C482.823 438.417 479.911 443.463 475.245 446.176L403.016 487.896C400.702 489.234 398.079 489.922 395.403 489.922" fill="#689F63"/>
<path d="M417.726 432.513C386.115 432.513 379.487 418.002 379.487 405.831C379.487 404.674 380.42 403.752 381.579 403.752H390.911C391.942 403.752 392.81 404.502 392.972 405.52C394.383 415.029 398.579 419.825 417.694 419.825C432.921 419.825 439.395 416.385 439.395 408.311C439.395 403.663 437.55 400.209 413.896 397.894C394.112 395.941 381.887 391.583 381.887 375.759C381.887 361.183 394.184 352.502 414.782 352.502C437.912 352.502 449.378 360.532 450.824 377.784C450.879 378.381 450.662 378.96 450.264 379.394C449.866 379.81 449.305 380.063 448.726 380.063H439.341C438.364 380.063 437.514 379.376 437.315 378.435C435.055 368.435 429.593 365.234 414.746 365.234C398.126 365.234 396.191 371.021 396.191 375.361C396.191 380.624 398.47 382.161 420.895 385.127C443.102 388.074 453.645 392.234 453.645 407.84C453.645 423.574 440.516 432.598 417.621 432.598M505.62 344.184H508.043C510.032 344.184 510.412 342.791 510.412 341.977C510.412 339.843 508.947 339.843 508.134 339.843H505.638L505.62 344.184ZM502.672 337.348H508.043C509.888 337.348 513.505 337.348 513.505 341.471C513.505 344.346 511.66 344.943 510.557 345.305C512.709 345.449 512.854 346.86 513.143 348.849C513.288 350.097 513.523 352.249 513.957 352.973H510.647C510.557 352.249 510.051 348.271 510.051 348.054C509.834 347.167 509.526 346.733 508.423 346.733H505.692V352.991H502.672V337.348ZM496.216 345.124C496.216 351.598 501.442 356.843 507.862 356.843C514.337 356.843 519.563 351.49 519.563 345.124C519.563 338.632 514.264 333.478 507.844 333.478C501.515 333.478 496.198 338.559 496.198 345.106M521.805 345.16C521.805 352.828 515.53 359.085 507.88 359.085C500.285 359.085 493.955 352.9 493.955 345.16C493.955 337.275 500.43 331.235 507.88 331.235C515.385 331.235 521.787 337.293 521.787 345.16" fill="#689F63"/>
<path fill-rule="evenodd" clip-rule="evenodd" d="M171.687 163.754C171.687 160.426 169.933 157.37 167.061 155.715L90.4626 111.643C89.1696 110.884 87.721 110.486 86.2525 110.432H85.4604C83.992 110.486 82.5434 110.884 81.2287 111.643L4.63419 155.715C1.78048 157.379 0.000976562 160.435 0.000976562 163.763L0.169161 282.468C0.169161 284.114 1.01913 285.651 2.46588 286.465C3.87646 287.333 5.64872 287.333 7.0593 286.465L52.5957 260.387C55.4711 258.677 57.2253 255.653 57.2253 252.358V196.902C57.2253 193.593 58.9795 190.536 61.8459 188.891L81.2323 177.726C82.6718 176.894 84.2524 176.481 85.8619 176.481C87.4461 176.481 89.0629 176.89 90.4626 177.724L109.84 188.885C112.708 190.531 114.47 193.587 114.47 196.897V252.349C114.47 255.64 116.247 258.678 119.108 260.378L164.616 286.438C166.044 287.288 167.822 287.288 169.245 286.438C170.649 285.624 171.538 284.087 171.538 282.441L171.687 163.754ZM533.135 225.559C533.135 226.385 532.696 227.15 531.978 227.559L505.669 242.724C504.954 243.135 504.072 243.135 503.359 242.724L477.047 227.559C476.323 227.148 475.889 226.383 475.889 225.559V195.184C475.889 194.356 476.323 193.593 477.029 193.177L503.323 177.986C504.047 177.57 504.933 177.57 505.656 177.986L531.969 193.177C532.692 193.593 533.126 194.356 533.126 195.184L533.135 225.559ZM540.242 0.585542C538.807 -0.213787 537.06 -0.192086 535.642 0.63437C534.231 1.46625 533.36 2.98534 533.36 4.63101V122.179C533.36 123.337 532.745 124.404 531.743 124.982C530.748 125.561 529.509 125.561 528.506 124.982L509.318 113.931C506.461 112.278 502.942 112.278 500.073 113.931L423.45 158.153C420.587 159.798 418.82 162.855 418.82 166.146V254.615C418.82 257.924 420.587 260.962 423.45 262.626L500.073 306.879C502.934 308.524 506.457 308.524 509.327 306.879L585.951 262.608C588.808 260.944 590.58 257.906 590.58 254.597V34.1121C590.58 30.7557 588.754 27.6687 585.824 26.0284L540.242 0.585542ZM795.4 194.385C798.247 192.732 799.999 189.679 799.999 186.388V164.947C799.999 161.649 798.245 158.605 795.393 156.945L719.258 112.747C716.382 111.083 712.856 111.083 709.98 112.747L633.375 156.963C630.5 158.627 628.745 161.665 628.745 164.974V253.407C628.745 256.734 630.536 259.809 633.411 261.454L709.528 304.839C712.331 306.448 715.767 306.466 718.607 304.893L764.649 279.304C766.096 278.49 767.019 276.953 767.019 275.289C767.019 273.625 766.132 272.07 764.686 271.256L687.61 227.022C686.163 226.208 685.277 224.671 685.277 223.025V195.284C685.277 193.627 686.145 192.101 687.592 191.276L711.572 177.442C713.001 176.61 714.755 176.61 716.183 177.442L740.181 191.276C741.61 192.09 742.496 193.627 742.496 195.273V217.083C742.496 218.728 743.382 220.265 744.811 221.097C746.24 221.911 748.012 221.911 749.44 221.079L795.4 194.385Z" fill="white"/>
<path fill-rule="evenodd" clip-rule="evenodd" d="M713.498 190.247C714.04 189.927 714.72 189.927 715.27 190.247L729.973 198.729C730.523 199.047 730.859 199.633 730.859 200.266V217.247C730.859 217.88 730.523 218.466 729.973 218.785L715.27 227.266C714.72 227.586 714.04 227.586 713.498 227.266L698.804 218.785C698.244 218.466 697.9 217.88 697.9 217.247V200.266C697.9 199.633 698.226 199.047 698.786 198.729L713.498 190.247Z" fill="#689F63"/>
<mask id="mask0_538_12" style="mask-type:luminance" maskUnits="userSpaceOnUse" x="209" y="111" width="172" height="196">
<path d="M290.66 113.188L214.471 157.164C211.617 158.81 209.866 161.848 209.866 165.132V253.145C209.866 256.431 211.617 259.467 214.471 261.113L290.666 305.123C293.514 306.763 297.026 306.763 299.87 305.123L376.053 261.113C378.892 259.467 380.646 256.429 380.646 253.145V165.132C380.646 161.848 378.892 158.81 376.035 157.164L299.863 113.188C298.435 112.369 296.843 111.958 295.252 111.958C293.66 111.958 292.069 112.369 290.64 113.188" fill="white"/>
</mask>
<g mask="url(#mask0_538_12)">
<path d="M457.638 149.697L242.95 44.4641L132.87 269.025L347.554 374.263L457.638 149.697Z" fill="url(#paint0_linear_538_12)"/>
</g>
<mask id="mask1_538_12" style="mask-type:luminance" maskUnits="userSpaceOnUse" x="211" y="112" width="168" height="195">
<path d="M211.754 258.733C212.483 259.679 213.395 260.498 214.467 261.113L279.824 298.864L290.711 305.121C292.338 306.062 294.194 306.46 296.017 306.324C296.624 306.275 297.232 306.161 297.825 305.993L378.181 158.859C377.566 158.189 376.847 157.629 376.04 157.159L326.152 128.35L299.782 113.177C299.033 112.743 298.221 112.436 297.395 112.219L211.754 258.733Z" fill="white"/>
</mask>
<g mask="url(#mask1_538_12)">
<path d="M118.931 180.822L270.523 385.994L471.006 237.873L319.405 32.7056L118.931 180.822Z" fill="url(#paint1_linear_538_12)"/>
</g>
<mask id="mask2_538_12" style="mask-type:luminance" maskUnits="userSpaceOnUse" x="214" y="111" width="167" height="196">
<path d="M294.342 112.009C293.063 112.136 291.814 112.534 290.662 113.188L214.689 157.037L296.612 306.252C297.751 306.089 298.872 305.709 299.885 305.123L376.074 261.113C378.425 259.749 380.035 257.442 380.523 254.827L297.009 112.159C296.395 112.038 295.78 111.975 295.147 111.975C294.894 111.975 294.64 111.987 294.387 112.011" fill="white"/>
</mask>
<g mask="url(#mask2_538_12)">
<path d="M214.688 111.975V306.255H380.491V111.975H214.688Z" fill="url(#paint2_linear_538_12)"/>
</g>
</g>
<defs>
<linearGradient id="paint0_linear_538_12" x1="350.23" y1="96.9151" x2="240.158" y2="321.461" gradientUnits="userSpaceOnUse">
<stop offset="0.3" stop-color="#3E863D"/>
<stop offset="0.5" stop-color="#55934F"/>
<stop offset="0.8" stop-color="#5AAD45"/>
</linearGradient>
<linearGradient id="paint1_linear_538_12" x1="195.636" y1="284.584" x2="396.127" y2="136.445" gradientUnits="userSpaceOnUse">
<stop offset="0.57" stop-color="#3E863D"/>
<stop offset="0.72" stop-color="#619857"/>
<stop offset="1" stop-color="#76AC64"/>
</linearGradient>
<linearGradient id="paint2_linear_538_12" x1="214.744" y1="209.12" x2="380.522" y2="209.12" gradientUnits="userSpaceOnUse">
<stop offset="0.16" stop-color="#6BBF47"/>
<stop offset="0.38" stop-color="#79B461"/>
<stop offset="0.47" stop-color="#75AC64"/>
<stop offset="0.7" stop-color="#659E5A"/>
<stop offset="0.9" stop-color="#3E863D"/>
</linearGradient>
<clipPath id="clip0_538_12">
<rect width="800" height="489.958" fill="white"/>
</clipPath>
</defs>
</svg>
