<svg width="200" height="200" viewBox="0 0 200 200" fill="none" xmlns="http://www.w3.org/2000/svg">
<g clip-path="url(#clip0_546_71)">
<path d="M196.667 0H3.33333C1.33333 0 0 1.33333 0 3.33333V156.667C0 158.667 1.33333 160 3.33333 160H16.6667V196.667C16.6667 198.667 18 200 20 200H180C182 200 183.333 198.667 183.333 196.667V160H196.667C198.667 160 200 158.667 200 156.667V3.33333C200 1.33333 198.667 0 196.667 0ZM193.333 6.66667V26.6667H6.66667V6.66667H193.333ZM176.667 80H23.3333V60H176.667V80ZM23.3333 193.333V86.6667H176.667V193.333H23.3333ZM183.333 153.333V56.6667C183.333 54.6667 182 53.3333 180 53.3333H20C18 53.3333 16.6667 54.6667 16.6667 56.6667V153.333H6.66667V33.3333H193.333V153.333H183.333Z" fill="white"/>
<path d="M26.6666 13.3335H13.3333V20.0002H26.6666V13.3335Z" fill="white"/>
<path d="M46.6666 13.3335H33.3333V20.0002H46.6666V13.3335Z" fill="white"/>
<path d="M43.3333 66.6665H30V73.3332H43.3333V66.6665Z" fill="white"/>
<path d="M63.3333 66.6665H50V73.3332H63.3333V66.6665Z" fill="white"/>
<path d="M186.667 13.3335H180V20.0002H186.667V13.3335Z" fill="white"/>
<path d="M173.333 13.3335H166.667V20.0002H173.333V13.3335Z" fill="white"/>
<path d="M170 66.6665H163.333V73.3332H170V66.6665Z" fill="white"/>
<path d="M156.667 66.6665H150V73.3332H156.667V66.6665Z" fill="white"/>
<path d="M116.667 96.6665H103.333V103.333H116.667V96.6665Z" fill="white"/>
<path d="M110 110H103.333V116.667H110V110Z" fill="white"/>
<path d="M123.333 110H116.667V116.667H123.333V110Z" fill="white"/>
<path d="M136.667 110H130V116.667H136.667V110Z" fill="white"/>
<path d="M150 110H143.333V116.667H150V110Z" fill="white"/>
<path d="M163.333 110H156.667V116.667H163.333V110Z" fill="white"/>
<path d="M140 96.6665H126.667V103.333H140V96.6665Z" fill="white"/>
<path d="M163.333 96.6665H150V103.333H163.333V96.6665Z" fill="white"/>
<path d="M163.333 123.333H103.333V130H163.333V123.333Z" fill="white"/>
<path d="M163.333 136.667H103.333V143.333H163.333V136.667Z" fill="white"/>
<path d="M163.333 150H103.333V156.667H163.333V150Z" fill="white"/>
<path d="M39.9999 170H33.3333V176.667H39.9999V170Z" fill="white"/>
<path d="M53.3334 170H46.6667V176.667H53.3334V170Z" fill="white"/>
<path d="M66.6667 170H60V176.667H66.6667V170Z" fill="white"/>
<path d="M163.333 170H73.3333V176.667H163.333V170Z" fill="white"/>
<path d="M93 120.664C93.0013 119.87 92.7868 119.09 92.3785 118.403C91.9702 117.716 91.3825 117.147 90.6753 116.753L65.4037 102.133C64.6753 101.718 63.8472 101.5 63.004 101.5C62.1608 101.5 61.3326 101.718 60.6043 102.133L35.2952 116.753C34.5958 117.157 34.0164 117.732 33.614 118.421C33.2116 119.11 33 119.889 33 120.682C33 121.475 33.2116 122.254 33.614 122.943C34.0164 123.632 34.5958 124.207 35.2952 124.611L42.4942 128.705V138.976C42.4986 139.778 42.7147 140.566 43.1218 141.264C43.5289 141.962 44.1134 142.546 44.8189 142.96L60.7543 151.915C61.4658 152.299 62.2657 152.5 63.079 152.5C63.8923 152.5 64.6922 152.299 65.4037 151.915L81.339 142.96C82.0446 142.546 82.629 141.962 83.0362 141.264C83.4433 140.566 83.6594 139.778 83.6637 138.976V128.595L88.3131 125.927V135.869H93V120.664ZM79.0144 138.939L63.004 147.931L47.1811 138.976V131.41L60.6043 139.195C61.3351 139.602 62.1623 139.816 63.004 139.816C63.8457 139.816 64.6729 139.602 65.4037 139.195L78.9769 131.3L79.0144 138.939ZM63.004 135.247L37.6949 120.627L63.004 105.97L88.3131 120.591L63.004 135.247Z" fill="white"/>
<g clip-path="url(#clip1_546_71)">
<path d="M39.3086 35.0001L36.9993 38.9971L34.6899 35.0001H26.9995L36.9993 52.3076L46.999 35.0001H39.3086Z" fill="#41B883"/>
<path d="M39.3087 35L36.9994 38.9969L34.69 35H30.9995L36.9994 45.3843L42.9992 35H39.3087Z" fill="#34495E"/>
</g>
<g clip-path="url(#clip2_546_71)">
<path fill-rule="evenodd" clip-rule="evenodd" d="M55.992 52.5681C60.7211 52.5681 64.5548 48.7315 64.5548 43.9988C64.5548 39.2661 60.7211 35.4295 55.992 35.4295C51.263 35.4295 47.4294 39.2661 47.4294 43.9988C47.4294 48.7315 51.263 52.5681 55.992 52.5681ZM55.992 52.7388C60.8153 52.7388 64.7253 48.8257 64.7253 43.9988C64.7253 39.1718 60.8153 35.2588 55.992 35.2588C51.1688 35.2588 47.2588 39.1718 47.2588 43.9988C47.2588 48.8257 51.1688 52.7388 55.992 52.7388Z" fill="#AEDDFF"/>
<path d="M60.0667 36.8778C60.3436 36.8778 60.5681 36.6531 60.5681 36.3759C60.5681 36.0987 60.3436 35.874 60.0667 35.874C59.7897 35.874 59.5652 36.0987 59.5652 36.3759C59.5652 36.6531 59.7897 36.8778 60.0667 36.8778Z" fill="#1697F6"/>
<path d="M51.9173 52.1239C52.1942 52.1239 52.4187 51.8992 52.4187 51.622C52.4187 51.3448 52.1942 51.1201 51.9173 51.1201C51.6403 51.1201 51.4158 51.3448 51.4158 51.622C51.4158 51.8992 51.6403 52.1239 51.9173 52.1239Z" fill="#1697F6"/>
<path d="M56.1318 42.7713L53.5183 47.3026L55.9931 51.5949L59.2708 45.9132L62.5471 40.2314H57.5961L56.1318 42.7713Z" fill="#1697F6"/>
<path d="M52.7168 45.9132L52.8884 46.212L55.3333 41.9719L56.3378 40.2314H55.993H49.439L52.7168 45.9132Z" fill="#AEDDFF"/>
<path d="M57.5961 40.2314C58.835 44.3116 55.9931 51.5949 55.9931 51.5949L53.5183 47.3026L57.5961 40.2314Z" fill="#1867C0"/>
<path d="M56.338 40.2314C51.1183 40.2314 52.8885 46.212 52.8885 46.212L56.338 40.2314Z" fill="#7BC6FF"/>
</g>
<path fill-rule="evenodd" clip-rule="evenodd" d="M73.4726 43.5557C74.6901 42.4167 74.3224 41.0119 73.2256 39.311C72.1289 37.6101 69.9151 37.0086 69.501 37.396C69.0869 37.7834 68.9893 40.547 70.086 42.248C71.1828 43.9489 72.2551 44.6946 73.4726 43.5557Z" fill="url(#paint0_linear_546_71)"/>
<path fill-rule="evenodd" clip-rule="evenodd" d="M74.5224 43.72C75.4173 45.1079 76.6187 44.5973 78.1076 43.2045C79.5964 41.8118 80.2182 39.1484 79.9139 38.6763C79.6095 38.2043 77.2887 38.2327 75.7999 39.6255C74.3111 41.0182 73.6275 42.3321 74.5224 43.72Z" fill="url(#paint1_linear_546_71)"/>
<path fill-rule="evenodd" clip-rule="evenodd" d="M74.0292 42.9547C75.5152 43.1316 76.1026 41.7762 76.3799 39.5866C76.6571 37.397 75.5386 35.0857 75.0332 35.0255C74.5278 34.9653 72.8252 36.9407 72.5479 39.1303C72.2707 41.3199 72.5432 42.7777 74.0292 42.9547Z" fill="url(#paint2_linear_546_71)"/>
<path fill-rule="evenodd" clip-rule="evenodd" d="M73.6604 52.625C76.7872 52.625 79.3229 51.7329 79.3229 47.6869C79.3229 43.6409 76.7872 40.3208 73.6604 40.3208C70.5337 40.3208 68 43.6409 68 47.6869C68 51.7329 70.5337 52.625 73.6604 52.625Z" fill="url(#paint3_linear_546_71)"/>
<path d="M76.5204 46.8606C76.9671 46.8606 77.3292 46.6951 77.3292 46.4911C77.3292 46.287 76.9671 46.1216 76.5204 46.1216C76.0738 46.1216 75.7117 46.287 75.7117 46.4911C75.7117 46.6951 76.0738 46.8606 76.5204 46.8606Z" fill="#EAADCC"/>
<path d="M70.5311 46.6365C70.9745 46.6899 71.3544 46.5691 71.3797 46.3665C71.405 46.164 71.0662 45.9564 70.6228 45.903C70.1795 45.8495 69.7995 45.9703 69.7742 46.1729C69.7489 46.3754 70.0878 46.583 70.5311 46.6365Z" fill="#EAADCC"/>
<path d="M74.1785 46.3609C73.9353 46.5554 73.6542 46.6346 73.3353 46.5985C73.0165 46.5625 72.7801 46.4321 72.6261 46.2074" stroke="black" stroke-width="0.5" stroke-linecap="round" stroke-linejoin="round"/>
<path fill-rule="evenodd" clip-rule="evenodd" d="M71.0459 44.4369C71.269 44.4294 71.4742 44.5115 71.6256 44.6503C71.777 44.7891 71.8745 44.9847 71.8825 45.2041C71.8904 45.4234 71.8072 45.6251 71.6662 45.7738C71.5252 45.9225 71.3265 46.0182 71.1034 46.0257C70.8803 46.0333 70.6751 45.9512 70.5238 45.8123C70.3724 45.6735 70.2748 45.478 70.2669 45.2586C70.259 45.0392 70.3422 44.8375 70.4832 44.6889C70.6241 44.5402 70.8229 44.4444 71.0459 44.4369Z" fill="black"/>
<path fill-rule="evenodd" clip-rule="evenodd" d="M71.0887 45.1019C71.0835 44.9591 70.9615 44.8472 70.8164 44.8521C70.6711 44.857 70.5575 44.9768 70.5627 45.1197C70.5679 45.2625 70.6898 45.3743 70.8351 45.3694C70.9802 45.3645 71.0939 45.2447 71.0887 45.1019Z" fill="white"/>
<path fill-rule="evenodd" clip-rule="evenodd" d="M75.9464 44.6386C76.1694 44.6311 76.3746 44.7132 76.526 44.852C76.6773 44.9908 76.7749 45.1863 76.7829 45.4057C76.7908 45.6251 76.7076 45.8268 76.5666 45.9755C76.4256 46.1241 76.2269 46.2199 76.0038 46.2274C75.7807 46.2349 75.5756 46.1528 75.4242 46.014C75.2728 45.8752 75.1752 45.6796 75.1673 45.4602C75.1594 45.2408 75.2426 45.0392 75.3836 44.8905C75.5246 44.7418 75.7233 44.6461 75.9464 44.6386Z" fill="black"/>
<path d="M71.7694 45.2086C71.7832 45.5864 71.4834 45.9029 71.0997 45.9156C70.7161 45.9284 70.3938 45.6326 70.38 45.2548C70.3661 44.8771 70.6659 44.5606 71.0495 44.5478C71.4332 44.5351 71.7555 44.8309 71.7694 45.2086ZM71.9947 45.2011C71.9763 44.7009 71.5495 44.3091 71.0414 44.326C70.5333 44.3429 70.1363 44.7621 70.1547 45.2623C70.173 45.7625 70.5998 46.1543 71.1079 46.1374C71.616 46.1206 72.013 45.7014 71.9947 45.2011Z" fill="white" stroke="white" stroke-width="0.5"/>
<path d="M76.6697 45.4103C76.6836 45.788 76.3839 46.1045 76.0002 46.1173C75.6165 46.13 75.2942 45.8342 75.2804 45.4565C75.2665 45.0787 75.5663 44.7622 75.95 44.7495C76.3337 44.7367 76.6559 45.0325 76.6697 45.4103ZM76.8951 45.4028C76.8767 44.9025 76.4499 44.5108 75.9418 44.5277C75.4337 44.5445 75.0367 44.9637 75.0551 45.4639C75.0734 45.9642 75.5002 46.356 76.0083 46.3391C76.5164 46.3222 76.9134 45.903 76.8951 45.4028Z" fill="white" stroke="white" stroke-width="0.5"/>
<path fill-rule="evenodd" clip-rule="evenodd" d="M75.989 45.3037C75.9837 45.1608 75.8618 45.0488 75.7166 45.0537C75.5715 45.0585 75.458 45.1783 75.4633 45.3212C75.4685 45.4641 75.5905 45.576 75.7356 45.5712C75.8808 45.5664 75.9942 45.4466 75.989 45.3037Z" fill="white"/>
<path d="M69.373 48.0615L72.1567 50.9066" stroke="#ECB732" stroke-width="0.5" stroke-linecap="round"/>
<path d="M71.7805 48.394L70.0125 50.2415" stroke="#ECB732" stroke-width="0.5" stroke-linecap="round"/>
<path d="M77.9121 48.0615L75.1284 50.9066" stroke="#ECB732" stroke-width="0.5" stroke-linecap="round"/>
<path d="M75.5047 48.394L77.2727 50.2415" stroke="#ECB732" stroke-width="0.5" stroke-linecap="round"/>
<path d="M74.79 41.7803L72.9468 43.5908" stroke="#FFC73B" stroke-width="0.5" stroke-linecap="round"/>
<path d="M74.4138 43.5908L72.5706 41.7803" stroke="#FFC73B" stroke-width="0.5" stroke-linecap="round"/>
</g>
<defs>
<linearGradient id="paint0_linear_546_71" x1="677.233" y1="-429.185" x2="1165.69" y2="955.966" gradientUnits="userSpaceOnUse">
<stop stop-color="#52CE63"/>
<stop offset="1" stop-color="#51A256"/>
</linearGradient>
<linearGradient id="paint1_linear_546_71" x1="552.97" y1="633.748" x2="-850.192" y2="1141.63" gradientUnits="userSpaceOnUse">
<stop stop-color="#52CE63"/>
<stop offset="1" stop-color="#51A256"/>
</linearGradient>
<linearGradient id="paint2_linear_546_71" x1="684.289" y1="107.572" x2="419.19" y2="2333.91" gradientUnits="userSpaceOnUse">
<stop stop-color="#8AE99C"/>
<stop offset="1" stop-color="#52CE63"/>
</linearGradient>
<linearGradient id="paint3_linear_546_71" x1="1923.76" y1="1065.81" x2="1634.18" y2="5906.8" gradientUnits="userSpaceOnUse">
<stop stop-color="#FFE56C"/>
<stop offset="1" stop-color="#FFC63A"/>
</linearGradient>
<clipPath id="clip0_546_71">
<rect width="200" height="200" fill="white"/>
</clipPath>
<clipPath id="clip1_546_71">
<rect width="20" height="17.3077" fill="white" transform="translate(27 35)"/>
</clipPath>
<clipPath id="clip2_546_71">
<rect width="18" height="18" fill="white" transform="translate(47 35)"/>
</clipPath>
</defs>
</svg>
