<svg width="200" height="200" viewBox="0 0 200 200" fill="none" xmlns="http://www.w3.org/2000/svg">
<g clip-path="url(#clip0_546_71)">
<path d="M196.667 0H3.33333C1.33333 0 0 1.33333 0 3.33333V156.667C0 158.667 1.33333 160 3.33333 160H16.6667V196.667C16.6667 198.667 18 200 20 200H180C182 200 183.333 198.667 183.333 196.667V160H196.667C198.667 160 200 158.667 200 156.667V3.33333C200 1.33333 198.667 0 196.667 0ZM193.333 6.66667V26.6667H6.66667V6.66667H193.333ZM176.667 80H23.3333V60H176.667V80ZM23.3333 193.333V86.6667H176.667V193.333H23.3333ZM183.333 153.333V56.6667C183.333 54.6667 182 53.3333 180 53.3333H20C18 53.3333 16.6667 54.6667 16.6667 56.6667V153.333H6.66667V33.3333H193.333V153.333H183.333Z" fill="white"/>
<path d="M26.6666 13.3335H13.3333V20.0002H26.6666V13.3335Z" fill="white"/>
<path d="M46.6666 13.3335H33.3333V20.0002H46.6666V13.3335Z" fill="white"/>
<path d="M43.3333 66.6665H30V73.3332H43.3333V66.6665Z" fill="white"/>
<path d="M63.3333 66.6665H50V73.3332H63.3333V66.6665Z" fill="white"/>
<path d="M186.667 13.3335H180V20.0002H186.667V13.3335Z" fill="white"/>
<path d="M173.333 13.3335H166.667V20.0002H173.333V13.3335Z" fill="white"/>
<path d="M170 66.6665H163.333V73.3332H170V66.6665Z" fill="white"/>
<path d="M156.667 66.6665H150V73.3332H156.667V66.6665Z" fill="white"/>
<path d="M116.667 96.6665H103.333V103.333H116.667V96.6665Z" fill="white"/>
<path d="M110 110H103.333V116.667H110V110Z" fill="white"/>
<path d="M123.333 110H116.667V116.667H123.333V110Z" fill="white"/>
<path d="M136.667 110H130V116.667H136.667V110Z" fill="white"/>
<path d="M150 110H143.333V116.667H150V110Z" fill="white"/>
<path d="M163.333 110H156.667V116.667H163.333V110Z" fill="white"/>
<path d="M140 96.6665H126.667V103.333H140V96.6665Z" fill="white"/>
<path d="M163.333 96.6665H150V103.333H163.333V96.6665Z" fill="white"/>
<path d="M163.333 123.333H103.333V130H163.333V123.333Z" fill="white"/>
<path d="M163.333 136.667H103.333V143.333H163.333V136.667Z" fill="white"/>
<path d="M163.333 150H103.333V156.667H163.333V150Z" fill="white"/>
<path d="M39.9999 170H33.3333V176.667H39.9999V170Z" fill="white"/>
<path d="M53.3334 170H46.6667V176.667H53.3334V170Z" fill="white"/>
<path d="M66.6667 170H60V176.667H66.6667V170Z" fill="white"/>
<path d="M163.333 170H73.3333V176.667H163.333V170Z" fill="white"/>
<path d="M93 120.664C93.0013 119.87 92.7868 119.09 92.3785 118.403C91.9702 117.716 91.3825 117.147 90.6753 116.753L65.4037 102.133C64.6753 101.718 63.8472 101.5 63.004 101.5C62.1608 101.5 61.3326 101.718 60.6043 102.133L35.2952 116.753C34.5958 117.157 34.0164 117.732 33.614 118.421C33.2116 119.11 33 119.889 33 120.682C33 121.475 33.2116 122.254 33.614 122.943C34.0164 123.632 34.5958 124.207 35.2952 124.611L42.4942 128.705V138.976C42.4986 139.778 42.7147 140.566 43.1218 141.264C43.5289 141.962 44.1134 142.546 44.8189 142.96L60.7543 151.915C61.4658 152.299 62.2657 152.5 63.079 152.5C63.8923 152.5 64.6922 152.299 65.4037 151.915L81.3391 142.96C82.0446 142.546 82.629 141.962 83.0362 141.264C83.4433 140.566 83.6594 139.778 83.6637 138.976V128.595L88.3131 125.927V135.869H93V120.664ZM79.0144 138.939L63.004 147.931L47.1811 138.976V131.41L60.6043 139.195C61.3351 139.602 62.1623 139.816 63.004 139.816C63.8457 139.816 64.6729 139.602 65.4037 139.195L78.9769 131.3L79.0144 138.939ZM63.004 135.247L37.6949 120.627L63.004 105.97L88.3131 120.591L63.004 135.247Z" fill="white"/>
<g clip-path="url(#clip1_546_71)">
<path d="M83.3086 62.0001L80.9993 65.9971L78.6899 62.0001H70.9995L80.9993 79.3076L90.999 62.0001H83.3086Z" fill="#41B883"/>
<path d="M83.3087 62L80.9994 65.9969L78.69 62H74.9995L80.9994 72.3843L86.9992 62H83.3087Z" fill="#34495E"/>
</g>
<g clip-path="url(#clip2_546_71)">
<path fill-rule="evenodd" clip-rule="evenodd" d="M101.992 79.5681C106.721 79.5681 110.555 75.7315 110.555 70.9988C110.555 66.2661 106.721 62.4295 101.992 62.4295C97.263 62.4295 93.4294 66.2661 93.4294 70.9988C93.4294 75.7315 97.263 79.5681 101.992 79.5681ZM101.992 79.7388C106.815 79.7388 110.725 75.8257 110.725 70.9988C110.725 66.1718 106.815 62.2588 101.992 62.2588C97.1688 62.2588 93.2588 66.1718 93.2588 70.9988C93.2588 75.8257 97.1688 79.7388 101.992 79.7388Z" fill="#AEDDFF"/>
<path d="M106.067 63.8778C106.344 63.8778 106.568 63.6531 106.568 63.3759C106.568 63.0987 106.344 62.874 106.067 62.874C105.79 62.874 105.565 63.0987 105.565 63.3759C105.565 63.6531 105.79 63.8778 106.067 63.8778Z" fill="#1697F6"/>
<path d="M97.9173 79.1239C98.1942 79.1239 98.4187 78.8992 98.4187 78.622C98.4187 78.3448 98.1942 78.1201 97.9173 78.1201C97.6403 78.1201 97.4158 78.3448 97.4158 78.622C97.4158 78.8992 97.6403 79.1239 97.9173 79.1239Z" fill="#1697F6"/>
<path d="M102.132 69.7713L99.5183 74.3026L101.993 78.5949L105.271 72.9132L108.547 67.2314H103.596L102.132 69.7713Z" fill="#1697F6"/>
<path d="M98.7168 72.9132L98.8884 73.212L101.333 68.9719L102.338 67.2314H101.993H95.439L98.7168 72.9132Z" fill="#AEDDFF"/>
<path d="M103.596 67.2314C104.835 71.3116 101.993 78.5949 101.993 78.5949L99.5183 74.3026L103.596 67.2314Z" fill="#1867C0"/>
<path d="M102.338 67.2314C97.1183 67.2314 98.8885 73.212 98.8885 73.212L102.338 67.2314Z" fill="#7BC6FF"/>
</g>
<path fill-rule="evenodd" clip-rule="evenodd" d="M118.473 70.5557C119.69 69.4167 119.322 68.0119 118.226 66.311C117.129 64.6101 114.915 64.0086 114.501 64.396C114.087 64.7834 113.989 67.547 115.086 69.248C116.183 70.9489 117.255 71.6946 118.473 70.5557Z" fill="url(#paint0_linear_546_71)"/>
<path fill-rule="evenodd" clip-rule="evenodd" d="M119.522 70.72C120.417 72.1079 121.619 71.5973 123.108 70.2045C124.596 68.8118 125.218 66.1484 124.914 65.6763C124.61 65.2043 122.289 65.2327 120.8 66.6255C119.311 68.0182 118.628 69.3321 119.522 70.72Z" fill="url(#paint1_linear_546_71)"/>
<path fill-rule="evenodd" clip-rule="evenodd" d="M119.029 69.9547C120.515 70.1316 121.103 68.7762 121.38 66.5866C121.657 64.397 120.539 62.0857 120.033 62.0255C119.528 61.9653 117.825 63.9407 117.548 66.1303C117.271 68.3199 117.543 69.7777 119.029 69.9547Z" fill="url(#paint2_linear_546_71)"/>
<path fill-rule="evenodd" clip-rule="evenodd" d="M118.66 79.625C121.787 79.625 124.323 78.7329 124.323 74.6869C124.323 70.6409 121.787 67.3208 118.66 67.3208C115.534 67.3208 113 70.6409 113 74.6869C113 78.7329 115.534 79.625 118.66 79.625Z" fill="url(#paint3_linear_546_71)"/>
<path d="M121.52 73.8606C121.967 73.8606 122.329 73.6951 122.329 73.4911C122.329 73.287 121.967 73.1216 121.52 73.1216C121.074 73.1216 120.712 73.287 120.712 73.4911C120.712 73.6951 121.074 73.8606 121.52 73.8606Z" fill="#EAADCC"/>
<path d="M115.531 73.6365C115.974 73.6899 116.354 73.5691 116.38 73.3665C116.405 73.164 116.066 72.9564 115.623 72.903C115.179 72.8495 114.8 72.9703 114.774 73.1729C114.749 73.3754 115.088 73.583 115.531 73.6365Z" fill="#EAADCC"/>
<path d="M119.179 73.3609C118.935 73.5554 118.654 73.6346 118.335 73.5985C118.016 73.5625 117.78 73.4321 117.626 73.2074" stroke="black" stroke-width="0.5" stroke-linecap="round" stroke-linejoin="round"/>
<path fill-rule="evenodd" clip-rule="evenodd" d="M116.046 71.4369C116.269 71.4294 116.474 71.5115 116.626 71.6503C116.777 71.7891 116.875 71.9847 116.882 72.2041C116.89 72.4234 116.807 72.6251 116.666 72.7738C116.525 72.9225 116.326 73.0182 116.103 73.0257C115.88 73.0333 115.675 72.9512 115.524 72.8123C115.372 72.6735 115.275 72.478 115.267 72.2586C115.259 72.0392 115.342 71.8375 115.483 71.6889C115.624 71.5402 115.823 71.4444 116.046 71.4369Z" fill="black"/>
<path fill-rule="evenodd" clip-rule="evenodd" d="M116.089 72.1019C116.084 71.9591 115.962 71.8472 115.816 71.8521C115.671 71.857 115.558 71.9768 115.563 72.1197C115.568 72.2625 115.69 72.3743 115.835 72.3694C115.98 72.3645 116.094 72.2447 116.089 72.1019Z" fill="white"/>
<path fill-rule="evenodd" clip-rule="evenodd" d="M120.946 71.6386C121.169 71.6311 121.375 71.7132 121.526 71.852C121.677 71.9908 121.775 72.1863 121.783 72.4057C121.791 72.6251 121.708 72.8268 121.567 72.9755C121.426 73.1241 121.227 73.2199 121.004 73.2274C120.781 73.2349 120.576 73.1528 120.424 73.014C120.273 72.8752 120.175 72.6796 120.167 72.4602C120.159 72.2408 120.243 72.0392 120.384 71.8905C120.525 71.7418 120.723 71.6461 120.946 71.6386Z" fill="black"/>
<path d="M116.769 72.2086C116.783 72.5864 116.483 72.9029 116.1 72.9156C115.716 72.9284 115.394 72.6326 115.38 72.2548C115.366 71.8771 115.666 71.5606 116.05 71.5478C116.433 71.5351 116.755 71.8309 116.769 72.2086ZM116.995 72.2011C116.976 71.7009 116.55 71.3091 116.041 71.326C115.533 71.3429 115.136 71.7621 115.155 72.2623C115.173 72.7625 115.6 73.1543 116.108 73.1374C116.616 73.1206 117.013 72.7014 116.995 72.2011Z" fill="white" stroke="white" stroke-width="0.5"/>
<path d="M121.67 72.4103C121.684 72.788 121.384 73.1045 121 73.1173C120.616 73.13 120.294 72.8342 120.28 72.4565C120.267 72.0787 120.566 71.7622 120.95 71.7495C121.334 71.7367 121.656 72.0325 121.67 72.4103ZM121.895 72.4028C121.877 71.9025 121.45 71.5108 120.942 71.5277C120.434 71.5445 120.037 71.9637 120.055 72.4639C120.073 72.9642 120.5 73.356 121.008 73.3391C121.516 73.3222 121.913 72.903 121.895 72.4028Z" fill="white" stroke="white" stroke-width="0.5"/>
<path fill-rule="evenodd" clip-rule="evenodd" d="M120.989 72.3037C120.984 72.1608 120.862 72.0488 120.717 72.0537C120.571 72.0585 120.458 72.1783 120.463 72.3212C120.469 72.4641 120.59 72.576 120.736 72.5712C120.881 72.5664 120.994 72.4466 120.989 72.3037Z" fill="white"/>
<path d="M114.373 75.0615L117.157 77.9066" stroke="#ECB732" stroke-width="0.5" stroke-linecap="round"/>
<path d="M116.78 75.394L115.012 77.2415" stroke="#ECB732" stroke-width="0.5" stroke-linecap="round"/>
<path d="M122.912 75.0615L120.128 77.9066" stroke="#ECB732" stroke-width="0.5" stroke-linecap="round"/>
<path d="M120.505 75.394L122.273 77.2415" stroke="#ECB732" stroke-width="0.5" stroke-linecap="round"/>
<path d="M119.79 68.7803L117.947 70.5908" stroke="#FFC73B" stroke-width="0.5" stroke-linecap="round"/>
<path d="M119.414 70.5908L117.571 68.7803" stroke="#FFC73B" stroke-width="0.5" stroke-linecap="round"/>
</g>
<defs>
<linearGradient id="paint0_linear_546_71" x1="722.233" y1="-402.185" x2="1210.69" y2="982.966" gradientUnits="userSpaceOnUse">
<stop stop-color="#52CE63"/>
<stop offset="1" stop-color="#51A256"/>
</linearGradient>
<linearGradient id="paint1_linear_546_71" x1="597.97" y1="660.748" x2="-805.192" y2="1168.63" gradientUnits="userSpaceOnUse">
<stop stop-color="#52CE63"/>
<stop offset="1" stop-color="#51A256"/>
</linearGradient>
<linearGradient id="paint2_linear_546_71" x1="729.289" y1="134.572" x2="464.19" y2="2360.91" gradientUnits="userSpaceOnUse">
<stop stop-color="#8AE99C"/>
<stop offset="1" stop-color="#52CE63"/>
</linearGradient>
<linearGradient id="paint3_linear_546_71" x1="1968.76" y1="1092.81" x2="1679.18" y2="5933.8" gradientUnits="userSpaceOnUse">
<stop stop-color="#FFE56C"/>
<stop offset="1" stop-color="#FFC63A"/>
</linearGradient>
<clipPath id="clip0_546_71">
<rect width="200" height="200" fill="white"/>
</clipPath>
<clipPath id="clip1_546_71">
<rect width="20" height="17.3077" fill="white" transform="translate(71 62)"/>
</clipPath>
<clipPath id="clip2_546_71">
<rect width="18" height="18" fill="white" transform="translate(93 62)"/>
</clipPath>
</defs>
</svg>
