<svg width="180" height="180" viewBox="0 0 180 180" fill="none" xmlns="http://www.w3.org/2000/svg">
<path d="M162.805 39.0005H145.361C144.204 39.0005 143.095 38.5369 142.277 37.7118C141.459 36.8866 141 35.7674 141 34.6005V17.0005" stroke="white" stroke-width="4" stroke-linecap="round" stroke-linejoin="round"/>
<path d="M172.998 7.0007L144.966 35.2867" stroke="white" stroke-width="4" stroke-linecap="round"/>
<path d="M17.195 39H34.639C35.7956 39 36.9048 38.5364 37.7227 37.7113C38.5405 36.8861 39 35.767 39 34.6V17" stroke="white" stroke-width="4" stroke-linecap="round" stroke-linejoin="round"/>
<path d="M7.00172 7.00022L35.0336 35.2862" stroke="white" stroke-width="4" stroke-linecap="round"/>
<path d="M17.195 141H34.639C35.7956 141 36.9048 141.464 37.7227 142.289C38.5405 143.114 39 144.233 39 145.4V163" stroke="white" stroke-width="4" stroke-linecap="round" stroke-linejoin="round"/>
<path d="M7.00172 173L35.0336 144.714" stroke="white" stroke-width="4" stroke-linecap="round"/>
<path d="M162.805 141H145.361C144.204 141 143.095 141.464 142.277 142.289C141.459 143.114 141 144.233 141 145.4V163" stroke="white" stroke-width="4" stroke-linecap="round" stroke-linejoin="round"/>
<path d="M172.998 173L144.966 144.714" stroke="white" stroke-width="4" stroke-linecap="round"/>
<path fill-rule="evenodd" clip-rule="evenodd" d="M128.9 74.1755L107.1 51.2436C106.344 50.4516 105.296 50 104.2 50H58C53.584 50 50 53.584 50 57.9999V85.9996C50 88.2075 51.792 89.9995 54 89.9995C56.212 89.9995 58 88.2075 58 85.9996V61.9999C58 59.7919 59.792 57.9999 62 57.9999H98V73.9997C98 78.4197 101.584 81.9996 106 81.9996H122V85.9996C122 88.2075 123.792 89.9995 126 89.9995C128.212 89.9995 130 88.2075 130 85.9996V76.9313C130 75.9073 129.608 74.9195 128.9 74.1755ZM94 109.999C94 107.791 92.212 105.999 90 105.999H86V113.999H90C92.212 113.999 94 112.211 94 109.999ZM96.9 119.795L99.424 124.847C100.608 127.215 98.888 129.999 96.24 129.999H96.2C94.852 129.999 93.62 129.239 93.016 128.031L90 121.999H86V126.439C86 128.407 84.408 129.999 82.44 129.999H81.56C79.596 129.999 78 128.407 78 126.439V101.559C78 99.5955 79.596 97.9994 81.56 97.9994H89.412C95.66 97.9994 101.296 102.519 101.936 108.735C102.408 113.303 100.296 117.399 96.9 119.795ZM126 121.999H116C114.896 121.999 114 121.103 114 119.999V101.999C114 99.7914 112.212 97.9994 110 97.9994C107.792 97.9994 106 99.7914 106 101.999V121.999V125.999C106 128.207 107.792 129.999 110 129.999H114H126C128.212 129.999 130 128.207 130 125.999C130 123.791 128.212 121.999 126 121.999ZM74 101.559V117.999C74 124.843 68.276 130.347 61.356 129.983C54.868 129.643 50 123.819 50 117.319V101.559C50 99.5955 51.596 97.9994 53.56 97.9994H54.44C56.408 97.9994 58 99.5955 58 101.559V117.999C58 120.207 59.792 121.999 62 121.999C64.212 121.999 66 120.207 66 117.999V101.559C66 99.5955 67.596 97.9994 69.56 97.9994H70.44C72.408 97.9994 74 99.5955 74 101.559Z" fill="white"/>
<path d="M120.26 5.06543L120.893 6.26834C121.036 6.49032 121.19 6.68681 121.372 6.86979C121.905 7.40175 122.402 7.9695 122.859 8.56917C123.933 9.99406 124.657 11.5764 125.174 13.2878C125.484 14.3332 125.653 15.4057 125.665 16.4901C125.717 19.7321 124.618 22.5159 122.4 24.8295C122.04 25.1963 121.65 25.5329 121.235 25.8359C121.016 25.8359 120.912 25.6656 120.821 25.5089C120.656 25.2183 120.547 24.8991 120.498 24.5677C120.42 24.1755 120.369 23.7833 120.394 23.3783V23.1953C120.376 23.1563 120.182 5.15767 120.26 5.06543Z" fill="#599636"/>
<path d="M120.26 5.0258C120.234 4.9733 120.208 5.01305 120.182 5.03855C120.194 5.30103 120.104 5.53501 119.962 5.7585C119.806 5.98048 119.6 6.15072 119.393 6.3337C118.243 7.34013 117.337 8.55579 116.612 9.91543C115.648 11.7453 115.15 13.7064 115.009 15.771C114.945 16.5157 115.242 19.1435 115.475 19.9017C116.108 21.9145 117.247 23.6012 118.721 25.065C119.083 25.4175 119.471 25.7445 119.871 26.0587C119.988 26.0587 120.001 25.9537 120.027 25.8757C120.078 25.7088 120.117 25.5384 120.144 25.3658L120.403 23.4054L120.26 5.0258Z" fill="#6CAC48"/>
<path d="M120.893 26.6323C120.919 26.3323 121.062 26.0833 121.217 25.8351C121.061 25.7699 120.945 25.6401 120.855 25.4954C120.777 25.3583 120.712 25.2139 120.662 25.0642C120.481 24.5152 120.442 23.9393 120.39 23.3783V23.0386C120.325 23.0911 120.312 23.535 120.312 23.601C120.274 24.1939 120.197 24.7835 120.079 25.3657C120.041 25.6011 120.015 25.8359 119.871 26.0451C119.871 26.0713 119.871 26.0976 119.884 26.1366C120.117 26.8295 120.181 27.5352 120.22 28.2544V28.5169C120.22 28.8304 120.207 28.7644 120.465 28.8694C120.569 28.9084 120.685 28.9219 120.789 28.9999C120.866 28.9999 120.879 28.9346 120.879 28.8821L120.84 28.4509V27.248C120.828 27.038 120.866 26.8295 120.892 26.6331L120.893 26.6323Z" fill="#C2BFBF"/>
<path d="M102.4 5H85.6005C83.6123 5 82.0005 6.61177 82.0005 8.6V25.4C82.0005 27.3882 83.6123 29 85.6005 29H102.4C104.389 29 106 27.3882 106 25.4V8.6C106 6.61177 104.389 5 102.4 5Z" fill="#F7DF1E"/>
<path d="M97.188 22.3438C97.6567 23.1406 98.313 23.7031 99.3911 23.7031C100.329 23.7031 100.938 23.2344 100.938 22.5781C100.938 21.8281 100.329 21.5469 99.2974 21.0781L98.7349 20.8438C97.0942 20.1406 96.0161 19.2969 96.0161 17.4688C96.0161 15.7812 97.2817 14.4688 99.2974 14.4688C100.75 14.4688 101.782 14.9844 102.485 16.2969L100.75 17.4219C100.375 16.7188 99.9536 16.4375 99.2974 16.4375C98.6411 16.4375 98.2192 16.8594 98.2192 17.4219C98.2192 18.0781 98.6411 18.3594 99.6255 18.7812L100.188 19.0156C102.11 19.8594 103.188 20.6562 103.188 22.5781C103.188 24.5938 101.594 25.7188 99.438 25.7188C97.3286 25.7188 95.9692 24.7344 95.313 23.4219L97.188 22.3438ZM89.2192 22.5312C89.5942 23.1406 89.8755 23.7031 90.6724 23.7031C91.4224 23.7031 91.8911 23.4219 91.8911 22.2969V14.5156H94.1411V22.2031C94.1411 24.5469 92.7817 25.5781 90.7661 25.5781C88.938 25.5781 87.9067 24.6406 87.3911 23.5156L89.2192 22.5312Z" fill="white"/>
<path d="M69.7709 7.00003L66.9997 11.7964L64.2285 7.00003H55L66.9997 27.769L78.9994 7.00003H69.7709Z" fill="#41B883"/>
<path d="M69.7708 7.00026L66.9996 11.7966L64.2284 7.00026H59.7998L66.9996 19.4614L74.1994 7.00026H69.7708Z" fill="#34495E"/>
</svg>
